<svg width="44" height="43" viewBox="0 0 44 43" fill="none" xmlns="http://www.w3.org/2000/svg"><path fill-rule="evenodd" clip-rule="evenodd" d="M42.881 0H6.514a.844.844 0 0 0-.844.844v9.417c-2.307 1.144-3.82 3.536-3.82 6.127v5.52a.844.844 0 1 0 1.688 0v-5.52c0-1.655.821-3.203 2.132-4.16v7.118a.844.844 0 0 0 1.44.597l.381-.38a2.423 2.423 0 0 1 1.856-.692h.027a.84.84 0 0 0 .633-.245l2.756-2.755a1.298 1.298 0 0 1 1.505-.223c.11.058.211.133.301.223a1.296 1.296 0 0 1 0 1.807l-2.755 2.755a.844.844 0 0 0-.245.655 2.395 2.395 0 0 1-.692 1.86l-.406.407a.844.844 0 0 0 .597 1.442h6.006v2.736a2.723 2.723 0 0 1-2.476 2.696.844.844 0 0 0-.773.841v2.268H3.538v-4.676a.844.844 0 1 0-1.688 0v4.676h-.506a.844.844 0 0 0-.844.844v7.974c0 .466.378.844.844.844H16.02a.844.844 0 0 0 .845-.844v-7.974a.844.844 0 0 0-.845-.844h-.505v-1.564c1.873-.511 3.249-2.244 3.249-4.241v-2.736H42.88a.844.844 0 0 0 .844-.845V.844A.844.844 0 0 0 42.881 0zM15.175 41.311H2.188v-6.285h12.987v6.285zM41.958 1.688c-.194 1.042-.743 2.038-1.593 2.87-.995.973-2.253 1.554-3.366 1.554H12.396c-1.113 0-2.372-.58-3.366-1.554-.85-.832-1.4-1.828-1.593-2.87h34.521zm.079 21.42H12.82a4.091 4.091 0 0 0 .44-1.734l2.502-2.502a2.949 2.949 0 0 0 .866-2.097c0-.795-.307-1.54-.866-2.098a2.969 2.969 0 0 0-1.377-.78c-1.02-.252-2.066.06-2.817.78l-2.503 2.502a4.072 4.072 0 0 0-1.708.425V5.239c.154.18.317.356.49.526C9.153 7.04 10.852 7.8 12.397 7.8h24.603c1.544 0 3.244-.761 4.547-2.037.173-.17.337-.344.49-.525v17.87z" fill="#F00"/><path fill-rule="evenodd" clip-rule="evenodd" d="M38.59 14.338H26.236a.844.844 0 0 0-.844.844v4.48c0 .466.378.844.844.844H38.59a.844.844 0 0 0 .844-.844v-4.48a.844.844 0 0 0-.844-.845zm-.844 4.48H27.08v-2.792h10.667v2.791zM2.694 26.129c.465 0 .844-.38.844-.844a.846.846 0 0 0-.844-.844.846.846 0 0 0-.844.844c0 .465.379.844.844.844z" fill="#F00"/></svg>