<svg width="41" height="42" viewBox="0 0 41 42" fill="none" xmlns="http://www.w3.org/2000/svg"><path d="M40.263 15.519l-2.268-1.683V4.092a.587.587 0 0 0-.587-.587H24.055c-.023-.024-3.205-2.39-3.205-2.39a.587.587 0 0 0-.7 0l-3.22 2.39H3.592a.587.587 0 0 0-.587.587v9.744L.737 15.52a.592.592 0 0 0-.237.471v24.423c0 .324.263.587.587.587h38.826a.594.594 0 0 0 .587-.587V15.99a.606.606 0 0 0-.237-.471zm-2.268-.22l.879.651-.879.553V15.3zM20.5 2.319l1.6 1.186h-3.2l1.6-1.187zM4.18 4.678h32.64v12.563l-2.054 1.292H29.07a.587.587 0 1 0 0 1.175H32.9l-12.399 7.8-12.4-7.8h14.158a.587.587 0 1 0 0-1.175H6.234L4.18 17.242V4.679zM3.004 15.3v1.204l-.879-.553.879-.651zm-1.33 24.527V17.053l36.202 22.773H1.674zm37.65-.476L21.604 28.202l17.723-11.149V39.35z" fill="#F00" stroke="#F00" stroke-width=".3"/><path d="M33.025 7.888h-5.01a.587.587 0 0 0-.587.588v6.262c0 .324.263.587.587.587h5.01a.587.587 0 0 0 .587-.587V8.476a.587.587 0 0 0-.587-.588zm-.587 6.263h-3.836V9.063h3.836v5.088zM25.51 7.888H7.976a.587.587 0 0 0 0 1.175H25.51a.587.587 0 1 0 0-1.175zM17.408 11.313H7.976a.587.587 0 0 0 0 1.174h9.432a.587.587 0 0 0 0-1.174zM20.54 14.738H7.975a.587.587 0 1 0 0 1.174h12.563a.587.587 0 1 0 0-1.174z" fill="#F00" stroke="#F00" stroke-width=".3"/></svg>