<svg xmlns="http://www.w3.org/2000/svg" width="50" height="209" viewBox="0 0 50 209"><svg width="41" height="40" fill="none"><path d="M14.33 34.916a43.753 43.753 0 0 0-5.378-1.943 53.332 53.332 0 0 0-5.426-1.278l-.494-.09a1.485 1.485 0 0 1-.274-.078 1.094 1.094 0 0 1-.62-1.298l.306-.976.314-1.041a59.138 59.138 0 0 0 1.074-4.304 50.82 50.82 0 0 0 .408-2.209l.09-.555.045-.277.028-.152a1.02 1.02 0 0 1 1.217-.714l2.083.6c.139.04.285.05.428.033a1.754 1.754 0 0 0 1.397-1.131 1.66 1.66 0 0 0 .057-.18l.02-.086v-.07c0-.024.025-.118.033-.175a1.806 1.806 0 0 0-.07-.727c0-.052-.032-.106-.053-.159l-.04-.094a1.83 1.83 0 0 1-.147-.506 1.857 1.857 0 0 1 .318-1.31 1.911 1.911 0 0 1 1.103-.768 2 2 0 0 1 1.318.122c.426.176.777.495.993.903a2.062 2.062 0 0 1-.319 2.327l-.106.11-.106.102a1.503 1.503 0 0 0-.367.576c0 .037-.025.078-.037.118v.184a1.45 1.45 0 0 0 .633 1.543l.04.025a.65.65 0 0 0 .253.094 41.74 41.74 0 0 0 4.337.408c.183 0 .35-.249.371-.563.02-.315-.085-.523-.245-.551a133.3 133.3 0 0 1-3.65-.752l.114-.102a3.745 3.745 0 0 0 1.099-1.96 3.87 3.87 0 0 0-2.042-4.258 3.994 3.994 0 0 0-5.814 4.034c0 .135.04.265.07.408l-1.095-.327a3.225 3.225 0 0 0-3.952 2.279 4.432 4.432 0 0 0-.078.408l-.04.27-.09.506a40.458 40.458 0 0 1-.409 2.135 52.112 52.112 0 0 1-.951 4.165l-.274 1.013L.1 29.69a3.115 3.115 0 0 0 .71 2.879 3.08 3.08 0 0 0 1.225.816c.119.037.233.082.356.106.122.025.26.053.338.062l.482.065a68.793 68.793 0 0 1 5.328.951c2.156.47 4.002.964 5.427 1.356.168.045.384-.16.478-.453.094-.294.032-.49-.115-.556z" fill="red"/><path d="M23.55 13.06a2.062 2.062 0 0 1-2.328-.319l-.11-.106-.102-.106a1.501 1.501 0 0 0-.576-.367l-.118-.037h-.184a1.45 1.45 0 0 0-1.543.633l-.025.04a.65.65 0 0 0-.094.253 41.861 41.861 0 0 0-.408 4.337c0 .183.249.35.563.371.315.02.523-.085.552-.245a133.3 133.3 0 0 1 .75-3.65l.103.114c.525.558 1.21.942 1.96 1.099a3.87 3.87 0 0 0 4.259-2.042 3.993 3.993 0 0 0-4.035-5.814c-.134 0-.265.04-.408.07l.327-1.095a3.227 3.227 0 0 0-2.279-3.952 4.432 4.432 0 0 0-.408-.078l-.261-.045-.515-.086a40.435 40.435 0 0 1-2.135-.408A52.105 52.105 0 0 1 12.37.676L11.358.402 10.312.1a3.116 3.116 0 0 0-2.878.71 3.079 3.079 0 0 0-.817 1.225c-.037.119-.082.233-.106.356-.025.122-.053.26-.061.338l-.086.482a68.829 68.829 0 0 1-.951 5.328c-.47 2.156-.964 4.002-1.356 5.427-.045.168.16.384.453.478.294.094.51.036.576-.11a43.75 43.75 0 0 0 1.943-5.378A53.32 53.32 0 0 0 8.307 3.53l.09-.494a1.094 1.094 0 0 1 1.376-.894l.976.302 1.041.314c1.397.408 2.859.768 4.304 1.074a50.82 50.82 0 0 0 2.209.408l.555.09.278.045.15.028a1.02 1.02 0 0 1 .715 1.217l-.6 2.083c-.04.139-.05.285-.032.428a1.757 1.757 0 0 0 1.31 1.454l.086.02h.07l.175.033a1.805 1.805 0 0 0 .727-.07l.159-.053.094-.04.167-.066a1.858 1.858 0 0 1 1.65.237c.38.263.653.655.767 1.103.11.44.067.905-.122 1.318a1.977 1.977 0 0 1-.902.993z" fill="red"/><path d="M39.192 7.433a3.08 3.08 0 0 0-1.225-.816c-.119-.037-.233-.082-.356-.107-.122-.024-.26-.053-.338-.06l-.482-.066a68.872 68.872 0 0 1-5.328-.951 101.53 101.53 0 0 1-5.427-1.356c-.168-.045-.384.16-.478.453-.094.294-.037.51.11.576a43.756 43.756 0 0 0 5.378 1.943 53.317 53.317 0 0 0 5.426 1.278l.494.09a1.094 1.094 0 0 1 .894 1.376l-.302.956-.314 1.04a59.19 59.19 0 0 0-1.074 4.304 50.175 50.175 0 0 0-.408 2.21l-.09.555-.045.277-.029.151a1.02 1.02 0 0 1-.253.437 1 1 0 0 1-.955.262l-2.083-.6a1.067 1.067 0 0 0-.428-.033 1.757 1.757 0 0 0-1.454 1.31l-.02.086v.07c0 .024-.025.118-.033.175a1.735 1.735 0 0 0 0 .38c.012.117.035.234.07.347 0 .053.032.106.053.16l.04.093a1.836 1.836 0 0 1 .147.506 1.85 1.85 0 0 1-.318 1.31 1.918 1.918 0 0 1-1.102.769 2 2 0 0 1-1.32-.123 1.976 1.976 0 0 1-1-.886 2.061 2.061 0 0 1 .319-2.327l.106-.11.106-.103a1.493 1.493 0 0 0 .367-.576c0-.036.025-.077.037-.118v-.184a1.45 1.45 0 0 0-.633-1.543l-.04-.024a.649.649 0 0 0-.253-.094 41.83 41.83 0 0 0-4.337-.409c-.183 0-.35.25-.371.564-.02.314.085.523.245.551a133.3 133.3 0 0 1 3.65.751l-.114.102a3.745 3.745 0 0 0-1.099 1.96 3.87 3.87 0 0 0 2.042 4.259 3.994 3.994 0 0 0 5.814-4.034c0-.135-.04-.265-.07-.408l1.095.326a3.225 3.225 0 0 0 3.952-2.278c.029-.127.066-.298.078-.409l.04-.269.09-.506a65.878 65.878 0 0 1 1.36-6.296l.274-1.017.302-1.045a3.115 3.115 0 0 0-.71-2.879z" fill="red"/><path d="M35.492 25.562c-.261-.082-.51-.037-.576.11a43.744 43.744 0 0 0-1.944 5.378 53.323 53.323 0 0 0-1.277 5.426l-.09.494a1.477 1.477 0 0 1-.078.274 1.094 1.094 0 0 1-1.298.62l-.976-.306-1.041-.314a59.206 59.206 0 0 0-4.304-1.074 50.148 50.148 0 0 0-2.209-.409l-.555-.09-.278-.044-.15-.029a1.018 1.018 0 0 1-.438-.253 1 1 0 0 1-.277-.963l.6-2.083c.04-.14.05-.285.033-.429a1.758 1.758 0 0 0-1.311-1.453l-.086-.02h-.07l-.175-.033a1.808 1.808 0 0 0-.727.07l-.159.052-.094.041-.167.065c-.11.038-.224.066-.34.082a1.857 1.857 0 0 1-1.31-.319 1.915 1.915 0 0 1-.768-1.102c-.11-.44-.066-.906.123-1.319.176-.425.495-.777.902-.992a2.062 2.062 0 0 1 2.328.319l.11.106.102.106a1.501 1.501 0 0 0 .576.367l.118.037h.184a1.45 1.45 0 0 0 1.543-.633l.025-.04a.65.65 0 0 0 .094-.254 41.97 41.97 0 0 0 .408-4.336c0-.184-.249-.351-.563-.372-.315-.02-.523.086-.552.245a133.302 133.302 0 0 1-.75 3.65l-.074-.06a3.745 3.745 0 0 0-1.96-1.099 3.87 3.87 0 0 0-4.259 2.042 3.993 3.993 0 0 0 4.006 5.76c.134 0 .265-.04.408-.069l-.327 1.095a3.227 3.227 0 0 0 2.279 3.952c.126.029.298.066.408.078l.27.04.534.086a65.881 65.881 0 0 1 6.296 1.36l1.013.282 1.045.302a3.115 3.115 0 0 0 2.854-.715c.368-.336.648-.756.817-1.225.037-.118.082-.232.106-.355a4.38 4.38 0 0 0 .061-.339l.066-.481a68.79 68.79 0 0 1 .951-5.328c.47-2.157.964-4.002 1.356-5.427.065-.164-.14-.384-.433-.474z" fill="red"/></svg><svg width="50" height="41" fill="none" y="40"><path d="M40.71 35.746l.363.345-.362-.345.001-.001.003-.004.012-.013.048-.05.183-.191.653-.686a2445.11 2445.11 0 0 0 4.022-4.239 181.142 181.142 0 0 0 .904-.966l.073-.081c.257-.329.402-.846.386-1.434-.016-.582-.19-1.166-.49-1.598l-.01-.014-.008-.015c-.798-1.336-2.575-3.249-5.4-4.977h-.002l-.004-.003-.03-.017-.116-.069-.44-.257a10284.392 10284.392 0 0 0-6.297-3.667l-4.725-2.75-1.557-.907-.436-.254-.115-.067-.026-.015-.003-.001-.016-.007a.822.822 0 0 1-.052-.024l.227-.446M40.71 35.746l-14.762-21.98a1.038 1.038 0 0 1 1.208-.377l.003.001a3.417 3.417 0 0 1 .11.05l.226-.447M40.71 35.746l-.805.845h8.179a1.254 1.254 0 1 1 0 2.508h-11c-.2 0-.484-.104-.748-.316-.262-.211-.44-.475-.493-.712-.112-.499-.064-.835.015-1.067.07-.204.164-.343.265-.491l.063-.094.006-.01 4.518-7.162.21-.334-.275-.282c-.405-.416-.88-.855-1.373-1.185h-.002a8.33 8.33 0 0 0-1.395-.734l-.596-.248-.092.639-.789 5.518-.002.015-.001.014c0-.006 0-.005-.002.003-.013.061-.11.504-.553.79m4.87 2.303l-2.553-8.36M27.496 12.994a2.578 2.578 0 0 0-.167-.073l.25.111m-.083-.038l.034.015.049.023m10.579 14.356c.28.136.565.294.837.475.45.301.898.713 1.293 1.118l-4.518 7.163-.053.078c-.224.328-.604.883-.36 1.96.169.753 1.033 1.418 1.729 1.418h10.999a1.754 1.754 0 1 0 0-3.508h-6.322l-3.605-8.704zm0 0l.02-.143-.495-.07-.192.46.12.051-.717 5.007c0 .006-.088.73-.792 1.178m0 0l-.252-.431-.01.005m.262.426l-8.475 4.959m8.475-4.959l-8.475 4.959m8.214-5.385l-8.466 4.953m8.466-4.953l-8.466 4.953m0 0h-.001zm.252.432a1.63 1.63 0 0 1-2.235-.584m2.235.584l-.824-.276c-.39 0-.768-.201-.98-.561m-.43.253l.43-.253m-.43.253l.43-.254v.001m-.43.253a1.628 1.628 0 0 1 .413-2.111c.045-.04.098-.082.17-.124l7.669-4.486v-7.516c0-.773.316-1.451.659-1.932l.032.022.286-.41-.362-.345-8.436 16.649m21.18-8.17c-.157.203-4.074 4.319-5.455 5.769l5.455-5.768zm0 0c.699-.894.641-2.576-.087-3.624l.087 3.625zM27.58 13.033l-.252.432.252-.433zm13.513 8.448zM10.696 3.445a2.945 2.945 0 1 1-5.89 0 2.945 2.945 0 0 1 5.89 0z" stroke="red"/><path d="M32.644 24.276a2.826 2.826 0 1 1-5.653 0 2.826 2.826 0 0 1 5.653 0z" stroke="red"/><path d="M7.963 38.13c0 1.032-1.273 1.87-2.307 1.87-1.03 0-2.09-.837-2.09-1.87l-.008-25.716V23.82c0 1.99-2.796 1.99-2.796 0V12.141c0-2.403 1.816-4.327 4.177-4.327h5.977c2.36 0 4.177 1.924 4.175 4.327V23.82c0 1.99-2.796 1.99-2.796 0V12.414l-.008 25.717c0 1.032-1.068 1.869-2.1 1.869-1.033 0-2.224-.837-2.224-1.87zm0 0l-.006-14.142h.012l-.006 14.143z" stroke="red" stroke-width="1.2"/><path d="M30.042 8.087a2.265 2.265 0 0 1-.005-.146 3.585 3.585 0 0 0-3.58-3.581h-4.275a3.585 3.585 0 0 0-3.581 3.58v31.838h5.31V7.941c0-.699.284-1.331.742-1.792l.144.156c.408.43.76.802.76 1.636a3.586 3.586 0 0 0 3.582 3.581h3.401v-.002l.044.002a3.6 3.6 0 0 0 3.5-2.819l.136-.628-6.178.012zm-7.166-.146v30.802h-3.24v-1.74h2.247v-1.066h-2.247v-1.749h1.228v-1.067h-1.228v-1.748h2.247v-1.066h-2.247V28.56h1.228v-1.066h-1.228v-1.75h2.247v-1.066h-2.247V22.93h1.228v-1.067h-1.228v-1.75h2.247v-1.065h-2.247v-1.75h1.228v-1.065h-1.228v-1.75h2.247v-1.066h-2.247v-1.749h1.228v-1.066h-1.228V8.853h2.247V7.787h-2.232a2.542 2.542 0 0 1 2.53-2.393h1.76a3.578 3.578 0 0 0-1.065 2.547zm6.263 2.546a2.549 2.549 0 0 1-2.546-2.546c0-1.248-.604-1.884-1.045-2.348a.417.417 0 0 1-.015-.017c.287-.113.598-.18.923-.18a2.548 2.548 0 0 1 2.545 2.545c0 .995.409 1.896 1.066 2.546h-.928zm3.444 0a2.548 2.548 0 0 1-2.255-1.364l4.514-.01a2.561 2.561 0 0 1-2.259 1.374z" fill="red"/></svg><svg width="40" height="40" fill="none" y="81"><path d="M39.563 31.306l-.92-.405a6.124 6.124 0 0 0-.117-.374l.513-.883a.671.671 0 0 0 .005-.66 7.54 7.54 0 0 0-.96-1.34.662.662 0 0 0-.645-.205l-.967.222a6.388 6.388 0 0 0-.293-.216l-.094-1.027a.667.667 0 0 0-.384-.544 7.239 7.239 0 0 0-1.545-.519.661.661 0 0 0-.641.218l-.66.767a4.102 4.102 0 0 0-.362 0l-.66-.767a.66.66 0 0 0-.642-.217 7.228 7.228 0 0 0-1.545.519.666.666 0 0 0-.384.543l-.093 1.027c-.1.07-.2.142-.293.216l-.968-.221a.667.667 0 0 0-.645.205c-.368.41-.69.86-.959 1.34a.665.665 0 0 0 .006.66l.512.882c-.042.12-.08.245-.117.374l-.92.406a.666.666 0 0 0-.394.538 7.327 7.327 0 0 0 0 1.651.666.666 0 0 0 .394.539l.92.405c.036.13.075.253.117.373l-.513.884a.671.671 0 0 0-.006.66c.27.48.592.93.96 1.34a.666.666 0 0 0 .646.205l.966-.222c.095.075.194.147.294.216l.093 1.027a.667.667 0 0 0 .384.544c.494.23 1.012.405 1.545.519a.666.666 0 0 0 .642-.218l.66-.767c.12.006.241.006.361 0l.66.767a.666.666 0 0 0 .639.217 7.23 7.23 0 0 0 1.545-.519.666.666 0 0 0 .384-.544l.094-1.026c.1-.07.2-.142.292-.216l.968.221a.662.662 0 0 0 .645-.205c.368-.41.69-.86.96-1.34a.667.667 0 0 0-.006-.66l-.512-.883c.041-.12.08-.244.116-.373l.92-.406a.665.665 0 0 0 .394-.538 7.327 7.327 0 0 0 0-1.651.666.666 0 0 0-.39-.539zm-.901 1.666l-.855.377a.665.665 0 0 0-.38.463 5.057 5.057 0 0 1-.252.804.667.667 0 0 0 .039.59l.474.817a6.414 6.414 0 0 1-.347.486l-.893-.204a.661.661 0 0 0-.589.15c-.208.182-.43.346-.666.49a.665.665 0 0 0-.313.507l-.087.95a5.155 5.155 0 0 1-.537.183l-.61-.709a.666.666 0 0 0-.506-.23.281.281 0 0 0-.058 0 4.777 4.777 0 0 1-.819 0 .662.662 0 0 0-.563.228l-.61.709a5.66 5.66 0 0 1-.538-.183l-.086-.95a.667.667 0 0 0-.314-.507 4.876 4.876 0 0 1-.666-.491.667.667 0 0 0-.59-.15l-.886.21a6.21 6.21 0 0 1-.347-.487l.474-.817a.668.668 0 0 0 .039-.59c-.106-.26-.19-.53-.251-.804a.667.667 0 0 0-.38-.462l-.856-.377a5.716 5.716 0 0 1 0-.61l.855-.377a.666.666 0 0 0 .38-.462c.062-.275.146-.544.252-.805a.667.667 0 0 0-.039-.59l-.474-.816a6.66 6.66 0 0 1 .347-.487l.893.205a.666.666 0 0 0 .589-.15c.208-.182.43-.346.666-.491a.668.668 0 0 0 .314-.506l.086-.951a5.67 5.67 0 0 1 .537-.183l.61.71a.66.66 0 0 0 .564.228c.273-.024.546-.024.819 0a.659.659 0 0 0 .563-.229l.61-.709c.18.05.359.112.538.183l.087.95a.666.666 0 0 0 .313.507c.236.144.459.309.666.491a.672.672 0 0 0 .59.15l.893-.204c.124.157.24.32.347.486l-.474.817a.666.666 0 0 0-.04.59c.107.26.191.53.252.804a.667.667 0 0 0 .38.462l.855.378a3.487 3.487 0 0 1-.007.609v-.003z" fill="red"/><path d="M32.673 29.339a3.332 3.332 0 1 0 0 6.663 3.332 3.332 0 0 0 0-6.663zm0 5.33a2 2 0 1 1 0-3.998 2 2 0 0 1 0 3.998zM18.682 22.676a9.919 9.919 0 0 0 4.277-.975c.005 0 .011 0 .016-.004.021-.01.04-.023.06-.033.306-.148.604-.313.893-.492.027-.016.058-.03.084-.046.008-.005.013-.012.02-.017.158-.1.312-.205.467-.314.006-.004.013-.004.019-.008.031-.023.058-.05.09-.073a10.4 10.4 0 0 0 .745-.609c.053-.048.106-.095.158-.144a10.1 10.1 0 0 0 .719-.744l.049-.054c.205-.241.399-.491.582-.75a.437.437 0 0 0 .033-.038l.032-.05c.058-.084.11-.171.165-.257.104-.162.205-.326.3-.492a9.948 9.948 0 0 0 .414-.824c.04-.091.083-.181.12-.274a8.87 8.87 0 0 0 .3-.818c.008-.023.013-.047.02-.067.08-.262.147-.528.205-.8.02-.089.035-.178.052-.27.036-.188.067-.379.09-.57.007-.048.014-.095.019-.142a9.978 9.978 0 0 0 .069-1.13 9.978 9.978 0 0 0-.07-1.129c-.004-.047-.011-.094-.017-.141a10.27 10.27 0 0 0-.09-.572c-.018-.09-.033-.18-.053-.27a10.669 10.669 0 0 0-.205-.8c-.007-.022-.012-.046-.02-.066a9.849 9.849 0 0 0-.3-.818c-.037-.092-.08-.182-.121-.274a9.719 9.719 0 0 0-.713-1.316c-.055-.086-.107-.173-.165-.257-.011-.016-.02-.034-.032-.05-.011-.016-.02-.021-.03-.033a10.079 10.079 0 0 0-.585-.754c-.016-.02-.034-.037-.05-.056a9.873 9.873 0 0 0-.718-.743 9.996 9.996 0 0 0-.903-.752c-.032-.023-.059-.051-.09-.074L24.5 4.57a9.126 9.126 0 0 0-.462-.313c-.008-.006-.014-.014-.023-.02-.029-.018-.066-.033-.094-.051a9.7 9.7 0 0 0-.882-.486c-.022-.01-.04-.023-.06-.033-.005 0-.011 0-.016-.004a9.989 9.989 0 1 0-4.281 19.014zM26 8.074c.154.242.296.491.424.747l.045.092c.123.253.232.512.333.776.017.046.035.092.051.139.088.25.162.505.227.763.015.058.032.116.046.176.057.25.1.505.133.762.007.052.018.103.024.155l.008.078c.034.305.052.612.053.92a8.537 8.537 0 0 1-.062.998c-.006.051-.017.1-.024.152-.034.255-.076.51-.133.76-.014.06-.031.118-.046.178a9.433 9.433 0 0 1-.278.9 8.527 8.527 0 0 1-.326.767l-.048.1a8.703 8.703 0 0 1-.425.753 4.655 4.655 0 0 1 0-9.216H26zm-3.853-1.697l-.288-.877a9.19 9.19 0 0 1 .832-.489 7.927 7.927 0 0 1 .543.314l.253.282c.12.125.284.2.457.208l.044.034c.403.318.777.67 1.118 1.055a5.986 5.986 0 0 0 0 11.556c-.337.38-.706.729-1.103 1.044l-.044.032a.667.667 0 0 0-.473.22l-.252.282c-.04.026-.082.05-.124.075a8.5 8.5 0 0 1-.419.239 9.098 9.098 0 0 1-.832-.49l.288-.876a.666.666 0 0 0-.2-.717 7.321 7.321 0 0 1-.854-.853.667.667 0 0 0-.716-.2l-.88.29a8.704 8.704 0 0 1-.588-1.004l.698-.626a.667.667 0 0 0 .183-.723 7.136 7.136 0 0 1-.313-1.16.667.667 0 0 0-.519-.533l-.914-.192a7.552 7.552 0 0 1-.024-.584c0-.185.008-.378.024-.585l.914-.192a.665.665 0 0 0 .52-.533c.071-.395.176-.784.312-1.162a.666.666 0 0 0-.183-.721l-.698-.626a8.68 8.68 0 0 1 .588-1.003l.88.289a.666.666 0 0 0 .718-.2c.26-.307.545-.593.852-.854a.666.666 0 0 0 .2-.72zM18.682 4.02a8.64 8.64 0 0 1 2.47.363c-.164.107-.334.211-.484.325a.667.667 0 0 0-.232.74l.306.933a8.389 8.389 0 0 0-.367.367l-.933-.305a.672.672 0 0 0-.74.23c-.49.647-.9 1.35-1.22 2.096a.667.667 0 0 0 .17.758l.74.666a6.45 6.45 0 0 0-.133.5l-.965.2a.666.666 0 0 0-.524.572 9.143 9.143 0 0 0 0 2.433.666.666 0 0 0 .524.572l.965.2c.04.167.085.333.134.5l-.741.666a.666.666 0 0 0-.169.758c.322.746.733 1.45 1.224 2.097a.666.666 0 0 0 .741.232l.933-.306c.119.126.24.248.367.367l-.306.933a.665.665 0 0 0 .232.74c.15.114.32.218.483.326A8.66 8.66 0 0 1 10.37 10.255a8.662 8.662 0 0 1 8.312-6.235z" fill="red"/><path d="M4.023 36.668a.667.667 0 0 0 .518-.246l7.737-9.523 1.348.98a.666.666 0 0 0 .912-.123l2.08-2.598a12.515 12.515 0 0 0 13.324-6.712h.2l.574.667a.667.667 0 0 0 .638.217 6.535 6.535 0 0 0 1.405-.471.667.667 0 0 0 .383-.544l.082-.893a6.04 6.04 0 0 0 .216-.16l.84.192a.662.662 0 0 0 .647-.206c.332-.372.623-.78.866-1.216a.667.667 0 0 0-.004-.66l-.446-.768c.032-.092.06-.186.087-.281l.8-.353a.666.666 0 0 0 .394-.538 6.627 6.627 0 0 0 0-1.5.667.667 0 0 0-.394-.539l-.8-.352a6.792 6.792 0 0 0-.087-.282l.446-.768a.667.667 0 0 0 .005-.659 6.795 6.795 0 0 0-.87-1.217.666.666 0 0 0-.647-.206l-.84.192a5.637 5.637 0 0 0-.216-.16l-.082-.893a.665.665 0 0 0-.383-.543 6.53 6.53 0 0 0-1.405-.472.667.667 0 0 0-.64.217l-.576.666h-.2A12.646 12.646 0 1 0 7.948 19.364l-1.783 2.229a.666.666 0 0 0 .129.955L7.741 23.6.175 32.916a.665.665 0 0 0 .1.94l3.332 2.666a.662.662 0 0 0 .416.146zM31.28 11.47c-.016-.163-.044-.322-.067-.483-.03-.227-.06-.454-.103-.679-.044-.224-.097-.435-.15-.652-.038-.15-.073-.301-.116-.45a12.009 12.009 0 0 0-.256-.781c-.02-.055-.033-.11-.054-.166a.666.666 0 0 0 .4-.222l.522-.606c.133.04.267.084.4.134l.075.815a.665.665 0 0 0 .313.506c.208.128.406.274.59.436a.666.666 0 0 0 .589.15l.762-.175c.091.12.179.24.26.365l-.406.7a.667.667 0 0 0-.039.589c.094.231.168.47.223.714a.667.667 0 0 0 .38.462l.734.323c.003.076.005.153.005.23 0 .076 0 .153-.005.23l-.733.322a.666.666 0 0 0-.381.462 4.49 4.49 0 0 1-.223.715.667.667 0 0 0 .04.589l.405.7a5.701 5.701 0 0 1-.26.364l-.762-.174a.66.66 0 0 0-.59.149 4.376 4.376 0 0 1-.59.437.666.666 0 0 0-.312.505l-.075.816a4.457 4.457 0 0 1-.4.133l-.52-.605a.666.666 0 0 0-.4-.223c.02-.055.033-.11.053-.166.093-.257.18-.516.256-.781.043-.149.078-.3.115-.45.054-.216.108-.432.151-.652.043-.22.073-.452.103-.678.022-.162.05-.32.067-.484.039-.4.061-.805.061-1.211 0-.407-.024-.807-.062-1.208zM7.355 12.682A11.318 11.318 0 0 1 29.327 8.85l.056.154c.114.325.206.654.288.985.02.08.045.16.063.241.066.312.12.627.162.944.012.094.033.186.043.282a10.88 10.88 0 0 1 0 2.452c-.01.095-.03.187-.043.281a11 11 0 0 1-.162.944c-.018.081-.043.16-.063.241-.082.333-.174.66-.288.985l-.056.154c-.128.353-.273.701-.437 1.044a11.298 11.298 0 0 1-12.434 6.23c-.236-.048-.466-.113-.696-.174-.133-.036-.272-.067-.404-.105-.132-.038-.258-.093-.388-.138-.23-.08-.46-.156-.683-.25-.026-.011-.05-.025-.077-.036a11.34 11.34 0 0 1-6.853-10.402zm.29 9.199l1.092-1.366c.05.063.104.12.154.18.026.033.053.063.08.095.233.28.478.548.733.805l.061.062a12.542 12.542 0 0 0 2.887 2.151 13.229 13.229 0 0 0 1.229.58c.27.11.545.21.824.301.107.036.213.074.32.106.046.014.089.032.134.044l-1.266 1.585-1.341-.974-.076-.056-4.831-3.513zm1.176 2.505l2.378 1.728-7.276 8.955-2.291-1.833 7.189-8.85z" fill="red"/></svg><svg width="39" height="42" fill="none" y="121"><path d="M36.11 31.3c.198-.317.313-.691.313-1.092v-.346a2.067 2.067 0 0 0-2.065-2.064h-6.42c-.139 0-.275.014-.407.04l1.153-5.81c.17-.851.188-1.689.057-2.489-.218-1.33-.92-2.914-3.027-2.914a.616.616 0 0 0-.608.513l-.405 2.38c-.16.94-.378 1.835-.65 2.661-.755 2.288-1.707 3.46-3.396 4.183-.812.347-1.47.644-1.734.763h-2.542v-.492a.616.616 0 0 0-.616-.616H11.59v-.665a.616.616 0 0 0-.616-.617H.616a.616.616 0 0 0-.616.617v3.656a.616.616 0 1 0 1.232 0v-3.04h9.127v14.505H1.233v-9.41a.616.616 0 1 0-1.233 0V41.09c0 .34.276.616.616.616h10.36c.34 0 .615-.276.615-.616v-.665h4.172c.34 0 .616-.276.616-.616v-.29h2.458l1.324 1.073a6.285 6.285 0 0 0 3.942 1.395h3.767c.08.008.16.013.241.013h4.402a2.24 2.24 0 0 0 1.987-3.265 2.24 2.24 0 0 0 1.923-2.215c0-.456-.138-.88-.373-1.234a2.066 2.066 0 0 0 1.122-1.836v-.345c0-.775-.43-1.452-1.063-1.805zm-8.171-2.27h6.42c.458 0 .831.373.831.832v.346a.833.833 0 0 1-.832.832h-6.42a.833.833 0 0 1-.832-.832v-.331c.04-.15.076-.29.106-.419a.832.832 0 0 1 .727-.428zm-2.065 10.733c0 .356.084.693.233.992h-2.004a5.05 5.05 0 0 1-3.166-1.121l-1.494-1.21a.616.616 0 0 0-.388-.137h-2.676V36.52a.616.616 0 1 0-1.232 0v2.672H11.59V27.25h3.556v7.216a.616.616 0 1 0 1.232 0v-6.108h2.676c.089 0 .177-.02.257-.056.008-.004.79-.363 1.827-.807 2.03-.868 3.213-2.296 4.082-4.93a19.6 19.6 0 0 0 .696-2.84l.308-1.814c.723.169 1.121.742 1.3 1.828a5.75 5.75 0 0 1-.05 2.05l-1.314 6.62a8.522 8.522 0 0 1-.123.645c-.082.193-.135.4-.155.618-.488 1.742-1.744 4.729-4.62 4.729a.616.616 0 1 0 0 1.232c1.906 0 3.496-.984 4.637-2.856a2.074 2.074 0 0 0-.026.328v.346c0 .59.249 1.121.646 1.498a2.23 2.23 0 0 0 .052 3.193 2.23 2.23 0 0 0-.698 1.62zm6.64 1.005H28.11a1.006 1.006 0 0 1 0-2.01h4.402a1.006 1.006 0 0 1 0 2.01zm1.671-3.243h-6.074a1.006 1.006 0 0 1 0-2.01h6.074a1.006 1.006 0 0 1 0 2.01zm1.755-4.075a.833.833 0 0 1-.832.833h-7.169a.833.833 0 0 1-.833-.833v-.345c0-.46.373-.832.832-.832h7.17c.458 0 .832.373.832.832v.345zM12.363 8.892a1.146 1.146 0 0 0-.931-.784L8.63 7.7 7.377 5.16a1.146 1.146 0 0 0-1.034-.642c-.442 0-.838.246-1.034.643L4.057 7.7l-2.803.407a1.145 1.145 0 0 0-.93.784c-.137.42-.025.873.292 1.182l2.027 1.976-.478 2.791c-.075.436.1.868.458 1.128a1.149 1.149 0 0 0 1.214.087l2.506-1.317 2.506 1.317c.392.206.857.172 1.214-.088.358-.26.534-.691.459-1.127l-.479-2.79 2.028-1.977c.316-.309.428-.762.292-1.182zm-3.21 2.305a1.152 1.152 0 0 0-.332 1.02l.459 2.673-2.4-1.262a1.152 1.152 0 0 0-1.073 0l-2.4 1.262.458-2.673a1.153 1.153 0 0 0-.332-1.02L1.591 9.304l2.684-.39c.376-.054.7-.29.868-.63l1.2-2.432 1.2 2.432c.168.34.492.576.868.63l2.683.39-1.941 1.893zm16.173-6.824a1.146 1.146 0 0 0-.93-.784l-2.802-.407L20.34.642A1.145 1.145 0 0 0 19.307 0c-.442 0-.838.246-1.034.642l-1.253 2.54-2.802.407a1.145 1.145 0 0 0-.93.784c-.137.42-.025.873.291 1.182l2.028 1.976-.478 2.791c-.075.436.1.868.458 1.128.357.26.822.293 1.214.087l2.506-1.317 2.506 1.317a1.149 1.149 0 0 0 1.214-.088c.358-.26.533-.691.459-1.127l-.479-2.79 2.028-1.977c.316-.309.428-.762.291-1.182zm-3.21 2.305a1.153 1.153 0 0 0-.33 1.02l.458 2.673-2.4-1.262a1.153 1.153 0 0 0-1.073 0l-2.4 1.262.458-2.673a1.153 1.153 0 0 0-.332-1.02l-1.941-1.893 2.683-.39c.376-.054.7-.29.868-.63l1.2-2.432 1.2 2.432c.168.34.493.576.868.63l2.683.39-1.941 1.893zm16.15 2.214a1.146 1.146 0 0 0-.93-.784L34.532 7.7 33.28 5.16a1.145 1.145 0 0 0-1.034-.642c-.442 0-.837.246-1.033.643L29.96 7.7l-2.802.407a1.146 1.146 0 0 0-.93.784c-.137.42-.026.873.29 1.182l2.029 1.976-.48 2.791c-.074.436.102.868.46 1.128.357.26.822.293 1.213.087l2.506-1.317 2.507 1.317a1.152 1.152 0 0 0 1.672-1.215l-.479-2.79 2.028-1.977c.317-.309.428-.762.292-1.182zm-3.21 2.305a1.153 1.153 0 0 0-.331 1.02l.458 2.673-2.4-1.262a1.151 1.151 0 0 0-1.073 0l-2.4 1.262.458-2.673a1.152 1.152 0 0 0-.331-1.02l-1.942-1.893 2.683-.39c.376-.054.7-.29.868-.63l1.2-2.432 1.2 2.432c.169.34.493.576.868.63l2.684.39-1.942 1.893z" fill="red"/></svg><svg width="42" height="46" fill="none" y="163"><path d="M12.703 24.03v.7h1.11l-.479-1.001-.631.301zm-.051-.098l.609-.345h-.001l-.608.345zm-.637-1.119l-.359-.601-.588.351.339.596.608-.346zm9.046-11.954l-.7-.006.7.006zM11.35 1l-.005.7.005-.7zm-9.859 9.708l.7.006-.7-.006zm8.754 12.116l.604.355.37-.63-.645-.342-.329.617zm-.636 1.084l.603.355-.603-.355zm-.065.122l-.632-.3-.476 1h1.108v-.7zm3.79-.301a2.243 2.243 0 0 0-.075-.142l-1.217.69a.93.93 0 0 1 .028.055l1.263-.603zm-.075-.143l-.636-1.119-1.217.692.636 1.12 1.217-.693zm-.886-.172c1.209-.721 3.518-2.235 5.54-4.356 2.013-2.111 3.821-4.91 3.846-8.194l-1.4-.01c-.02 2.767-1.553 5.239-3.46 7.238-1.897 1.991-4.086 3.43-5.244 4.12l.718 1.202zm9.386-12.55C21.806 5.074 17.148.344 11.357.3l-.01 1.4a9.083 9.083 0 0 1 9.014 9.153l1.4.011zM11.357.3C5.568.255.837 4.911.793 10.703l1.4.01A9.082 9.082 0 0 1 11.345 1.7l.01-1.4zM.793 10.703c-.028 3.625 1.666 6.494 3.632 8.596 1.964 2.098 4.24 3.476 5.492 4.143l.659-1.235c-1.184-.63-3.311-1.923-5.128-3.865-1.814-1.938-3.28-4.478-3.256-7.628l-1.4-.011zm8.85 11.767l-.637 1.083 1.207.71.637-1.084-1.207-.71zm-.636 1.083a2.266 2.266 0 0 0-.094.177l1.264.601a.834.834 0 0 1 .036-.068l-1.206-.71zm.538 1.177h3.158v-1.4H9.545v1.4z" fill="red"/><path fill-rule="evenodd" clip-rule="evenodd" d="M10.334 26.057l.03.012v5.683a3.748 3.748 0 0 0 3.744 3.744 3.748 3.748 0 0 0 3.744-3.744V29.12c0-1.173.954-2.125 2.125-2.125h3.159l-.339.376a2.853 2.853 0 0 0-.662 2.56c-.81.376-2.02 1.162-2.02 2.537v.787c0 .623.248 1.19.646 1.598a2.437 2.437 0 0 0-.646 1.644c0 .637.251 1.212.65 1.649-.4.43-.65 1-.65 1.634a2.407 2.407 0 0 0 2.403 2.404h3.136v2.12a.81.81 0 0 0 1.62 0v-2.12h1.39c.57 0 1.09-.21 1.502-.543.007 0 .012.002.018.003a.063.063 0 0 0 .018.003h3.61c.852 0 1.621-.341 2.19-.892l4.06.91a.81.81 0 0 0 .353-1.582l-3.563-.799a3.13 3.13 0 0 0 .113-.793v-1.634a.81.81 0 0 0-1.62 0v1.634c0 .845-.69 1.535-1.535 1.535h-2.768l.011-.086c.008-.054.015-.107.015-.163 0-.632-.25-1.204-.65-1.633.4-.435.65-1.012.65-1.648 0-.635-.248-1.209-.646-1.646.364-.374.593-.881.63-1.443.481.155.996.256 1.563.256a5.562 5.562 0 0 0 3.466-1.216.81.81 0 0 0-1.016-1.262 3.87 3.87 0 0 1-2.45.858c-.64 0-1.53-.149-2.143-.852-.617-.71-.837-1.852-.633-3.302a.809.809 0 0 0-1.406-.651l-2.575 2.876c-.232.261-.55.408-.897.42-.416-.015-.672-.122-.917-.366A1.244 1.244 0 0 1 24 28.45l3.215-3.576a1.29 1.29 0 0 1 1.225-.342l12.009 3.596a.81.81 0 0 0 1.009-.545.804.804 0 0 0-.54-1.004l-12.035-3.6c-.992-.27-2.074.021-2.839.784l-1.45 1.611H19.98a3.748 3.748 0 0 0-3.745 3.745v2.632a2.127 2.127 0 0 1-2.125 2.125 2.128 2.128 0 0 1-2.124-2.125v-5.695h-1.651zM22.57 37.33h3.086v-1.667H22.57a.834.834 0 1 0 0 1.667zm4.705 0h1.344a.832.832 0 1 0 0-1.665h-1.344v1.665zm1.605-3.436c.316 0 .572-.286.572-.64v-.485c0-.353-.258-.64-.572-.64l-1.605-.057v1.822h1.605zm-7.142 5.888c0 .432.351.784.784.784v.001h3.135v-1.57h-3.135a.787.787 0 0 0-.784.785zm5.537.784h1.393a.786.786 0 0 0-.002-1.572h-1.39v1.572zm.449-10.1l.63.022-.012-.043c-.044-.172-.09-.344-.12-.536l-.498.557zm-2.068 1.59a2.865 2.865 0 0 1-.643.099c-.84.03-1.526-.274-2.077-.81-.521.229-1.2.653-1.2 1.12v.788c0 .353.258.64.572.64h3.348v-1.837z" fill="red"/></svg></svg>