<svg width="15" height="21" viewBox="0 0 15 21" fill="none" xmlns="http://www.w3.org/2000/svg"><path d="M7.07 4.883A2.56 2.56 0 0 0 4.512 7.44a2.56 2.56 0 0 0 2.556 2.557A2.56 2.56 0 0 0 9.626 7.44 2.56 2.56 0 0 0 7.07 4.883zm0 4.383A1.828 1.828 0 0 1 5.242 7.44c0-1.007.82-1.826 1.826-1.826 1.007 0 1.827.82 1.827 1.826 0 1.007-.82 1.826-1.827 1.826z" fill="#F00"/><path d="M11.957 2.552A6.959 6.959 0 0 0 7.005.5c-1.872 0-3.63.729-4.953 2.052C-.396 5-.701 9.605 1.392 12.396L7.006 20.5l5.603-8.093c2.102-2.802 1.798-7.407-.65-9.855zm.058 9.428l-5.01 7.236-5.02-7.247C.088 9.437.36 5.277 2.57 3.069A6.232 6.232 0 0 1 7.005 1.23c1.675 0 3.25.653 4.436 1.838 2.21 2.21 2.482 6.369.574 8.912z" fill="#F00"/></svg>