<svg width="22" height="21" viewBox="0 0 22 21" fill="none" xmlns="http://www.w3.org/2000/svg"><path d="M20.826 19.617l-4.86-4.86a8.493 8.493 0 0 0 2.093-5.592c0-4.705-3.827-8.528-8.527-8.528-4.705 0-8.528 3.828-8.528 8.528 0 4.7 3.827 8.528 8.528 8.528 2.137 0 4.093-.79 5.592-2.093l4.86 4.86c.115.115.27.177.421.177a.6.6 0 0 0 .421-1.02zM2.197 9.165c0-4.044 3.291-7.33 7.331-7.33 4.045 0 7.33 3.29 7.33 7.33S13.573 16.5 9.528 16.5c-4.04 0-7.33-3.29-7.33-7.335z" fill="#F00" stroke="#F00" stroke-width=".6"/></svg>