<svg width="41" height="40" viewBox="0 0 41 40" fill="none" xmlns="http://www.w3.org/2000/svg"><path d="M14.33 34.916a43.753 43.753 0 0 0-5.378-1.943 53.332 53.332 0 0 0-5.426-1.278l-.494-.09a1.485 1.485 0 0 1-.274-.078 1.094 1.094 0 0 1-.62-1.298l.306-.976.314-1.041a59.138 59.138 0 0 0 1.074-4.304c.152-.732.288-1.468.408-2.209l.09-.555.045-.277.028-.152a1.02 1.02 0 0 1 1.217-.714l2.083.6c.139.04.285.05.428.033a1.754 1.754 0 0 0 1.397-1.131 1.66 1.66 0 0 0 .057-.18l.02-.086v-.07c0-.024.025-.118.033-.175a1.806 1.806 0 0 0-.07-.727c0-.052-.032-.106-.053-.159l-.04-.094a1.83 1.83 0 0 1-.147-.506c-.062-.461.052-.929.318-1.31.263-.381.654-.654 1.103-.768a2 2 0 0 1 1.318.122c.426.176.777.495.993.903a2.062 2.062 0 0 1-.319 2.327l-.106.11-.106.102a1.503 1.503 0 0 0-.367.576c0 .037-.025.078-.037.118v.184a1.45 1.45 0 0 0 .633 1.543l.04.025a.65.65 0 0 0 .253.094c1.438.211 2.885.348 4.337.408.183 0 .35-.249.371-.563.02-.315-.085-.523-.245-.551a133.3 133.3 0 0 1-3.65-.752l.114-.102a3.745 3.745 0 0 0 1.099-1.96 3.87 3.87 0 0 0-2.042-4.258 3.994 3.994 0 0 0-5.814 4.034c0 .135.04.265.07.408l-1.095-.327a3.225 3.225 0 0 0-3.952 2.279 4.432 4.432 0 0 0-.078.408l-.04.27-.09.506a40.458 40.458 0 0 1-.409 2.135 52.112 52.112 0 0 1-.951 4.165l-.274 1.013L.1 29.69a3.115 3.115 0 0 0 .71 2.879 3.08 3.08 0 0 0 1.225.816c.119.037.233.082.356.106.122.025.26.053.338.062l.482.065a68.793 68.793 0 0 1 5.328.951c2.156.47 4.002.964 5.427 1.356.168.045.384-.16.478-.453.094-.294.032-.49-.115-.556z" fill="#F00"/><path d="M23.55 13.06a2.062 2.062 0 0 1-2.328-.319l-.11-.106-.102-.106a1.501 1.501 0 0 0-.576-.367l-.118-.037h-.184a1.45 1.45 0 0 0-1.543.633l-.025.04a.65.65 0 0 0-.094.253 41.861 41.861 0 0 0-.408 4.337c0 .183.249.35.563.371.315.02.523-.085.552-.245a133.3 133.3 0 0 1 .75-3.65l.103.114c.525.558 1.21.942 1.96 1.099a3.87 3.87 0 0 0 4.259-2.042 3.993 3.993 0 0 0-4.035-5.814c-.134 0-.265.04-.408.07l.327-1.095a3.227 3.227 0 0 0-2.279-3.952 4.432 4.432 0 0 0-.408-.078l-.261-.045-.515-.086a40.435 40.435 0 0 1-2.135-.408A52.105 52.105 0 0 1 12.37.676L11.358.402 10.312.1a3.116 3.116 0 0 0-2.878.71 3.079 3.079 0 0 0-.817 1.225c-.037.119-.082.233-.106.356-.025.122-.053.26-.061.338l-.086.482a68.829 68.829 0 0 1-.951 5.328c-.47 2.156-.964 4.002-1.356 5.427-.045.168.16.384.453.478.294.094.51.036.576-.11a43.75 43.75 0 0 0 1.943-5.378A53.32 53.32 0 0 0 8.307 3.53l.09-.494a1.094 1.094 0 0 1 1.376-.894l.976.302 1.041.314c1.397.408 2.859.768 4.304 1.074.732.152 1.468.288 2.209.408l.555.09.278.045.15.028a1.02 1.02 0 0 1 .715 1.217l-.6 2.083c-.04.139-.05.285-.032.428a1.757 1.757 0 0 0 1.31 1.454l.086.02h.07l.175.033a1.805 1.805 0 0 0 .727-.07l.159-.053.094-.04.167-.066a1.858 1.858 0 0 1 1.65.237c.38.263.653.655.767 1.103.11.44.067.905-.122 1.318a1.977 1.977 0 0 1-.902.993z" fill="#F00"/><path d="M39.192 7.433a3.08 3.08 0 0 0-1.225-.816c-.119-.037-.233-.082-.356-.107-.122-.024-.26-.053-.338-.06l-.482-.066a68.872 68.872 0 0 1-5.328-.951c-2.157-.47-4.002-.964-5.427-1.356-.168-.045-.384.16-.478.453-.094.294-.037.51.11.576a43.756 43.756 0 0 0 5.378 1.943 53.317 53.317 0 0 0 5.426 1.278l.494.09a1.094 1.094 0 0 1 .894 1.376l-.302.956-.314 1.04a59.19 59.19 0 0 0-1.074 4.304 50.175 50.175 0 0 0-.408 2.21l-.09.555-.045.277-.029.151a1.02 1.02 0 0 1-.253.437 1 1 0 0 1-.955.262l-2.083-.6c-.139-.04-.285-.051-.428-.033a1.757 1.757 0 0 0-1.454 1.31l-.02.086v.07c0 .024-.025.118-.033.175a1.735 1.735 0 0 0 0 .38c.012.117.035.234.07.347 0 .053.032.106.053.16l.04.093a1.836 1.836 0 0 1 .147.506c.062.462-.051.93-.318 1.31-.263.381-.654.654-1.102.769a2 2 0 0 1-1.32-.123 1.976 1.976 0 0 1-1-.886 2.061 2.061 0 0 1 .319-2.327l.106-.11.106-.103a1.493 1.493 0 0 0 .367-.576c0-.036.025-.077.037-.118v-.184a1.45 1.45 0 0 0-.633-1.543l-.04-.024a.649.649 0 0 0-.253-.094 41.83 41.83 0 0 0-4.337-.409c-.183 0-.35.25-.371.564-.02.314.085.523.245.551a133.3 133.3 0 0 1 3.65.751l-.114.102a3.745 3.745 0 0 0-1.099 1.96 3.87 3.87 0 0 0 2.042 4.259 3.994 3.994 0 0 0 5.814-4.034c0-.135-.04-.265-.07-.408l1.095.326a3.225 3.225 0 0 0 3.952-2.278c.029-.127.066-.298.078-.409l.04-.269.09-.506a65.878 65.878 0 0 1 1.36-6.296l.274-1.017.302-1.045a3.115 3.115 0 0 0-.71-2.879z" fill="#F00"/><path d="M35.492 25.562c-.261-.082-.51-.037-.576.11a43.744 43.744 0 0 0-1.944 5.378 53.323 53.323 0 0 0-1.277 5.426l-.09.494a1.477 1.477 0 0 1-.078.274 1.094 1.094 0 0 1-1.298.62l-.976-.306-1.041-.314a59.206 59.206 0 0 0-4.304-1.074 50.148 50.148 0 0 0-2.209-.409l-.555-.09-.278-.044-.15-.029a1.018 1.018 0 0 1-.438-.253 1 1 0 0 1-.277-.963l.6-2.083c.04-.14.05-.285.033-.429a1.758 1.758 0 0 0-1.311-1.453l-.086-.02h-.07l-.175-.033a1.808 1.808 0 0 0-.727.07l-.159.052-.094.041-.167.065c-.11.038-.224.066-.34.082a1.857 1.857 0 0 1-1.31-.319 1.915 1.915 0 0 1-.768-1.102c-.11-.44-.066-.906.123-1.319.176-.425.495-.777.902-.992a2.062 2.062 0 0 1 2.328.319l.11.106.102.106a1.501 1.501 0 0 0 .576.367l.118.037h.184a1.45 1.45 0 0 0 1.543-.633l.025-.04a.65.65 0 0 0 .094-.254c.211-1.437.347-2.884.408-4.336 0-.184-.249-.351-.563-.372-.315-.02-.523.086-.552.245a133.302 133.302 0 0 1-.75 3.65l-.074-.06a3.745 3.745 0 0 0-1.96-1.099 3.87 3.87 0 0 0-4.259 2.042 3.993 3.993 0 0 0 4.006 5.76c.134 0 .265-.04.408-.069l-.327 1.095a3.227 3.227 0 0 0 2.279 3.952c.126.029.298.066.408.078l.27.04.534.086a65.881 65.881 0 0 1 6.296 1.36l1.013.282 1.045.302a3.115 3.115 0 0 0 2.854-.715c.368-.336.648-.756.817-1.225.037-.118.082-.232.106-.355.025-.122.053-.261.061-.339l.066-.481a68.79 68.79 0 0 1 .951-5.328c.47-2.157.964-4.002 1.356-5.427.065-.164-.14-.384-.433-.474z" fill="#F00"/></svg>