<svg width="50" height="41" viewBox="0 0 50 41" fill="none" xmlns="http://www.w3.org/2000/svg"><path d="M40.71 35.746l.363.345-.362-.345.001-.001.003-.004.012-.013.048-.05.183-.191.653-.686a2445.11 2445.11 0 0 0 4.022-4.239 181.142 181.142 0 0 0 .904-.966l.073-.081c.257-.329.402-.846.386-1.434-.016-.582-.19-1.166-.49-1.598l-.01-.014-.008-.015c-.798-1.336-2.575-3.249-5.4-4.977h-.002l-.004-.003-.03-.017-.116-.069-.44-.257a10284.392 10284.392 0 0 0-6.297-3.667l-4.725-2.75-1.557-.907-.436-.254-.115-.067-.026-.015-.003-.001-.016-.007a.822.822 0 0 1-.052-.024l.227-.446M40.71 35.746l-14.762-21.98a1.038 1.038 0 0 1 1.208-.377l.003.001a3.417 3.417 0 0 1 .11.05l.226-.447M40.71 35.746l-.805.845h8.179a1.254 1.254 0 1 1 0 2.508h-11c-.2 0-.484-.104-.748-.316-.262-.211-.44-.475-.493-.712-.112-.499-.064-.835.015-1.067.07-.204.164-.343.265-.491l.063-.094.006-.01 4.518-7.162.21-.334-.275-.282c-.405-.416-.88-.855-1.373-1.185h-.002a8.33 8.33 0 0 0-1.395-.734l-.596-.248-.092.639-.789 5.518-.002.015-.001.014c0-.006 0-.005-.002.003-.013.061-.11.504-.553.79m4.87 2.303l-2.553-8.36M27.496 12.994a2.578 2.578 0 0 0-.167-.073l.25.111m-.083-.038l.034.015.049.023m10.579 14.356c.28.136.565.294.837.475.45.301.898.713 1.293 1.118l-4.518 7.163-.053.078c-.224.328-.604.883-.36 1.96.169.753 1.033 1.418 1.729 1.418h10.999a1.754 1.754 0 1 0 0-3.508h-6.322l-3.605-8.704zm0 0l.02-.143-.495-.07-.192.46.12.051-.717 5.007c0 .006-.088.73-.792 1.178m0 0l-.252-.431-.01.005m.262.426l-8.475 4.959m8.475-4.959l-8.475 4.959m8.214-5.385l-8.466 4.953m8.466-4.953l-8.466 4.953m0 0h-.001zm.252.432a1.63 1.63 0 0 1-2.235-.584m2.235.584l-.824-.276c-.39 0-.768-.201-.98-.561m-.43.253l.43-.253m-.43.253l.43-.254v.001m-.43.253a1.628 1.628 0 0 1 .413-2.111c.045-.04.098-.082.17-.124l7.669-4.486v-7.516c0-.773.316-1.451.659-1.932l.032.022.286-.41-.362-.345-8.436 16.649m21.18-8.17c-.157.203-4.074 4.319-5.455 5.769l5.455-5.768zm0 0c.699-.894.641-2.576-.087-3.624l.087 3.625zM27.58 13.033l-.252.432.252-.433zm13.513 8.448zM10.696 3.445a2.945 2.945 0 1 1-5.89 0 2.945 2.945 0 0 1 5.89 0z" stroke="#F00"/><path d="M32.644 24.276a2.826 2.826 0 1 1-5.653 0 2.826 2.826 0 0 1 5.653 0z" stroke="#F00"/><path d="M7.963 38.13c0 1.032-1.273 1.87-2.307 1.87-1.03 0-2.09-.837-2.09-1.87l-.008-25.716V23.82c0 1.99-2.796 1.99-2.796 0V12.141c0-2.403 1.816-4.327 4.177-4.327h5.977c2.36 0 4.177 1.924 4.175 4.327V23.82c0 1.99-2.796 1.99-2.796 0V12.414l-.008 25.717c0 1.032-1.068 1.869-2.1 1.869-1.033 0-2.224-.837-2.224-1.87zm0 0l-.006-14.142h.012l-.006 14.143z" stroke="#F00" stroke-width="1.2"/><path d="M30.042 8.087a2.265 2.265 0 0 1-.005-.146 3.585 3.585 0 0 0-3.58-3.581h-4.275a3.585 3.585 0 0 0-3.581 3.58v31.838h5.31V7.941c0-.699.284-1.331.742-1.792l.144.156c.408.43.76.802.76 1.636a3.586 3.586 0 0 0 3.582 3.581h3.401v-.002l.044.002a3.6 3.6 0 0 0 3.5-2.819l.136-.628-6.178.012zm-7.166-.146v30.802h-3.24v-1.74h2.247v-1.066h-2.247v-1.749h1.228v-1.067h-1.228v-1.748h2.247v-1.066h-2.247V28.56h1.228v-1.066h-1.228v-1.75h2.247v-1.066h-2.247V22.93h1.228v-1.067h-1.228v-1.75h2.247v-1.065h-2.247v-1.75h1.228v-1.065h-1.228v-1.75h2.247v-1.066h-2.247v-1.749h1.228v-1.066h-1.228V8.853h2.247V7.787h-2.232a2.542 2.542 0 0 1 2.53-2.393h1.76a3.578 3.578 0 0 0-1.065 2.547zm6.263 2.546a2.549 2.549 0 0 1-2.546-2.546c0-1.248-.604-1.884-1.045-2.348a.417.417 0 0 1-.015-.017c.287-.113.598-.18.923-.18a2.548 2.548 0 0 1 2.545 2.545c0 .995.409 1.896 1.066 2.546h-.928zm3.444 0a2.548 2.548 0 0 1-2.255-1.364l4.514-.01a2.561 2.561 0 0 1-2.259 1.374z" fill="#F00"/></svg>