<svg width="40" height="40" viewBox="0 0 40 40" fill="none" xmlns="http://www.w3.org/2000/svg"><path d="M39.563 31.306l-.92-.405a6.124 6.124 0 0 0-.117-.374l.513-.883a.671.671 0 0 0 .005-.66 7.54 7.54 0 0 0-.96-1.34.662.662 0 0 0-.645-.205l-.967.222a6.388 6.388 0 0 0-.293-.216l-.094-1.027a.667.667 0 0 0-.384-.544 7.239 7.239 0 0 0-1.545-.519.661.661 0 0 0-.641.218l-.66.767a4.102 4.102 0 0 0-.362 0l-.66-.767a.66.66 0 0 0-.642-.217 7.228 7.228 0 0 0-1.545.519.666.666 0 0 0-.384.543l-.093 1.027c-.1.07-.2.142-.293.216l-.968-.221a.667.667 0 0 0-.645.205c-.368.41-.69.86-.959 1.34a.665.665 0 0 0 .006.66l.512.882c-.042.12-.08.245-.117.374l-.92.406a.666.666 0 0 0-.394.538 7.327 7.327 0 0 0 0 1.651.666.666 0 0 0 .394.539l.92.405c.036.13.075.253.117.373l-.513.884a.671.671 0 0 0-.006.66c.27.48.592.93.96 1.34a.666.666 0 0 0 .646.205l.966-.222c.095.075.194.147.294.216l.093 1.027a.667.667 0 0 0 .384.544c.494.23 1.012.405 1.545.519a.666.666 0 0 0 .642-.218l.66-.767c.12.006.241.006.361 0l.66.767a.666.666 0 0 0 .639.217 7.23 7.23 0 0 0 1.545-.519.666.666 0 0 0 .384-.544l.094-1.026c.1-.07.2-.142.292-.216l.968.221a.662.662 0 0 0 .645-.205c.368-.41.69-.86.96-1.34a.667.667 0 0 0-.006-.66l-.512-.883c.041-.12.08-.244.116-.373l.92-.406a.665.665 0 0 0 .394-.538 7.327 7.327 0 0 0 0-1.651.666.666 0 0 0-.39-.539zm-.901 1.666l-.855.377a.665.665 0 0 0-.38.463 5.057 5.057 0 0 1-.252.804.667.667 0 0 0 .039.59l.474.817a6.414 6.414 0 0 1-.347.486l-.893-.204a.661.661 0 0 0-.589.15c-.208.182-.43.346-.666.49a.665.665 0 0 0-.313.507l-.087.95c-.179.071-.358.134-.537.183l-.61-.709a.666.666 0 0 0-.506-.23c-.02-.002-.039-.002-.058 0a4.777 4.777 0 0 1-.819 0 .662.662 0 0 0-.563.228l-.61.709a5.66 5.66 0 0 1-.538-.183l-.086-.95a.667.667 0 0 0-.314-.507 4.876 4.876 0 0 1-.666-.491.667.667 0 0 0-.59-.15l-.886.21a6.21 6.21 0 0 1-.347-.487l.474-.817a.668.668 0 0 0 .039-.59c-.106-.26-.19-.53-.251-.804a.667.667 0 0 0-.38-.462l-.856-.377a5.716 5.716 0 0 1 0-.61l.855-.377a.666.666 0 0 0 .38-.462c.062-.275.146-.544.252-.805a.667.667 0 0 0-.039-.59l-.474-.816c.107-.166.223-.328.347-.487l.893.205a.666.666 0 0 0 .589-.15c.208-.182.43-.346.666-.491a.668.668 0 0 0 .314-.506l.086-.951c.179-.07.358-.133.537-.183l.61.71a.66.66 0 0 0 .564.228c.273-.024.546-.024.819 0a.659.659 0 0 0 .563-.229l.61-.709c.18.05.359.112.538.183l.087.95a.666.666 0 0 0 .313.507c.236.144.459.309.666.491a.672.672 0 0 0 .59.15l.893-.204c.124.157.24.32.347.486l-.474.817a.666.666 0 0 0-.04.59c.107.26.191.53.252.804a.667.667 0 0 0 .38.462l.855.378a3.487 3.487 0 0 1-.007.609v-.003z" fill="#F00"/><path d="M32.673 29.339a3.332 3.332 0 1 0 0 6.663 3.332 3.332 0 0 0 0-6.663zm0 5.33a2 2 0 1 1 0-3.998 2 2 0 0 1 0 3.998zM18.682 22.676a9.919 9.919 0 0 0 4.277-.975c.005 0 .011 0 .016-.004.021-.01.04-.023.06-.033.306-.148.604-.313.893-.492.027-.016.058-.03.084-.046.008-.005.013-.012.02-.017.158-.1.312-.205.467-.314.006-.004.013-.004.019-.008.031-.023.058-.05.09-.073.258-.192.507-.395.745-.609.053-.048.106-.095.158-.144.252-.235.492-.484.719-.744l.049-.054c.205-.241.399-.491.582-.75a.437.437 0 0 0 .033-.038l.032-.05c.058-.084.11-.171.165-.257.104-.162.205-.326.3-.492a9.948 9.948 0 0 0 .414-.824c.04-.091.083-.181.12-.274.112-.266.214-.54.3-.818.008-.023.013-.047.02-.067.08-.262.147-.528.205-.8.02-.089.035-.178.052-.27.036-.188.067-.379.09-.57.007-.048.014-.095.019-.142a9.978 9.978 0 0 0 .069-1.13 9.978 9.978 0 0 0-.07-1.129c-.004-.047-.011-.094-.017-.141a10.27 10.27 0 0 0-.09-.572c-.018-.09-.033-.18-.053-.27a10.669 10.669 0 0 0-.205-.8c-.007-.022-.012-.046-.02-.066a9.849 9.849 0 0 0-.3-.818c-.037-.092-.08-.182-.121-.274a9.719 9.719 0 0 0-.713-1.316c-.055-.086-.107-.173-.165-.257-.011-.016-.02-.034-.032-.05-.011-.016-.02-.021-.03-.033a10.079 10.079 0 0 0-.585-.754c-.016-.02-.034-.037-.05-.056-.226-.26-.466-.508-.718-.743a9.996 9.996 0 0 0-.903-.752c-.032-.023-.059-.051-.09-.074L24.5 4.57c-.15-.109-.305-.213-.462-.313-.008-.006-.014-.014-.023-.02-.029-.018-.066-.033-.094-.051-.286-.177-.58-.34-.882-.486-.022-.01-.04-.023-.06-.033-.005 0-.011 0-.016-.004a9.989 9.989 0 1 0-4.281 19.014zM26 8.074c.154.242.296.491.424.747l.045.092c.123.253.232.512.333.776.017.046.035.092.051.139.088.25.162.505.227.763.015.058.032.116.046.176.057.25.1.505.133.762.007.052.018.103.024.155l.008.078c.034.305.052.612.053.92a8.537 8.537 0 0 1-.062.998c-.006.051-.017.1-.024.152-.034.255-.076.51-.133.76-.014.06-.031.118-.046.178a9.433 9.433 0 0 1-.278.9 8.527 8.527 0 0 1-.326.767l-.048.1c-.129.258-.271.509-.425.753a4.655 4.655 0 0 1 0-9.216H26zm-3.853-1.697l-.288-.877a9.19 9.19 0 0 1 .832-.489 7.927 7.927 0 0 1 .543.314l.253.282c.12.125.284.2.457.208l.044.034c.403.318.777.67 1.118 1.055a5.986 5.986 0 0 0 0 11.556c-.337.38-.706.729-1.103 1.044l-.044.032a.667.667 0 0 0-.473.22l-.252.282c-.04.026-.082.05-.124.075a8.5 8.5 0 0 1-.419.239 9.098 9.098 0 0 1-.832-.49l.288-.876a.666.666 0 0 0-.2-.717 7.321 7.321 0 0 1-.854-.853.667.667 0 0 0-.716-.2l-.88.29a8.704 8.704 0 0 1-.588-1.004l.698-.626a.667.667 0 0 0 .183-.723 7.136 7.136 0 0 1-.313-1.16.667.667 0 0 0-.519-.533l-.914-.192a7.552 7.552 0 0 1-.024-.584c0-.185.008-.378.024-.585l.914-.192a.665.665 0 0 0 .52-.533c.071-.395.176-.784.312-1.162a.666.666 0 0 0-.183-.721l-.698-.626c.173-.347.37-.682.588-1.003l.88.289a.666.666 0 0 0 .718-.2c.26-.307.545-.593.852-.854a.666.666 0 0 0 .2-.72zM18.682 4.02a8.64 8.64 0 0 1 2.47.363c-.164.107-.334.211-.484.325a.667.667 0 0 0-.232.74l.306.933a8.389 8.389 0 0 0-.367.367l-.933-.305a.672.672 0 0 0-.74.23c-.49.647-.9 1.35-1.22 2.096a.667.667 0 0 0 .17.758l.74.666a6.45 6.45 0 0 0-.133.5l-.965.2a.666.666 0 0 0-.524.572 9.143 9.143 0 0 0 0 2.433.666.666 0 0 0 .524.572l.965.2c.04.167.085.333.134.5l-.741.666a.666.666 0 0 0-.169.758c.322.746.733 1.45 1.224 2.097a.666.666 0 0 0 .741.232l.933-.306c.119.126.24.248.367.367l-.306.933a.665.665 0 0 0 .232.74c.15.114.32.218.483.326A8.66 8.66 0 0 1 10.37 10.255a8.662 8.662 0 0 1 8.312-6.235z" fill="#F00"/><path d="M4.023 36.668a.667.667 0 0 0 .518-.246l7.737-9.523 1.348.98a.666.666 0 0 0 .912-.123l2.08-2.598a12.515 12.515 0 0 0 13.324-6.712h.2l.574.667a.667.667 0 0 0 .638.217 6.535 6.535 0 0 0 1.405-.471.667.667 0 0 0 .383-.544l.082-.893c.074-.052.146-.106.216-.16l.84.192a.662.662 0 0 0 .647-.206c.332-.372.623-.78.866-1.216a.667.667 0 0 0-.004-.66l-.446-.768c.032-.092.06-.186.087-.281l.8-.353a.666.666 0 0 0 .394-.538 6.627 6.627 0 0 0 0-1.5.667.667 0 0 0-.394-.539l-.8-.352a6.792 6.792 0 0 0-.087-.282l.446-.768a.667.667 0 0 0 .005-.659 6.795 6.795 0 0 0-.87-1.217.666.666 0 0 0-.647-.206l-.84.192a5.637 5.637 0 0 0-.216-.16l-.082-.893a.665.665 0 0 0-.383-.543 6.53 6.53 0 0 0-1.405-.472.667.667 0 0 0-.64.217l-.576.666h-.2A12.646 12.646 0 1 0 7.948 19.364l-1.783 2.229a.666.666 0 0 0 .129.955L7.741 23.6.175 32.916a.665.665 0 0 0 .1.94l3.332 2.666a.662.662 0 0 0 .416.146zM31.28 11.47c-.016-.163-.044-.322-.067-.483-.03-.227-.06-.454-.103-.679-.044-.224-.097-.435-.15-.652-.038-.15-.073-.301-.116-.45a12.009 12.009 0 0 0-.256-.781c-.02-.055-.033-.11-.054-.166a.666.666 0 0 0 .4-.222l.522-.606c.133.04.267.084.4.134l.075.815a.665.665 0 0 0 .313.506c.208.128.406.274.59.436a.666.666 0 0 0 .589.15l.762-.175c.091.12.179.24.26.365l-.406.7a.667.667 0 0 0-.039.589c.094.231.168.47.223.714a.667.667 0 0 0 .38.462l.734.323c.003.076.005.153.005.23 0 .076 0 .153-.005.23l-.733.322a.666.666 0 0 0-.381.462 4.49 4.49 0 0 1-.223.715.667.667 0 0 0 .04.589l.405.7a5.701 5.701 0 0 1-.26.364l-.762-.174a.66.66 0 0 0-.59.149 4.376 4.376 0 0 1-.59.437.666.666 0 0 0-.312.505l-.075.816a4.457 4.457 0 0 1-.4.133l-.52-.605a.666.666 0 0 0-.4-.223c.02-.055.033-.11.053-.166.093-.257.18-.516.256-.781.043-.149.078-.3.115-.45.054-.216.108-.432.151-.652.043-.22.073-.452.103-.678.022-.162.05-.32.067-.484.039-.4.061-.805.061-1.211 0-.407-.024-.807-.062-1.208zM7.355 12.682A11.318 11.318 0 0 1 29.327 8.85l.056.154c.114.325.206.654.288.985.02.08.045.16.063.241.066.312.12.627.162.944.012.094.033.186.043.282a10.88 10.88 0 0 1 0 2.452c-.01.095-.03.187-.043.281a11 11 0 0 1-.162.944c-.018.081-.043.16-.063.241-.082.333-.174.66-.288.985l-.056.154c-.128.353-.273.701-.437 1.044a11.298 11.298 0 0 1-12.434 6.23c-.236-.048-.466-.113-.696-.174-.133-.036-.272-.067-.404-.105-.132-.038-.258-.093-.388-.138-.23-.08-.46-.156-.683-.25-.026-.011-.05-.025-.077-.036a11.34 11.34 0 0 1-6.853-10.402zm.29 9.199l1.092-1.366c.05.063.104.12.154.18.026.033.053.063.08.095.233.28.478.548.733.805l.061.062a12.542 12.542 0 0 0 2.887 2.151 13.229 13.229 0 0 0 1.229.58c.27.11.545.21.824.301.107.036.213.074.32.106.046.014.089.032.134.044l-1.266 1.585-1.341-.974-.076-.056-4.831-3.513zm1.176 2.505l2.378 1.728-7.276 8.955-2.291-1.833 7.189-8.85z" fill="#F00"/></svg>