<svg width="39" height="42" viewBox="0 0 39 42" fill="none" xmlns="http://www.w3.org/2000/svg"><path d="M36.11 31.3c.198-.317.313-.691.313-1.092v-.346a2.067 2.067 0 0 0-2.065-2.064h-6.42c-.139 0-.275.014-.407.04l1.153-5.81c.17-.851.188-1.689.057-2.489-.218-1.33-.92-2.914-3.027-2.914-.301 0-.558.217-.608.513l-.405 2.38c-.16.94-.378 1.835-.65 2.661-.755 2.288-1.707 3.46-3.396 4.183-.812.347-1.47.644-1.734.763h-2.542v-.492a.616.616 0 0 0-.616-.616H11.59v-.665a.616.616 0 0 0-.616-.617H.616a.616.616 0 0 0-.616.617v3.656a.616.616 0 1 0 1.232 0v-3.04h9.127V40.473H1.233v-9.41a.616.616 0 1 0-1.233 0V41.09c0 .34.276.616.616.616h10.36c.34 0 .615-.276.615-.616v-.665h4.172c.34 0 .616-.276.616-.616v-.29h2.458l1.324 1.073a6.285 6.285 0 0 0 3.942 1.395h3.767c.08.008.16.013.241.013h4.402a2.24 2.24 0 0 0 1.987-3.265 2.24 2.24 0 0 0 1.923-2.215c0-.456-.138-.88-.373-1.234a2.066 2.066 0 0 0 1.122-1.836v-.345c0-.775-.43-1.452-1.063-1.805zm-8.171-2.27h6.42c.458 0 .831.373.831.832v.346a.833.833 0 0 1-.832.832h-6.42a.833.833 0 0 1-.832-.832v-.331c.04-.15.076-.29.106-.419a.832.832 0 0 1 .727-.428zm-2.065 10.733c0 .356.084.693.233.992h-2.004a5.05 5.05 0 0 1-3.166-1.121l-1.494-1.21a.616.616 0 0 0-.388-.137h-2.676V36.52a.616.616 0 1 0-1.232 0V39.192H11.59V27.25h3.556V34.466a.616.616 0 1 0 1.232 0v-6.108h2.676c.089 0 .177-.02.257-.056.008-.004.79-.363 1.827-.807 2.03-.868 3.213-2.296 4.082-4.93a19.6 19.6 0 0 0 .696-2.84l.308-1.814c.723.169 1.121.742 1.3 1.828.107.654.09 1.343-.05 2.05l-1.314 6.62a8.522 8.522 0 0 1-.123.645c-.082.193-.135.4-.155.618-.488 1.742-1.744 4.729-4.62 4.729a.616.616 0 1 0 0 1.232c1.906 0 3.496-.984 4.637-2.856a2.074 2.074 0 0 0-.026.328v.346c0 .59.249 1.121.646 1.498a2.23 2.23 0 0 0 .052 3.193 2.23 2.23 0 0 0-.698 1.62zm6.64 1.005H28.11a1.006 1.006 0 0 1 0-2.01h4.402a1.006 1.006 0 0 1 0 2.01zm1.671-3.243h-6.074a1.006 1.006 0 0 1 0-2.01h6.074a1.006 1.006 0 0 1 0 2.01zm1.755-4.075a.833.833 0 0 1-.832.833h-7.169a.833.833 0 0 1-.833-.833v-.345c0-.46.373-.832.832-.832h7.17c.458 0 .832.373.832.832v.345zM12.363 8.892a1.146 1.146 0 0 0-.931-.784L8.63 7.7 7.377 5.16a1.146 1.146 0 0 0-1.034-.642c-.442 0-.838.246-1.034.643L4.057 7.7l-2.803.407a1.145 1.145 0 0 0-.93.784c-.137.42-.025.873.292 1.182l2.027 1.976-.478 2.791c-.075.436.1.868.458 1.128a1.149 1.149 0 0 0 1.214.087l2.506-1.317 2.506 1.317c.392.206.857.172 1.214-.088.358-.26.534-.691.459-1.127l-.479-2.79 2.028-1.977c.316-.309.428-.762.292-1.182zm-3.21 2.305a1.152 1.152 0 0 0-.332 1.02l.459 2.673-2.4-1.262a1.152 1.152 0 0 0-1.073 0l-2.4 1.262.458-2.673a1.153 1.153 0 0 0-.332-1.02L1.591 9.304l2.684-.39c.376-.054.7-.29.868-.63l1.2-2.432 1.2 2.432c.168.34.492.576.868.63l2.683.39-1.941 1.893zM25.326 4.373a1.146 1.146 0 0 0-.93-.784l-2.802-.407L20.34.642A1.145 1.145 0 0 0 19.307 0c-.442 0-.838.246-1.034.642l-1.253 2.54-2.802.407a1.145 1.145 0 0 0-.93.784c-.137.42-.025.873.291 1.182l2.028 1.976-.478 2.791c-.075.436.1.868.458 1.128.357.26.822.293 1.214.087l2.506-1.317 2.506 1.317a1.149 1.149 0 0 0 1.214-.088c.358-.26.533-.691.459-1.127l-.479-2.79 2.028-1.977c.316-.309.428-.762.291-1.182zm-3.21 2.305a1.153 1.153 0 0 0-.33 1.02l.458 2.673-2.4-1.262a1.153 1.153 0 0 0-1.073 0l-2.4 1.262.458-2.673a1.153 1.153 0 0 0-.332-1.02l-1.941-1.893 2.683-.39c.376-.054.7-.29.868-.63l1.2-2.432 1.2 2.432c.168.34.493.576.868.63l2.683.39-1.941 1.893zM38.266 8.892a1.146 1.146 0 0 0-.93-.784L34.532 7.7 33.28 5.16a1.145 1.145 0 0 0-1.034-.642c-.442 0-.837.246-1.033.643L29.96 7.7l-2.802.407a1.146 1.146 0 0 0-.93.784c-.137.42-.026.873.29 1.182l2.029 1.976-.48 2.791c-.074.436.102.868.46 1.128.357.26.822.293 1.213.087l2.506-1.317 2.507 1.317a1.152 1.152 0 0 0 1.672-1.215l-.479-2.79 2.028-1.977c.317-.309.428-.762.292-1.182zm-3.21 2.305a1.153 1.153 0 0 0-.331 1.02l.458 2.673-2.4-1.262a1.151 1.151 0 0 0-1.073 0l-2.4 1.262.458-2.673a1.152 1.152 0 0 0-.331-1.02l-1.942-1.893 2.683-.39c.376-.054.7-.29.868-.63l1.2-2.432 1.2 2.432c.169.34.493.576.868.63l2.684.39-1.942 1.893z" fill="#F00"/></svg>