<svg width="42" height="46" viewBox="0 0 42 46" fill="none" xmlns="http://www.w3.org/2000/svg"><path d="M12.703 24.03v.7h1.11l-.479-1.001-.631.301zm-.051-.098l.609-.345h-.001l-.608.345zm-.637-1.119l-.359-.601-.588.351.339.596.608-.346zm9.046-11.954l-.7-.006.7.006zM11.35 1l-.005.7.005-.7zm-9.859 9.708l.7.006-.7-.006zm8.754 12.116l.604.355.37-.63-.645-.342-.329.617zm-.636 1.084l.603.355-.603-.355zm-.065.122l-.632-.3-.476 1h1.108v-.7zm3.79-.301a2.243 2.243 0 0 0-.075-.142l-1.217.69a.93.93 0 0 1 .028.055l1.263-.603zm-.075-.143l-.636-1.119-1.217.692.636 1.12 1.217-.693zm-.886-.172c1.209-.721 3.518-2.235 5.54-4.356 2.013-2.111 3.821-4.91 3.846-8.194l-1.4-.01c-.02 2.767-1.553 5.239-3.46 7.238-1.897 1.991-4.086 3.43-5.244 4.12l.718 1.202zm9.386-12.55C21.806 5.074 17.148.344 11.357.3l-.01 1.4a9.083 9.083 0 0 1 9.014 9.153l1.4.011zM11.357.3C5.568.255.837 4.911.793 10.703l1.4.01A9.082 9.082 0 0 1 11.345 1.7l.01-1.4zM.793 10.703c-.028 3.625 1.666 6.494 3.632 8.596 1.964 2.098 4.24 3.476 5.492 4.143l.659-1.235c-1.184-.63-3.311-1.923-5.128-3.865-1.814-1.938-3.28-4.478-3.256-7.628l-1.4-.011zm8.85 11.767l-.637 1.083 1.207.71.637-1.084-1.207-.71zm-.636 1.083a2.266 2.266 0 0 0-.094.177l1.264.601a.834.834 0 0 1 .036-.068l-1.206-.71zm.538 1.177h3.158v-1.4H9.545v1.4z" fill="#F00"/><path fill-rule="evenodd" clip-rule="evenodd" d="M10.334 26.057l.03.012v5.683a3.748 3.748 0 0 0 3.744 3.744 3.748 3.748 0 0 0 3.744-3.744V29.12c0-1.173.954-2.125 2.125-2.125h3.159l-.339.376c-.65.719-.865 1.68-.662 2.56-.81.376-2.02 1.162-2.02 2.537v.787c0 .623.248 1.19.646 1.598a2.437 2.437 0 0 0-.646 1.644c0 .637.251 1.212.65 1.649-.4.43-.65 1-.65 1.634a2.407 2.407 0 0 0 2.403 2.404h3.136v2.12a.81.81 0 0 0 1.62 0v-2.12h1.39c.57 0 1.09-.21 1.502-.543.007 0 .012.002.018.003a.063.063 0 0 0 .018.003h3.61c.852 0 1.621-.341 2.19-.892l4.06.91a.81.81 0 0 0 .353-1.582l-3.563-.799a3.13 3.13 0 0 0 .113-.793v-1.634a.81.81 0 0 0-1.62 0v1.634c0 .845-.69 1.535-1.535 1.535h-2.768l.011-.086c.008-.054.015-.107.015-.163 0-.632-.25-1.204-.65-1.633.4-.435.65-1.012.65-1.648 0-.635-.248-1.209-.646-1.646.364-.374.593-.881.63-1.443.481.155.996.256 1.563.256a5.562 5.562 0 0 0 3.466-1.216.81.81 0 0 0-1.016-1.262c-.7.562-1.546.858-2.45.858-.64 0-1.53-.149-2.143-.852-.617-.71-.837-1.852-.633-3.302a.809.809 0 0 0-1.406-.651l-2.575 2.876c-.232.261-.55.408-.897.42-.416-.015-.672-.122-.917-.366A1.244 1.244 0 0 1 24 28.45l3.215-3.576a1.29 1.29 0 0 1 1.225-.342l12.009 3.596a.81.81 0 0 0 1.009-.545.804.804 0 0 0-.54-1.004l-12.035-3.6c-.992-.27-2.074.021-2.839.784l-1.45 1.611H19.98a3.748 3.748 0 0 0-3.745 3.745v2.632a2.127 2.127 0 0 1-2.125 2.125 2.128 2.128 0 0 1-2.124-2.125v-5.695h-1.651zM22.57 37.33h3.086v-1.667H22.57a.834.834 0 1 0 0 1.667zm4.705 0h1.344a.832.832 0 1 0 0-1.665h-1.344v1.665zm1.605-3.436c.316 0 .572-.286.572-.64v-.485c0-.353-.258-.64-.572-.64l-1.605-.057v1.822h1.605zm-7.142 5.888c0 .432.351.784.784.784v.001h3.135v-1.57h-3.135a.787.787 0 0 0-.784.785zm5.537.784h1.393a.786.786 0 0 0-.002-1.572h-1.39v1.572zm.449-10.1l.63.022-.012-.043c-.044-.172-.09-.344-.12-.536l-.498.557zm-2.068 1.59a2.865 2.865 0 0 1-.643.099c-.84.03-1.526-.274-2.077-.81-.521.229-1.2.653-1.2 1.12v.788c0 .353.258.64.572.64h3.348v-1.837z" fill="#F00"/></svg>