<svg width="21" height="19" viewBox="0 0 21 19" fill="none" xmlns="http://www.w3.org/2000/svg"><path d="M20.009 7.73c-.108-.621-.63-.993-1.386-1.001-.233-.004-.465.02-.691-.005-.447-.047-.564.102-.56.456.02 1.736.014 3.471.008 5.202-.005.908-.892 1.84-1.957 2.077-3.307.726-6.61 1.464-9.921 2.183a5.22 5.22 0 0 1-1.143.12c-.165 0-.394-.127-.465-.249-.046-.08.1-.278.214-.379.15-.122.342-.22.539-.287.607-.217 1.223-.414 1.837-.617 2.456-.817 4.916-1.624 7.368-2.446 1.107-.373 1.704-1.111 1.722-2.042.056-3.016.028-6.032.015-9.052 0-.478-.248-.876-.817-1.083-.655-.235-1.23-.048-1.8.223C9.498 2.49 6.023 4.144 2.544 5.8 1.52 6.286.95 6.992.954 7.998c.012 2.852.003 5.7.007 8.549 0 .142.015.288.06.423.342.97 1.23 1.525 2.457 1.525 2.445.007 4.9.003 7.347.003 2.439 0 4.87.004 7.309-.003.529 0 1.017-.11 1.413-.437.515-.413.488-.939.488-1.463.005-2.778.005-5.553.002-8.336a2.74 2.74 0 0 0-.028-.53zm-10.17-.892c.246-.64.784-1.04 1.604-1.143.543-.07 1.015.266 1.093.756.117.754-.825 1.63-1.756 1.627-.777 0-1.21-.544-.94-1.24z" fill="#F00"/></svg>