<svg width="37" height="38" viewBox="0 0 37 38" fill="none" xmlns="http://www.w3.org/2000/svg"><path d="M34.704 19.492a1.113 1.113 0 0 1 0-.984l1.417-2.9a3.299 3.299 0 0 0-1.423-4.38l-2.85-1.513a1.114 1.114 0 0 1-.58-.796l-.557-3.179a3.299 3.299 0 0 0-3.726-2.707l-3.195.452a1.114 1.114 0 0 1-.936-.304L20.534.937a3.299 3.299 0 0 0-4.606 0l-2.32 2.244c-.25.242-.59.353-.935.304l-3.196-.452a3.298 3.298 0 0 0-3.726 2.708l-.558 3.178c-.06.343-.27.633-.578.797l-2.85 1.512a3.299 3.299 0 0 0-1.424 4.38l1.417 2.9c.153.313.153.672 0 .984l-1.417 2.9a3.299 3.299 0 0 0 1.423 4.38l2.85 1.513c.308.163.52.453.58.796l.557 3.179a3.297 3.297 0 0 0 3.726 2.707l3.196-.452c.344-.049.685.062.936.304l2.32 2.244a3.302 3.302 0 0 0 4.605 0l2.32-2.244c.25-.242.59-.352.936-.304l3.195.452a3.298 3.298 0 0 0 3.726-2.707l.558-3.179c.06-.343.27-.633.578-.796l2.851-1.513a3.299 3.299 0 0 0 1.423-4.38l-1.417-2.9zm-1.033 5.344l-2.85 1.513a3.291 3.291 0 0 0-1.71 2.353l-.558 3.179a1.116 1.116 0 0 1-1.261.916l-3.195-.452a3.29 3.29 0 0 0-2.767.899l-2.32 2.244a1.116 1.116 0 0 1-1.558 0l-2.32-2.244a3.288 3.288 0 0 0-2.766-.9l-3.196.453a1.116 1.116 0 0 1-1.26-.916l-.558-3.179a3.291 3.291 0 0 0-1.71-2.354l-2.85-1.512a1.116 1.116 0 0 1-.482-1.482l1.417-2.9a3.291 3.291 0 0 0 0-2.909L2.31 14.646a1.116 1.116 0 0 1 .481-1.482l2.85-1.512a3.292 3.292 0 0 0 1.71-2.354l.558-3.179a1.116 1.116 0 0 1 1.261-.916l3.195.452a3.291 3.291 0 0 0 2.767-.899l2.32-2.244a1.116 1.116 0 0 1 1.558 0l2.32 2.244a3.29 3.29 0 0 0 2.767.9l3.195-.453a1.116 1.116 0 0 1 1.26.916l.558 3.179a3.291 3.291 0 0 0 1.71 2.354l2.85 1.512c.538.285.75.936.482 1.482l-1.417 2.9a3.292 3.292 0 0 0 0 2.909l1.417 2.899a1.116 1.116 0 0 1-.481 1.482z" fill="#F00"/><path d="M26.238 10.993a1.096 1.096 0 0 0-1.55 0L10.224 25.457a1.096 1.096 0 0 0 1.55 1.55l14.464-14.464a1.096 1.096 0 0 0 0-1.55zM13.848 9.138a4.023 4.023 0 0 0-4.018 4.018 4.023 4.023 0 0 0 4.018 4.018 4.023 4.023 0 0 0 4.018-4.018 4.023 4.023 0 0 0-4.018-4.018zm0 5.844a1.828 1.828 0 0 1-1.826-1.826c0-1.008.82-1.827 1.826-1.827 1.007 0 1.827.82 1.827 1.826 0 1.008-.82 1.827-1.827 1.827zM22.615 20.826a4.023 4.023 0 0 0-4.018 4.018 4.023 4.023 0 0 0 4.018 4.019 4.023 4.023 0 0 0 4.018-4.018 4.023 4.023 0 0 0-4.018-4.019zm0 5.845a1.829 1.829 0 0 1-1.827-1.826c0-1.008.82-1.827 1.827-1.827 1.007 0 1.826.82 1.826 1.826 0 1.008-.82 1.827-1.826 1.827z" fill="#F00"/></svg>