<svg width="41" height="44" viewBox="0 0 41 44" fill="none" xmlns="http://www.w3.org/2000/svg"><path d="M39.248 11.615H24.65c.409-.185.83-.383 1.253-.593 3.804-1.89 5.916-3.812 6.278-5.713.173-.908.03-2.278-1.63-3.65C29.182.528 27.784.188 26.395.65c-1.912.635-3.666 2.813-5.214 6.473-.36.852-.666 1.681-.916 2.416a35.496 35.496 0 0 0-.915-2.416c-1.548-3.66-3.302-5.838-5.214-6.473-1.39-.461-2.788-.121-4.158 1.01-1.66 1.372-1.802 2.742-1.63 3.65.363 1.901 2.475 3.823 6.279 5.713.424.21.844.408 1.253.593H1.283a.833.833 0 0 0-.832.833v7.628c0 .46.372.832.832.832h2.913V41.95c0 .46.373.833.833.833h30.473c.46 0 .833-.373.833-.833V20.908h2.913c.46 0 .832-.373.832-.833v-7.627a.833.833 0 0 0-.832-.833zM2.116 19.243V13.28h13.503v5.963H2.116zm13.503 21.874H5.862V20.908h9.757v20.209zm-.268-31.595c-3.209-1.596-5.115-3.203-5.366-4.525-.049-.253-.195-1.022 1.054-2.054.667-.55 1.296-.823 1.907-.823.223 0 .445.036.664.11 2.477.821 4.475 5.797 5.422 8.89a42.048 42.048 0 0 1-3.68-1.598zm7.896 31.595h-5.963V13.28h5.963v27.837zm-1.75-29.996c.947-3.093 2.943-8.068 5.423-8.891.22-.073.441-.11.665-.11.611 0 1.24.273 1.907.823 1.249 1.032 1.102 1.801 1.054 2.054-.251 1.322-2.157 2.929-5.366 4.525a42.047 42.047 0 0 1-3.682 1.599zM34.67 41.116h-9.757V20.909h9.757v20.209zm3.746-21.873H24.912V13.28h13.503v5.963z" fill="#F00" stroke="#F00" stroke-width=".8"/></svg>