<svg width="39" height="42" viewBox="0 0 39 42" fill="none" xmlns="http://www.w3.org/2000/svg"><path d="M38.145 20.865h-8.13a.813.813 0 0 0-.812.813v1.85l-2.835-1.62a2.445 2.445 0 0 1-1.23-2.117V11.11a.813.813 0 0 0-.813-.813H22.7a4.07 4.07 0 0 0-4.065 4.064v6.504H8.067c-.887 0-1.746.369-2.358 1.013a3.23 3.23 0 0 0-.89 2.411c.048.901.481 1.694 1.137 2.252a3.233 3.233 0 0 0-1.14 2.453c0 .975.44 1.842 1.123 2.438a3.231 3.231 0 0 0-1.123 2.439c0 .975.44 1.842 1.123 2.439a3.231 3.231 0 0 0-1.123 2.438A3.255 3.255 0 0 0 8.067 42h16.258c.142 0 .28-.037.404-.107l4.474-2.557v1.851c0 .449.363.813.813.813h8.129c.45 0 .813-.364.813-.813v-19.51a.813.813 0 0 0-.813-.812zm-14.036 19.51H8.067a1.627 1.627 0 0 1 0-3.252h4.878v-1.626H8.067c-.896 0-1.625-.73-1.625-1.626 0-.897.729-1.626 1.625-1.626h4.878V30.62H8.067c-.896 0-1.625-.729-1.625-1.625 0-.897.729-1.626 1.625-1.626v-.013c.048.001.091.013.139.013h4.739v-1.626h-4.74c-.927 0-1.716-.69-1.76-1.537a1.614 1.614 0 0 1 .444-1.208c.31-.327.728-.507 1.178-.507h11.381c.45 0 .813-.364.813-.813v-7.316a2.442 2.442 0 0 1 2.439-2.438h.813v7.868c0 1.455.785 2.807 2.048 3.529l3.642 2.08v12.064l-5.094 2.91zm13.223 0h-6.503V22.49h6.503v17.884z" fill="#F00"/><path d="M34.892 24.116h-1.625v1.626h1.625v-1.626zM34.892 37.123h-1.625v1.625h1.625v-1.625zM13.788 15.185l-1.455-5.09 3.53-2.118a.811.811 0 0 0-.162-1.469L11.143 4.99 8.856.413c-.277-.55-1.178-.55-1.454 0L5.114 4.99.556 6.51a.812.812 0 1 0-.162 1.468l3.53 2.117-1.454 5.09a.812.812 0 1 0 1.233.9l4.425-2.95 4.427 2.95a.814.814 0 0 0 1.233-.9zM8.579 11.48a.813.813 0 0 0-.902 0L4.64 13.505 5.66 9.941a.814.814 0 0 0-.364-.92L2.746 7.492l3.201-1.066a.815.815 0 0 0 .47-.408l1.711-3.424L9.84 6.017a.815.815 0 0 0 .47.407l3.202 1.066-2.55 1.53a.813.813 0 0 0-.363.92l1.018 3.564L8.58 11.48z" fill="#F00"/></svg>