<svg width="40" height="36" viewBox="0 0 40 36" fill="none" xmlns="http://www.w3.org/2000/svg"><path d="M34.93 3.007h-6.056V1.153C28.874.535 28.34 0 27.721 0s-1.154.535-1.154 1.153v1.895H12.563V1.153C12.563.535 12.027 0 11.41 0c-.618 0-1.154.535-1.154 1.153v1.895H4.201A4.193 4.193 0 0 0 0 7.249V31.8A4.193 4.193 0 0 0 4.201 36h30.687a4.193 4.193 0 0 0 4.201-4.201V7.249a4.167 4.167 0 0 0-4.16-4.242zM4.2 5.314h6.055v1.894c0 .618.536 1.154 1.154 1.154.617 0 1.153-.536 1.153-1.154V5.314h14.004v1.894c0 .618.536 1.154 1.154 1.154.618 0 1.153-.536 1.153-1.154V5.314h6.055c1.071 0 1.936.864 1.936 1.935v4.325H2.307V7.25c0-1.07.865-1.935 1.894-1.935zm30.728 28.38H4.201a1.934 1.934 0 0 1-1.936-1.937V13.881h34.518v17.918c.04 1.03-.824 1.894-1.854 1.894z" fill="#F00"/><path d="M21.048 18.947H18.04c-.618 0-1.153.536-1.153 1.154 0 .618.535 1.153 1.153 1.153h3.007c.618 0 1.153-.535 1.153-1.153s-.494-1.154-1.153-1.154zM11.41 18.947H8.444c-.618 0-1.153.536-1.153 1.154 0 .618.535 1.153 1.153 1.153h3.007c.618 0 1.153-.535 1.153-1.153-.04-.618-.535-1.154-1.194-1.154zM30.687 18.947H27.68c-.618 0-1.154.536-1.154 1.154 0 .618.536 1.153 1.154 1.153h3.007c.617 0 1.153-.535 1.153-1.153s-.494-1.154-1.153-1.154zM21.048 26.32H18.04c-.618 0-1.153.536-1.153 1.154 0 .617.535 1.153 1.153 1.153h3.007c.618 0 1.153-.535 1.153-1.153s-.494-1.154-1.153-1.154zM11.41 26.32H8.444c-.618 0-1.153.536-1.153 1.154 0 .617.535 1.153 1.153 1.153h3.007c.618 0 1.153-.535 1.153-1.153s-.535-1.154-1.194-1.154zM30.687 26.32H27.68c-.618 0-1.154.536-1.154 1.154 0 .617.536 1.153 1.154 1.153h3.007c.617 0 1.153-.535 1.153-1.153s-.494-1.154-1.153-1.154z" fill="#F00"/></svg>