<svg width="24" height="25" viewBox="0 0 24 25" fill="none" xmlns="http://www.w3.org/2000/svg"><path d="M11.066 17.48a.47.47 0 0 0-.663 0 .472.472 0 0 0 0 .663.472.472 0 0 0 .663 0 .472.472 0 0 0 0-.663z" fill="#F00"/><path d="M21 13.313a.469.469 0 0 0-.468.469v2.061H12.47v-1.157a3.503 3.503 0 0 0-3.066-3.47c.341-.421.546-.957.546-1.54V6.38a.469.469 0 0 0-.469-.469H7.028c-1.09 0-1.977.886-1.977 1.976v1.79c0 .583.205 1.119.546 1.54a3.503 3.503 0 0 0-3.066 3.47v1.157H.938V4.581c0-.2.164-.363.365-.363h9.744a.469.469 0 1 0 0-.938H1.303C.585 3.28 0 3.864 0 4.581V18.48c0 .717.585 1.301 1.303 1.301h7.134v2.166a2.35 2.35 0 0 0-2.109 2.334c0 .26.21.469.47.469h7.874c.26 0 .47-.21.47-.469a2.35 2.35 0 0 0-2.11-2.334V19.78h7.134c.719 0 1.304-.584 1.304-1.301v-4.698a.469.469 0 0 0-.47-.469zM5.99 7.886a1.04 1.04 0 0 1 1.039-1.038h1.984v.748a.675.675 0 0 1-.675.674H5.99v-.384zm0 1.322h2.348c.241 0 .47-.053.675-.149v.618c0 .833-.678 1.51-1.512 1.51a1.513 1.513 0 0 1-1.511-1.51v-.47zm2.058 2.918l-.547.546-.547-.546h1.094zm-4.578 2.56c0-1.284.951-2.351 2.186-2.533l1.514 1.514a.467.467 0 0 0 .663 0l1.513-1.514a2.565 2.565 0 0 1 2.187 2.533v1.157H3.469v-1.157zm10.655 9.127H7.346c.194-.548.716-.941 1.33-.941h4.118c.613 0 1.136.393 1.33.94zm-4.75-1.879v-2.153h2.721v2.153h-2.72zm11.158-3.454c0 .2-.164.363-.366.363H1.303a.365.365 0 0 1-.365-.363v-1.7h19.594v1.7zM21.332 11.684a.472.472 0 0 0-.663 0 .471.471 0 0 0 .331.8.47.47 0 0 0 .332-.8zM21 2.953h-3.515a.469.469 0 1 0 0 .938h3.516a.469.469 0 1 0 0-.938zM15.895 3.09a.472.472 0 0 0-.663 0 .472.472 0 0 0 0 .663.472.472 0 0 0 .663 0 .472.472 0 0 0 0-.662zM21 5.016h-5.437a.469.469 0 0 0 0 .937h5.438a.469.469 0 1 0 0-.937z" fill="#F00"/><path d="M21 7.078h-5.437a.469.469 0 0 0 0 .938h5.438a.469.469 0 1 0 0-.938z" fill="#F00"/><path d="M21.657.75h-6.75a2.346 2.346 0 0 0-2.344 2.344V8.11c0 1.202.91 2.196 2.078 2.329v1.218a.469.469 0 0 0 .8.331l1.535-1.534h4.681a2.346 2.346 0 0 0 2.344-2.344V3.094A2.346 2.346 0 0 0 21.657.75zm1.406 7.36c0 .775-.63 1.406-1.406 1.406h-4.875a.47.47 0 0 0-.332.137l-.871.872v-.54a.469.469 0 0 0-.469-.469h-.203c-.776 0-1.406-.63-1.406-1.406V3.094c0-.776.63-1.406 1.406-1.406h6.75c.776 0 1.406.63 1.406 1.406V8.11z" fill="#F00"/></svg>