<svg width="27" height="25" viewBox="0 0 27 25" fill="none" xmlns="http://www.w3.org/2000/svg"><path d="M21 .5H6.36a2.658 2.658 0 0 0-2.656 2.656v12.117l-1.68-1.679a.634.634 0 0 0-.898 0c-.25.25-.25.65 0 .9l2.77 2.77a.633.633 0 0 0 .452.187.633.633 0 0 0 .453-.187l2.77-2.77c.25-.25.25-.65 0-.9a.634.634 0 0 0-.899 0l-1.684 1.684V3.156c0-.764.618-1.382 1.383-1.382h14.632c.765 0 1.383.618 1.383 1.382v1.768a.639.639 0 1 0 1.279 0V3.156C23.65 1.696 22.46.5 20.999.5zM22.563 7.741l-2.77 2.77c-.25.25-.25.65 0 .9a.633.633 0 0 0 .452.187.633.633 0 0 0 .452-.187l1.684-1.684v12.117c0 .764-.618 1.383-1.382 1.383H6.36a1.382 1.382 0 0 1-1.383-1.383v-1.768a.639.639 0 1 0-1.279 0v1.768A2.658 2.658 0 0 0 6.355 24.5h14.633a2.658 2.658 0 0 0 2.657-2.656V9.727l1.684 1.684c.25.25.65.25.9 0 .249-.25.249-.65 0-.9l-2.771-2.77c-.23-.239-.655-.239-.895 0z" fill="#F00"/><path d="M13.075 17.553a.38.38 0 0 1 0 .76h-3.038a.38.38 0 0 1 0-.76h3.038zM14.594 13.756a.38.38 0 0 1 0-.76c.733 0 1.399-.297 1.88-.778l.021-.02a2.652 2.652 0 0 0 .758-1.86c0-.733-.298-1.399-.78-1.879l-.019-.021a2.65 2.65 0 0 0-1.86-.759h-4.557a.38.38 0 0 1 0-.76h4.557c.93 0 1.775.374 2.392.98l.025.022a3.41 3.41 0 0 1 1.002 2.417c0 .93-.374 1.775-.98 2.392l-.021.024a3.41 3.41 0 0 1-2.418 1.002z" fill="#F00"/><path d="M10.036 13.756a.38.38 0 0 1 0-.76h4.556a.38.38 0 0 1 0 .76h-4.556z" fill="#F00"/><path d="M11.935 17.933a.38.38 0 0 1-.76 0V7.3a.38.38 0 0 1 .76 0v10.633z" fill="#F00"/><path d="M10.036 15.275a.38.38 0 0 1 0-.76h5.318a.38.38 0 0 1 0 .76h-5.318z" fill="#F00"/></svg>