<svg width="41" height="40" viewBox="0 0 41 40" fill="none" xmlns="http://www.w3.org/2000/svg">
<path d="M14.3295 34.9163C12.5813 34.1519 10.785 33.5027 8.95204 32.9728C7.86186 32.6543 6.69002 32.3522 5.44468 32.0786C4.82133 31.9425 4.18164 31.8146 3.52563 31.6948L3.03158 31.605C2.93811 31.5879 2.8465 31.562 2.75801 31.5274C2.51507 31.4226 2.31833 31.2333 2.20422 30.9945C2.09012 30.7558 2.06637 30.4838 2.13738 30.229L2.44361 29.2531L2.75801 28.2119C3.16632 26.8155 3.52563 25.3538 3.83186 23.9083C3.9843 23.1761 4.1204 22.4398 4.24017 21.6994L4.33 21.1441L4.37491 20.8665L4.40349 20.7154C4.44996 20.5509 4.537 20.4006 4.65664 20.2785C4.77862 20.1515 4.93195 20.059 5.10114 20.0102C5.27034 19.9615 5.44941 19.9582 5.62025 20.0008L7.70262 20.6011C7.84188 20.6406 7.98769 20.6517 8.13134 20.6337C8.38002 20.5977 8.61806 20.5087 8.82938 20.3727C9.0407 20.2368 9.22037 20.057 9.35627 19.8457C9.42619 19.7382 9.48372 19.6231 9.52775 19.5027C9.55019 19.444 9.56927 19.384 9.58492 19.3231L9.60533 19.2373V19.1679C9.60533 19.1434 9.62983 19.0495 9.638 18.9923C9.65186 18.8661 9.65186 18.7388 9.638 18.6126C9.62629 18.4949 9.60304 18.3787 9.56859 18.2655C9.56859 18.2125 9.53592 18.1594 9.5155 18.1063L9.47467 18.0124C9.45018 17.9552 9.42976 17.9021 9.40934 17.845C9.3714 17.7349 9.34405 17.6214 9.32768 17.5061C9.2659 17.0447 9.37956 16.577 9.64616 16.1954C9.90889 15.8148 10.3005 15.5422 10.7486 15.4278C11.1894 15.3177 11.6545 15.3609 12.0674 15.5503C12.4932 15.7262 12.8442 16.0454 13.0596 16.4527C13.2497 16.8269 13.3211 17.2502 13.2642 17.6661C13.2073 18.082 13.0248 18.4706 12.7411 18.78L12.635 18.8902L12.5288 18.9923C12.476 19.0446 12.4269 19.1006 12.3818 19.1597C12.2876 19.2836 12.2132 19.4213 12.1613 19.568C12.1613 19.6048 12.1368 19.6456 12.1246 19.6864V19.7681V19.8702C12.0595 20.1652 12.0865 20.473 12.2022 20.7521C12.3158 21.0239 12.5095 21.2546 12.7575 21.4136L12.7983 21.4381C12.8752 21.4868 12.9614 21.5188 13.0514 21.532C14.4888 21.7433 15.9362 21.8796 17.3877 21.9403C17.5714 21.9403 17.7388 21.6912 17.7592 21.3768C17.7797 21.0624 17.6735 20.8542 17.5143 20.8256C16.5017 20.6296 15.2808 20.3887 13.864 20.0743L13.9783 19.9723C14.5364 19.4468 14.9198 18.7627 15.0767 18.0124C15.254 17.1768 15.1499 16.3059 14.7806 15.5356C14.4114 14.7653 13.7976 14.1388 13.0351 13.7537C12.3891 13.4156 11.6628 13.2607 10.9351 13.306C10.2073 13.3513 9.50585 13.595 8.90676 14.0107C8.30766 14.4263 7.83382 14.9981 7.53661 15.6639C7.23941 16.3298 7.1302 17.0643 7.22082 17.7878C7.22082 17.9226 7.26165 18.0532 7.29023 18.1961L6.19596 17.8695C5.78684 17.7595 5.36007 17.7312 4.94002 17.7862C4.51997 17.8412 4.11486 17.9784 3.74784 18.19C3.38082 18.4016 3.05906 18.6834 2.80095 19.0193C2.54285 19.3552 2.35344 19.7387 2.24354 20.1478C2.21496 20.2744 2.17822 20.4459 2.16597 20.5561L2.12513 20.8256L2.03531 21.3319C1.91826 22.0478 1.78216 22.7596 1.627 23.4674C1.36568 24.9005 1.03904 26.2765 0.675642 27.6321L0.402076 28.6447L0.0999284 29.69C-0.0301312 30.1911 -0.0332823 30.7166 0.0907601 31.2192C0.214802 31.7218 0.462128 32.1855 0.810384 32.5686C1.14664 32.9358 1.56697 33.216 2.03531 33.3852C2.15372 33.4219 2.26804 33.4668 2.39053 33.4913C2.51303 33.5158 2.65185 33.5444 2.72943 33.5526L3.21123 33.6179C3.85092 33.7077 4.47563 33.803 5.08537 33.9037C6.31029 34.1079 7.46172 34.3324 8.53965 34.5693C10.6955 35.0388 12.5411 35.5329 13.9661 35.9248C14.1335 35.9698 14.3499 35.7656 14.4438 35.4716C14.5377 35.1776 14.4764 34.9817 14.3295 34.9163Z" fill="#FF0000"/>
<path d="M23.5496 13.0596C23.1754 13.2497 22.752 13.3211 22.3361 13.2642C21.9202 13.2073 21.5316 13.0248 21.2222 12.7411L21.112 12.635L21.0099 12.5288C20.9576 12.476 20.9017 12.4269 20.8425 12.3818C20.7187 12.2876 20.5809 12.2132 20.4342 12.1613L20.3158 12.1246H20.2341H20.1321C19.8371 12.0595 19.5292 12.0865 19.2501 12.2022C18.9783 12.3158 18.7476 12.5095 18.5887 12.7575L18.5642 12.7983C18.5155 12.8752 18.4835 12.9614 18.4702 13.0514C18.2589 14.4888 18.1227 15.9362 18.0619 17.3877C18.0619 17.5714 18.311 17.7388 18.6254 17.7592C18.9398 17.7797 19.148 17.6735 19.1766 17.5143C19.3726 16.5017 19.6135 15.2808 19.9279 13.864L20.03 13.9783C20.5554 14.5364 21.2395 14.9198 21.9899 15.0767C22.8255 15.254 23.6963 15.1499 24.4666 14.7806C25.2369 14.4114 25.8634 13.7976 26.2485 13.0351C26.5867 12.3891 26.7415 11.6628 26.6962 10.9351C26.6509 10.2073 26.4073 9.50585 25.9916 8.90676C25.5759 8.30766 25.0042 7.83382 24.3383 7.53661C23.6725 7.23941 22.9379 7.1302 22.2144 7.22082C22.0797 7.22082 21.949 7.26165 21.8061 7.29023L22.1328 6.19596C22.2427 5.78684 22.271 5.36007 22.216 4.94002C22.161 4.51997 22.0238 4.11486 21.8122 3.74784C21.6007 3.38082 21.3189 3.05906 20.983 2.80095C20.647 2.54285 20.2635 2.35344 19.8544 2.24354C19.7278 2.21496 19.5563 2.17822 19.4461 2.16597L19.1848 2.12105L18.6703 2.03531C17.9544 1.91826 17.2426 1.78216 16.5349 1.627C15.1017 1.36568 13.7257 1.03904 12.3701 0.675642L11.3575 0.402076L10.3123 0.0999284C9.81119 -0.0301312 9.28562 -0.0332823 8.78303 0.0907601C8.28045 0.214802 7.81669 0.462128 7.43368 0.810384C7.06642 1.14664 6.78621 1.56697 6.61707 2.03531C6.58032 2.15372 6.53541 2.26804 6.51091 2.39053C6.48641 2.51303 6.45783 2.65185 6.44966 2.72943L6.36392 3.21123C6.27409 3.85092 6.17882 4.47563 6.0781 5.08537C5.87395 6.31029 5.64938 7.46172 5.41256 8.53965C4.94301 10.6955 4.44895 12.5411 4.05698 13.9661C4.01206 14.1335 4.21622 14.3499 4.5102 14.4438C4.80418 14.5377 5.02058 14.4805 5.08591 14.3335C5.8503 12.5854 6.49954 10.7891 7.02946 8.95612C7.34794 7.86594 7.65009 6.6941 7.92365 5.44876C8.05975 4.82541 8.18769 4.18573 8.30746 3.52971L8.39729 3.03566C8.4143 2.94219 8.44028 2.85058 8.47487 2.76209C8.57969 2.51915 8.76898 2.32241 9.0077 2.20831C9.24642 2.0942 9.5184 2.07046 9.77329 2.14147L10.7491 2.44361L11.7903 2.75801C13.1867 3.16632 14.6485 3.52563 16.0939 3.83186C16.8261 3.9843 17.5624 4.1204 18.3028 4.24017L18.8581 4.33L19.1358 4.37491L19.2869 4.40349C19.4514 4.44996 19.6016 4.537 19.7237 4.65664C19.8507 4.77862 19.9433 4.93195 19.992 5.10114C20.0408 5.27034 20.044 5.44941 20.0014 5.62025L19.4012 7.70262C19.3616 7.84188 19.3505 7.98769 19.3685 8.13134C19.4046 8.38002 19.4936 8.61806 19.6295 8.82938C19.7655 9.0407 19.9452 9.22037 20.1566 9.35627C20.264 9.42619 20.3791 9.48372 20.4995 9.52775C20.5583 9.55019 20.6183 9.56927 20.6792 9.58492L20.7649 9.60533H20.8343L21.0099 9.638C21.1361 9.65186 21.2634 9.65186 21.3896 9.638C21.5073 9.62629 21.6236 9.60304 21.7367 9.56859L21.8959 9.5155L21.9899 9.47467L22.1573 9.40934C22.2674 9.3714 22.3808 9.34405 22.4962 9.32768C22.9575 9.2659 23.4253 9.37956 23.8068 9.64616C24.1874 9.90889 24.4601 10.3005 24.5744 10.7486C24.6845 11.1894 24.6413 11.6545 24.452 12.0674C24.276 12.4932 23.9568 12.8442 23.5496 13.0596Z" fill="#FF0000"/>
<path d="M39.1916 7.43313C38.8553 7.06587 38.435 6.78566 37.9667 6.61652C37.8483 6.57977 37.7339 6.53486 37.6114 6.51036C37.489 6.48586 37.3501 6.45728 37.2726 6.44911L36.7907 6.38378C36.1511 6.29396 35.5264 6.19868 34.9166 6.09797C33.6917 5.89381 32.5403 5.66924 31.4623 5.43243C29.3065 4.96287 27.4609 4.46882 26.0359 4.07684C25.8685 4.03193 25.6521 4.23608 25.5582 4.53007C25.4643 4.82405 25.5215 5.04045 25.6684 5.10578C27.4166 5.87017 29.2129 6.51941 31.0459 7.04933C32.136 7.36781 33.3079 7.66995 34.5532 7.94352C35.1766 8.07962 35.8163 8.20756 36.4723 8.32733L36.9663 8.41716C37.0598 8.43416 37.1514 8.46014 37.2399 8.49473C37.4828 8.59955 37.6796 8.78885 37.7937 9.02757C37.9078 9.26629 37.9315 9.53827 37.8605 9.79315L37.5584 10.7486L37.244 11.7898C36.8357 13.1862 36.4764 14.6479 36.1701 16.0933C36.0177 16.8256 35.8816 17.5619 35.7618 18.3023L35.672 18.8576L35.6271 19.1352L35.5985 19.2863C35.552 19.4508 35.465 19.6011 35.3453 19.7232C35.2225 19.8459 35.0698 19.9346 34.9022 19.9804C34.7347 20.0262 34.5581 20.0276 34.3899 19.9845L32.3075 19.3843C32.1683 19.3447 32.0225 19.3336 31.8788 19.3516C31.6301 19.3877 31.3921 19.4767 31.1808 19.6126C30.9695 19.7486 30.7898 19.9283 30.6539 20.1397C30.584 20.2472 30.5264 20.3622 30.4824 20.4827C30.46 20.5414 30.4409 20.6014 30.4252 20.6623L30.4048 20.7481V20.8175C30.4048 20.842 30.3803 20.9359 30.3722 20.993C30.3583 21.1192 30.3583 21.2466 30.3722 21.3728C30.3838 21.4904 30.4071 21.6067 30.4416 21.7198C30.4416 21.7729 30.4742 21.826 30.4946 21.8791L30.5355 21.973C30.56 22.0301 30.5804 22.0832 30.6008 22.1404C30.6387 22.2505 30.6661 22.364 30.6825 22.4793C30.7443 22.9406 30.6306 23.4084 30.364 23.7899C30.1013 24.1705 29.7097 24.4432 29.2616 24.5576C28.8208 24.6677 28.3557 24.6245 27.9427 24.4351C27.5165 24.2648 27.1628 23.9516 26.9424 23.549C26.7522 23.1748 26.6809 22.7515 26.7378 22.3356C26.7947 21.9197 26.9772 21.5311 27.2608 21.2217L27.367 21.1114L27.4732 21.0094C27.526 20.9571 27.5751 20.9011 27.6202 20.842C27.7145 20.7182 27.7889 20.5804 27.8406 20.4337C27.8406 20.3969 27.8651 20.3561 27.8774 20.3152V20.2336V20.1315C27.9425 19.8365 27.9154 19.5286 27.7998 19.2496C27.6862 18.9778 27.4925 18.747 27.2445 18.5881L27.2037 18.5636C27.1268 18.5149 27.0406 18.4829 26.9505 18.4697C25.5132 18.2584 24.0658 18.1221 22.6143 18.0614C22.4306 18.0614 22.2632 18.3105 22.2427 18.6249C22.2223 18.9392 22.3285 19.1475 22.4877 19.1761C23.5003 19.3721 24.7212 19.613 26.138 19.9274L26.0237 20.0294C25.4656 20.5549 25.0822 21.239 24.9253 21.9893C24.748 22.8249 24.8521 23.6958 25.2214 24.4661C25.5906 25.2364 26.2043 25.8629 26.9669 26.248C27.6129 26.5861 28.3391 26.741 29.0669 26.6957C29.7947 26.6504 30.4961 26.4067 31.0952 25.991C31.6943 25.5754 32.1682 25.0036 32.4654 24.3378C32.7626 23.6719 32.8718 22.9374 32.7812 22.2139C32.7812 22.0791 32.7403 21.9485 32.7118 21.8056L33.806 22.1322C34.2151 22.2422 34.6419 22.2705 35.062 22.2155C35.482 22.1605 35.8871 22.0233 36.2541 21.8117C36.6212 21.6001 36.9429 21.3183 37.201 20.9824C37.4591 20.6465 37.6485 20.263 37.7584 19.8539C37.787 19.7273 37.8238 19.5558 37.836 19.4455L37.8768 19.1761L37.9667 18.6698C38.0837 17.9566 38.213 17.2461 38.3546 16.5384C38.6363 15.1257 38.9629 13.7292 39.3263 12.3737L39.5999 11.357L39.9021 10.3117C40.0321 9.81064 40.0353 9.28507 39.9112 8.78248C39.7872 8.2799 39.5399 7.81614 39.1916 7.43313Z" fill="#FF0000"/>
<path d="M35.4918 25.562C35.2305 25.4803 34.9814 25.5253 34.9161 25.6723C34.1517 27.4204 33.5024 29.2167 32.9725 31.0497C32.654 32.1398 32.3519 33.3117 32.0783 34.557C31.9422 35.1804 31.8143 35.8201 31.6945 36.4761L31.6047 36.9701C31.5877 37.0636 31.5617 37.1552 31.5271 37.2437C31.4223 37.4866 31.233 37.6834 30.9943 37.7975C30.7556 37.9116 30.4836 37.9353 30.2287 37.8643L29.2528 37.5581L28.2117 37.2437C26.8152 36.8354 25.3535 36.4761 23.9081 36.1698C23.1759 36.0174 22.4395 35.8813 21.6991 35.7615L21.1439 35.6717L20.8662 35.6268L20.7151 35.5982C20.5505 35.5519 20.4003 35.4648 20.2782 35.3451C20.1512 35.2231 20.0587 35.0698 20.0099 34.9006C19.9612 34.7314 19.958 34.5523 20.0006 34.3815L20.6008 32.2991C20.6404 32.1598 20.6515 32.014 20.6335 31.8704C20.5974 31.6217 20.5084 31.3837 20.3725 31.1723C20.2365 30.961 20.0568 30.7813 19.8454 30.6454C19.7379 30.5755 19.6229 30.518 19.5025 30.474C19.4437 30.4515 19.3837 30.4324 19.3228 30.4168L19.2371 30.3964H19.1676L18.9921 30.3637C18.8659 30.3499 18.7385 30.3499 18.6123 30.3637C18.4947 30.3754 18.3784 30.3987 18.2653 30.4331L18.106 30.4862L18.0121 30.527L17.8447 30.5924C17.7346 30.6303 17.6211 30.6577 17.5058 30.674C17.0445 30.7358 16.5767 30.6222 16.1952 30.3555C15.8146 30.0928 15.5419 29.7012 15.4275 29.2531C15.3175 28.8123 15.3607 28.3472 15.55 27.9343C15.726 27.5085 16.0451 27.1575 16.4524 26.9421C16.8266 26.752 17.25 26.6806 17.6659 26.7375C18.0817 26.7944 18.4703 26.9769 18.7797 27.2606L18.89 27.3667L18.9921 27.4729C19.0444 27.5257 19.1003 27.5748 19.1595 27.6199C19.2833 27.7141 19.4211 27.7885 19.5678 27.8404L19.6862 27.8771H19.7679H19.8699C20.1649 27.9422 20.4728 27.9152 20.7519 27.7995C21.0237 27.6859 21.2544 27.4922 21.4133 27.2442L21.4378 27.2034C21.4865 27.1265 21.5185 27.0403 21.5317 26.9503C21.743 25.5129 21.8793 24.0655 21.9401 22.614C21.9401 22.4303 21.691 22.2629 21.3766 22.2425C21.0622 22.2221 20.854 22.3282 20.8254 22.4875C20.6294 23.5001 20.3885 24.7209 20.0741 26.1377L20.0006 26.0765C19.4751 25.5184 18.791 25.135 18.0407 24.9781C17.2051 24.8008 16.3343 24.9049 15.564 25.2742C14.7937 25.6434 14.1671 26.2572 13.7821 27.0197C13.4597 27.6616 13.3165 28.3787 13.3675 29.0952C13.4185 29.8118 13.6619 30.5013 14.072 31.0911C14.4821 31.681 15.0436 32.1492 15.6976 32.4466C16.3515 32.744 17.0735 32.8595 17.7876 32.7809C17.9223 32.7809 18.053 32.7401 18.1959 32.7115L17.8692 33.8057C17.7593 34.2149 17.731 34.6416 17.786 35.0617C17.841 35.4817 17.9782 35.8868 18.1897 36.2539C18.4013 36.6209 18.6831 36.9426 19.019 37.2008C19.355 37.4589 19.7384 37.6483 20.1476 37.7582C20.2742 37.7867 20.4456 37.8235 20.5559 37.8357L20.8254 37.8766L21.3603 37.9623C22.0734 38.0794 22.7839 38.2087 23.4916 38.3502C24.9044 38.6319 26.3008 38.9586 27.6564 39.322L28.669 39.6037L29.7142 39.9059C30.212 40.0311 30.733 40.0314 31.2309 39.9067C31.7288 39.7821 32.1883 39.5363 32.5683 39.1913C32.9356 38.8551 33.2158 38.4347 33.3849 37.9664C33.4217 37.848 33.4666 37.7337 33.4911 37.6112C33.5156 37.4887 33.5442 37.3499 33.5523 37.2723L33.6177 36.7905C33.7075 36.1508 33.8028 35.5261 33.9035 34.9163C34.1076 33.6914 34.3322 32.54 34.569 31.4621C35.0386 29.3062 35.5326 27.4606 35.9246 26.0356C35.9899 25.8723 35.7858 25.6518 35.4918 25.562Z" fill="#FF0000"/>
</svg>
