<svg width="50" height="41" viewBox="0 0 50 41" fill="none" xmlns="http://www.w3.org/2000/svg">
<path d="M40.7109 35.7458L41.0729 36.0907L40.711 35.7457L40.7112 35.7455L40.712 35.7447L40.7151 35.7414L40.7274 35.7285L40.7754 35.6781L40.9579 35.4866L41.6106 34.8011C42.1516 34.2327 42.8749 33.4723 43.6041 32.7043C44.3334 31.9362 45.0684 31.1609 45.6328 30.5624C45.9151 30.263 46.1542 30.0085 46.3284 29.8215C46.4156 29.7278 46.4857 29.652 46.5366 29.5963C46.5946 29.5327 46.6126 29.5114 46.6099 29.5149L46.6101 29.5146C46.8665 29.1864 47.0117 28.6687 46.9957 28.0814C46.9799 27.499 46.8063 26.9147 46.5064 26.4831L46.4966 26.4689L46.4878 26.4542C45.6896 25.1179 43.9135 23.2053 41.0875 21.4772L41.0863 21.4765C41.0852 21.4758 41.0838 21.475 41.0823 21.4741L41.0528 21.4568L40.9359 21.3884L40.4952 21.1311C40.1164 20.9103 39.5772 20.5961 38.931 20.2196C37.6385 19.4667 35.9184 18.4651 34.1993 17.4642L29.4739 14.7132L27.9174 13.8071L27.4814 13.5533L27.3665 13.4865L27.3395 13.4708L27.3373 13.4699L27.3207 13.4629C27.307 13.4571 27.2892 13.4492 27.2689 13.4389L27.4957 12.9932M40.7109 35.7458L25.9485 13.7661C26.2223 13.3741 26.7211 13.2303 27.1568 13.3893C27.1576 13.3896 27.1585 13.39 27.1596 13.3904C27.1687 13.3942 27.1822 13.3999 27.1977 13.4066C27.213 13.4133 27.229 13.4204 27.2431 13.4268C27.2582 13.4337 27.2671 13.4379 27.2702 13.4395L27.4957 12.9932M40.7109 35.7458L39.9057 36.5907H41.0729H48.085C48.7786 36.5907 49.3401 37.1522 49.3401 37.8432C49.3401 38.5389 48.778 39.0993 48.085 39.0993H37.0857C36.8843 39.0993 36.6014 38.9953 36.3369 38.7827C36.0747 38.572 35.8976 38.3084 35.8444 38.0713L35.8443 38.0706C35.7316 37.5721 35.7804 37.236 35.8593 37.0041C35.9288 36.7996 36.023 36.6611 36.1238 36.5129C36.1447 36.4822 36.1659 36.451 36.1872 36.4188L36.1873 36.4189L36.1929 36.4099L40.7112 29.2465L40.9217 28.9129L40.6461 28.6305C40.2408 28.2154 39.7658 27.7757 39.273 27.4461L39.2715 27.4451C38.8101 27.1389 38.3224 26.8977 37.8756 26.7117L37.2798 26.4637L37.1885 27.1025L36.3993 32.6213L36.3972 32.6359L36.396 32.6505C36.3965 32.6435 36.3963 32.6448 36.3944 32.6531C36.3811 32.7144 36.2845 33.1568 35.8406 33.4439M40.7109 35.7458L38.158 27.3869M27.4957 12.9932C27.4473 12.9688 27.3358 12.9214 27.3292 12.9199L27.5787 13.0314M27.4957 12.9932C27.508 12.9995 27.5191 13.004 27.5302 13.0085C27.5453 13.0147 27.5605 13.0208 27.5787 13.0314M38.158 27.3869C38.4384 27.5233 38.7227 27.681 38.995 27.8617C39.4456 28.1631 39.8927 28.5745 40.2883 28.9798L35.77 36.1432C35.7538 36.1676 35.7362 36.1935 35.7174 36.2209C35.4929 36.549 35.1132 37.1039 35.3566 38.1808C35.5256 38.9339 36.3902 39.5993 37.0857 39.5993H48.085C49.054 39.5993 49.8401 38.8152 49.8401 37.8432C49.8401 36.8753 49.054 36.0907 48.085 36.0907H41.7634L38.158 27.3869ZM38.158 27.3869L38.1784 27.2441L37.6834 27.1733L37.4913 27.6349C37.5307 27.6513 37.5704 27.6682 37.6102 27.6854L36.8942 32.6921C36.8937 32.6982 36.8056 33.4217 36.102 33.8703M36.102 33.8703L35.8495 33.4387L35.8406 33.4439M36.102 33.8703L27.6265 38.829M36.102 33.8703L27.6265 38.829M35.8406 33.4439L27.3745 38.3971M35.8406 33.4439L27.3745 38.3971M27.3745 38.3971C27.3744 38.3972 27.3742 38.3973 27.374 38.3974L27.3745 38.3971ZM27.6265 38.829C27.3674 38.9802 27.0838 39.053 26.8032 39.053C26.2426 39.053 25.6968 38.7633 25.3923 38.2445M27.6265 38.829L26.8032 38.553C26.4136 38.553 26.0354 38.3518 25.8239 37.992M25.3923 38.2445L25.8239 37.992M25.3923 38.2445L25.8236 37.9914C25.8237 37.9916 25.8238 37.9918 25.8239 37.992M25.3923 38.2445C24.9728 37.5271 25.1668 36.6284 25.8063 36.1335C25.8511 36.0933 25.9045 36.052 25.9768 36.0098L33.6448 31.5241V24.0084C33.6448 23.2349 33.9605 22.5566 34.3038 22.0756L34.3365 22.0983L34.6224 21.6881L34.2604 21.3432L25.8239 37.992M47.0041 29.8225C46.8465 30.0245 42.9298 34.1408 41.5492 35.5907L47.0041 29.8225ZM47.0041 29.8225C47.7027 28.9284 47.6451 27.2456 46.917 26.1978L47.0041 29.8225ZM27.5787 13.0314C27.3271 13.4635 27.3272 13.4636 27.3273 13.4636L27.3276 13.4638L27.5787 13.0314ZM41.0923 21.4801C41.0923 21.4802 41.0907 21.4792 41.088 21.4775C41.091 21.4793 41.0923 21.4801 41.0923 21.4801Z" stroke="#FF0000"/>
<path d="M10.6956 3.44497C10.6956 5.07143 9.37709 6.38994 7.75063 6.38994C6.12417 6.38994 4.80566 5.07143 4.80566 3.44497C4.80566 1.81851 6.12417 0.5 7.75063 0.5C9.3771 0.5 10.6956 1.81851 10.6956 3.44497Z" stroke="#FF0000"/>
<path d="M32.6439 24.2762C32.6439 25.8371 31.3785 27.1025 29.8175 27.1025C28.2566 27.1025 26.9912 25.8371 26.9912 24.2762C26.9912 22.7153 28.2566 21.4499 29.8175 21.4499C31.3785 21.4499 32.6439 22.7153 32.6439 24.2762Z" stroke="#FF0000"/>
<path d="M7.96315 38.1309C7.96315 39.1625 6.69035 40 5.65625 40C4.62571 40 3.56608 39.1625 3.56608 38.1309L3.55802 12.4138V23.8205C3.55802 25.8098 0.761719 25.8098 0.761719 23.8205V12.1414C0.761719 9.73766 2.57832 7.81406 4.93878 7.81406H10.9163C13.2767 7.81406 15.0929 9.73766 15.0914 12.1409V23.82C15.0914 25.8093 12.2951 25.8093 12.2951 23.82V12.4138L12.287 38.1309C12.287 39.1625 11.2191 40 10.1875 40C9.15442 40 7.96315 39.1625 7.96315 38.1309ZM7.96315 38.1309L7.95704 23.988H7.96875L7.96315 38.1309Z" stroke="#FF0000" stroke-width="1.2"/>
<path d="M30.0419 8.087C30.0388 8.03914 30.0373 7.99026 30.0373 7.94087C30.0373 5.96635 28.4314 4.35995 26.4569 4.35995H22.182C20.2075 4.35995 18.6006 5.96584 18.6006 7.94087V39.7781H23.9116V7.94138C23.9116 7.2423 24.1952 6.60993 24.653 6.14914C24.7008 6.20107 24.7477 6.25301 24.7971 6.30545C25.2054 6.73518 25.5577 7.10738 25.5577 7.94138C25.5577 9.91539 27.1646 11.5223 29.1392 11.5223H32.5403V11.5203C32.5551 11.5208 32.5699 11.5223 32.5836 11.5223C34.2572 11.5223 35.7297 10.337 36.0836 8.70308L36.22 8.07478L30.0419 8.087ZM22.876 7.94138V38.743H19.6357V37.0032H21.8831V35.937H19.6357V34.188H20.8638V33.1213H19.6357V31.3729H21.8831V30.3072H19.6357V28.5593H20.8638V27.4931H19.6357V25.7436H21.8831V24.6774H19.6357V22.9295H20.8638V21.8633H19.6357V20.1138H21.8831V19.0477H19.6357V17.2987H20.8638V16.233H19.6357V14.4831H21.8831V13.4169H19.6357V11.6684H20.8638V10.6022H19.6357V8.85328H21.8831V7.7871H19.651C19.7319 6.45565 20.8297 5.39406 22.1815 5.39406H23.9401C23.2833 6.04527 22.876 6.94699 22.876 7.94138ZM29.1386 10.4867C27.7349 10.4867 26.5929 9.34462 26.5929 7.94138C26.5929 6.69343 25.989 6.05749 25.5476 5.59263C25.5425 5.58703 25.5379 5.58194 25.5333 5.57634C25.82 5.4633 26.1305 5.39609 26.4564 5.39609C27.8596 5.39609 29.0012 6.53763 29.0012 7.94138C29.0012 8.93628 29.41 9.83749 30.0674 10.4867H29.1386ZM32.5831 10.4867C31.605 10.4867 30.7547 9.93321 30.328 9.12263L34.8422 9.11244C34.4125 9.93626 33.5449 10.4867 32.5831 10.4867Z" fill="#FF0000"/>
</svg>
