<svg width="40" height="40" viewBox="0 0 40 40" fill="none" xmlns="http://www.w3.org/2000/svg">
<path d="M39.5625 31.3062L38.6424 30.9005C38.6064 30.7712 38.5678 30.6479 38.5258 30.5273L39.0388 29.6439C39.0965 29.5437 39.1272 29.4303 39.1282 29.3147C39.1291 29.1992 39.1002 29.0853 39.0442 28.9842C38.7743 28.5039 38.4526 28.0546 38.0847 27.6443C38.0056 27.5551 37.9038 27.489 37.7902 27.4528C37.6765 27.4167 37.5552 27.412 37.4391 27.4391L36.4723 27.661C36.3777 27.5864 36.2791 27.5144 36.1792 27.4445L36.0852 26.4177C36.0745 26.3014 36.0334 26.19 35.9661 26.0945C35.8987 25.9991 35.8074 25.9231 35.7014 25.874C35.2076 25.6434 34.6893 25.4693 34.1563 25.355C34.0397 25.3301 33.9184 25.3372 33.8055 25.3756C33.6925 25.4139 33.5921 25.4821 33.5147 25.5729L32.8544 26.3404C32.7345 26.3351 32.6132 26.3351 32.4933 26.3404L31.833 25.5735C31.7558 25.4825 31.6554 25.4141 31.5424 25.3757C31.4293 25.3373 31.308 25.3304 31.1914 25.3557C30.6584 25.4699 30.1401 25.644 29.6463 25.8747C29.5402 25.9237 29.449 25.9998 29.3816 26.0952C29.3143 26.1906 29.2732 26.3021 29.2625 26.4184L29.1685 27.4451C29.0686 27.5151 28.9686 27.587 28.876 27.661L27.9079 27.4398C27.7919 27.4133 27.6709 27.4183 27.5574 27.4544C27.444 27.4905 27.3423 27.5563 27.263 27.645C26.895 28.0552 26.5734 28.5048 26.3042 28.9856C26.2479 29.0864 26.2187 29.2002 26.2197 29.3158C26.2206 29.4313 26.2516 29.5446 26.3095 29.6445L26.8219 30.5273C26.7799 30.6479 26.7413 30.7719 26.7053 30.9011L25.7851 31.3069C25.678 31.3541 25.5852 31.4287 25.516 31.5233C25.4469 31.6178 25.4039 31.7288 25.3914 31.8453C25.3292 32.3938 25.3292 32.9477 25.3914 33.4963C25.4039 33.6127 25.4469 33.7238 25.516 33.8183C25.5852 33.9128 25.678 33.9874 25.7851 34.0347L26.7053 34.4404C26.7413 34.5697 26.7799 34.6929 26.8219 34.8135L26.3088 35.697C26.2512 35.7972 26.2204 35.9106 26.2195 36.0261C26.2186 36.1417 26.2475 36.2556 26.3035 36.3567C26.5734 36.837 26.8951 37.2863 27.263 37.6966C27.3424 37.7854 27.4442 37.8512 27.5577 37.8873C27.6713 37.9234 27.7924 37.9284 27.9086 37.9018L28.8754 37.6799C28.97 37.7545 29.0686 37.8265 29.1685 37.8964L29.2625 38.9232C29.2732 39.0395 29.3143 39.1509 29.3816 39.2464C29.449 39.3418 29.5402 39.4178 29.6463 39.4669C30.1401 39.6975 30.6584 39.8716 31.1914 39.9859C31.308 40.0103 31.4291 40.0029 31.5419 39.9646C31.6548 39.9263 31.7553 39.8584 31.833 39.768L32.4933 39.0011C32.6132 39.0065 32.7345 39.0065 32.8544 39.0011L33.5147 39.768C33.5773 39.8406 33.6548 39.8989 33.742 39.9388C33.8291 39.9787 33.9239 39.9993 34.0197 39.9992C34.0645 39.9989 34.1091 39.9943 34.153 39.9852C34.6859 39.871 35.2043 39.6969 35.6981 39.4662C35.8041 39.4172 35.8954 39.3411 35.9627 39.2457C36.0301 39.1503 36.0712 39.0388 36.0819 38.9225L36.1758 37.8958C36.2758 37.8258 36.3757 37.7539 36.4683 37.6799L37.4364 37.9011C37.5525 37.9281 37.6736 37.9232 37.7871 37.8871C37.9006 37.851 38.0023 37.7849 38.0814 37.6959C38.4494 37.2857 38.7709 36.8361 39.0402 36.3553C39.0965 36.2544 39.1256 36.1407 39.1247 36.0251C39.1237 35.9096 39.0928 35.7963 39.0348 35.6964L38.5225 34.8135C38.5644 34.6929 38.6031 34.569 38.6391 34.4398L39.5592 34.034C39.6664 33.9868 39.7592 33.9122 39.8283 33.8176C39.8974 33.7231 39.9404 33.6121 39.953 33.4956C40.0152 32.947 40.0152 32.3932 39.953 31.8446C39.9408 31.7285 39.8982 31.6177 39.8297 31.5232C39.7612 31.4287 39.6691 31.3539 39.5625 31.3062ZM38.6617 32.9719L37.8069 33.3491C37.7118 33.3911 37.6278 33.4548 37.5618 33.5351C37.4957 33.6154 37.4494 33.71 37.4264 33.8115C37.3652 34.0863 37.2812 34.3555 37.1752 34.6163C37.1359 34.711 37.1189 34.8134 37.1256 34.9157C37.1323 35.0179 37.1625 35.1173 37.2139 35.206L37.6876 36.0229C37.581 36.1885 37.4655 36.3507 37.3412 36.5092L36.4483 36.3047C36.3453 36.2807 36.2381 36.2818 36.1356 36.3078C36.0331 36.3339 35.9383 36.3843 35.8593 36.4546C35.6514 36.6367 35.4285 36.8009 35.1931 36.9457C35.1052 37 35.0311 37.074 34.9768 37.1619C34.9224 37.2498 34.8893 37.3491 34.8799 37.452L34.7933 38.4028C34.6141 38.4734 34.4348 38.5361 34.2556 38.5854L33.6453 37.8764C33.5827 37.8038 33.5052 37.7456 33.418 37.7057C33.3308 37.6658 33.2361 37.6452 33.1402 37.6452C33.1207 37.6443 33.1011 37.6443 33.0816 37.6452C32.8094 37.6686 32.5356 37.6686 32.2634 37.6452C32.158 37.6354 32.0518 37.6511 31.9537 37.6908C31.8556 37.7306 31.7685 37.7933 31.6997 37.8738L31.0894 38.5827C30.9102 38.5321 30.731 38.4708 30.5517 38.4001L30.4658 37.4494C30.4563 37.3464 30.4231 37.247 30.3686 37.1591C30.3141 37.0713 30.24 36.9973 30.152 36.943C29.9164 36.7985 29.6935 36.6342 29.4857 36.4519C29.4063 36.3817 29.3114 36.3314 29.2087 36.3052C29.1061 36.279 28.9986 36.2777 28.8953 36.3014L28.0099 36.5112C27.8859 36.354 27.7702 36.1919 27.6627 36.0248L28.1371 35.208C28.1886 35.1192 28.2188 35.0197 28.2256 34.9173C28.2323 34.8149 28.2152 34.7124 28.1758 34.6177C28.0697 34.3573 27.9857 34.0885 27.9246 33.8141C27.9016 33.7127 27.8553 33.6181 27.7892 33.5378C27.7232 33.4575 27.6392 33.3938 27.5441 33.3517L26.6893 32.9746C26.684 32.874 26.6806 32.7747 26.6806 32.6701C26.6806 32.5655 26.684 32.4662 26.6893 32.3656L27.5441 31.9885C27.6392 31.9465 27.7232 31.8827 27.7892 31.8025C27.8553 31.7222 27.9016 31.6275 27.9246 31.5261C27.9858 31.2513 28.0698 30.9821 28.1758 30.7212C28.2151 30.6266 28.2321 30.5242 28.2254 30.4219C28.2187 30.3196 28.1885 30.2203 28.1371 30.1316L27.6634 29.3147C27.77 29.149 27.8855 28.9869 28.0099 28.8283L28.9027 29.0329C29.0057 29.0564 29.1129 29.0551 29.2153 29.029C29.3177 29.0029 29.4124 28.9529 29.4917 28.883C29.6996 28.7009 29.9225 28.5366 30.158 28.3919C30.246 28.3376 30.3201 28.2636 30.3746 28.1758C30.4291 28.0879 30.4623 27.9885 30.4718 27.8855L30.5577 26.9348C30.737 26.8641 30.9162 26.8015 31.0954 26.7522L31.7057 27.4611C31.7745 27.5416 31.8615 27.6045 31.9597 27.6442C32.0578 27.684 32.164 27.6996 32.2694 27.6897C32.5416 27.6663 32.8154 27.6663 33.0876 27.6897C33.193 27.6997 33.2993 27.6842 33.3974 27.6444C33.4955 27.6046 33.5826 27.5417 33.6513 27.4611L34.2616 26.7522C34.4408 26.8028 34.62 26.8641 34.7993 26.9348L34.8859 27.8855C34.8953 27.9884 34.9284 28.0878 34.9828 28.1756C35.0371 28.2635 35.1112 28.3376 35.1991 28.3919C35.4346 28.5364 35.6575 28.7007 35.8653 28.883C35.9449 28.9529 36.0398 29.0029 36.1424 29.0291C36.245 29.0553 36.3524 29.0568 36.4557 29.0335L37.3478 28.829C37.4717 28.9862 37.5875 29.1484 37.6949 29.3154L37.2206 30.1322C37.1691 30.221 37.1388 30.3205 37.1321 30.4229C37.1254 30.5253 37.1425 30.6278 37.1819 30.7226C37.288 30.9829 37.372 31.2517 37.4331 31.5261C37.456 31.6275 37.5024 31.7222 37.5684 31.8025C37.6345 31.8827 37.7184 31.9465 37.8135 31.9885L38.6684 32.3656C38.6737 32.4662 38.677 32.5655 38.677 32.6701C38.677 32.7747 38.6704 32.874 38.6617 32.9746V32.9719Z" fill="#FF0000"/>
<path d="M32.6732 29.3387C32.0143 29.3387 31.3702 29.5341 30.8224 29.9001C30.2745 30.2662 29.8475 30.7865 29.5954 31.3952C29.3432 32.004 29.2773 32.6738 29.4058 33.32C29.5344 33.9663 29.8516 34.5599 30.3175 35.0258C30.7835 35.4917 31.3771 35.809 32.0233 35.9375C32.6695 36.066 33.3394 36.0001 33.9481 35.7479C34.5568 35.4958 35.0771 35.0688 35.4432 34.5209C35.8092 33.9731 36.0046 33.329 36.0046 32.6701C36.0036 31.7869 35.6522 30.9401 35.0277 30.3156C34.4032 29.6911 33.5564 29.3397 32.6732 29.3387ZM32.6732 34.6689C32.2779 34.6689 31.8914 34.5517 31.5627 34.3321C31.234 34.1124 30.9778 33.8003 30.8265 33.435C30.6752 33.0698 30.6356 32.6679 30.7128 32.2801C30.7899 31.8924 30.9803 31.5362 31.2598 31.2567C31.5394 30.9772 31.8955 30.7868 32.2833 30.7097C32.671 30.6325 33.0729 30.6721 33.4381 30.8234C33.8034 30.9747 34.1156 31.2309 34.3352 31.5596C34.5548 31.8883 34.6721 32.2748 34.6721 32.6701C34.6721 33.2002 34.4615 33.7086 34.0866 34.0835C33.7118 34.4584 33.2033 34.6689 32.6732 34.6689Z" fill="#FF0000"/>
<path d="M18.6819 22.6759C20.1624 22.6742 21.6238 22.3412 22.9588 21.7011C22.9641 21.7011 22.9701 21.7011 22.9748 21.6971C22.9961 21.6871 23.0141 21.6744 23.0348 21.6644C23.3409 21.5159 23.6391 21.3515 23.9283 21.1721C23.9549 21.1561 23.9862 21.1427 24.0122 21.1261C24.0195 21.1214 24.0249 21.1141 24.0322 21.1088C24.1901 21.0081 24.344 20.9042 24.4986 20.7949C24.5046 20.7909 24.5119 20.7909 24.5179 20.7869C24.5492 20.7643 24.5765 20.7363 24.6079 20.7137C24.8664 20.5222 25.1149 20.3194 25.3534 20.1053C25.4061 20.0574 25.4594 20.0101 25.5113 19.9614C25.7633 19.7258 26.003 19.4774 26.2296 19.2172C26.2456 19.1985 26.2629 19.1812 26.2789 19.1625C26.4841 18.9218 26.678 18.6717 26.8606 18.4123C26.8724 18.4005 26.8835 18.3881 26.8939 18.375C26.9052 18.359 26.9145 18.3417 26.9259 18.325C26.9838 18.2411 27.0358 18.1538 27.0911 18.0678C27.195 17.9059 27.2956 17.742 27.3903 17.5755C27.4462 17.4768 27.4989 17.3756 27.5515 17.2756C27.6414 17.1031 27.7247 16.9285 27.804 16.7519C27.8453 16.6607 27.888 16.5707 27.9259 16.4781C28.0372 16.2116 28.1392 15.9371 28.2258 15.6599C28.2331 15.6372 28.2378 15.6133 28.2451 15.5933C28.3251 15.3308 28.3923 15.0649 28.4503 14.7937C28.4696 14.7044 28.485 14.6145 28.5023 14.5239C28.5376 14.3347 28.5689 14.1441 28.5929 13.9522C28.5989 13.9049 28.6056 13.8583 28.6109 13.811C28.6189 13.7403 28.6269 13.6697 28.6329 13.5984C28.6609 13.2946 28.6795 12.9894 28.6795 12.6816C28.6795 12.3738 28.6609 12.0686 28.6329 11.7648C28.6269 11.6935 28.6189 11.6229 28.6109 11.5523C28.6056 11.505 28.5989 11.4583 28.5929 11.411C28.5682 11.2191 28.5376 11.0286 28.5023 10.8393C28.485 10.7487 28.4696 10.6588 28.4503 10.5695C28.3923 10.303 28.3251 10.0365 28.2451 9.76995C28.2378 9.7473 28.2331 9.72332 28.2258 9.70333C28.1392 9.42682 28.0372 9.15431 27.9259 8.88513C27.888 8.79252 27.8453 8.70257 27.804 8.61062C27.7247 8.43406 27.6414 8.25949 27.5515 8.08759C27.4989 7.98632 27.4462 7.88771 27.3903 7.78776C27.2956 7.62119 27.195 7.45462 27.0911 7.29538C27.0358 7.20943 26.9838 7.12215 26.9259 7.0382C26.9145 7.02154 26.9052 7.00421 26.8939 6.98822C26.8825 6.97223 26.8732 6.9669 26.8639 6.95491C26.6804 6.69373 26.4854 6.44232 26.2789 6.20068C26.2629 6.18136 26.2449 6.16403 26.2289 6.14538C26.0026 5.88541 25.7631 5.63723 25.5113 5.4018C25.4594 5.35317 25.4067 5.30586 25.3534 5.25789C25.1149 5.04334 24.8664 4.84057 24.6079 4.64957C24.5765 4.62692 24.5492 4.59893 24.5179 4.57628C24.5126 4.57295 24.5052 4.57228 24.4999 4.56895C24.3493 4.46035 24.1954 4.35641 24.0382 4.2558C24.0302 4.25047 24.0242 4.24181 24.0155 4.23648C23.9862 4.21782 23.9489 4.20316 23.9209 4.18451C23.6352 4.00791 23.3408 3.8458 23.0388 3.69879C23.0174 3.68879 22.9995 3.67613 22.9781 3.66614C22.9735 3.66614 22.9675 3.66614 22.9628 3.66214C21.6092 3.01997 20.1285 2.69051 18.6303 2.69816C17.1321 2.70581 15.6548 3.05038 14.3078 3.70634C12.9609 4.3623 11.7787 5.31286 10.8489 6.48763C9.91905 7.66239 9.2654 9.03127 8.93632 10.4929C8.60724 11.9545 8.61116 13.4714 8.9478 14.9314C9.28443 16.3913 9.94515 17.7567 10.881 18.9267C11.8169 20.0966 13.004 21.041 14.3543 21.69C15.7047 22.339 17.1837 22.676 18.6819 22.6759ZM26.0004 8.0736C26.1536 8.31613 26.2962 8.56532 26.4241 8.82117C26.4395 8.85182 26.4541 8.88247 26.4688 8.91312C26.592 9.1663 26.7013 9.42482 26.8019 9.68867C26.8193 9.73531 26.8366 9.78128 26.8532 9.82792C26.9412 10.0778 27.0151 10.333 27.0804 10.5908C27.0951 10.6494 27.1124 10.7074 27.1257 10.7667C27.183 11.0179 27.2257 11.2724 27.259 11.5289C27.2663 11.5809 27.277 11.6315 27.283 11.6835L27.291 11.7621C27.3252 12.0674 27.3428 12.3744 27.3436 12.6816C27.3423 12.9879 27.3245 13.294 27.2903 13.5984C27.287 13.6251 27.2843 13.6524 27.2817 13.6797C27.2757 13.731 27.265 13.7803 27.2583 13.8316C27.2237 14.0875 27.1817 14.342 27.1251 14.5925C27.1111 14.6525 27.0938 14.7104 27.0791 14.7697C27.0125 15.0263 26.9412 15.2794 26.8539 15.528C26.8372 15.5759 26.8193 15.6233 26.8013 15.6706C26.7047 15.9317 26.5967 16.1876 26.4754 16.4374L26.4275 16.5374C26.2982 16.7952 26.1556 17.0458 26.0017 17.2896C24.8939 17.1294 23.8809 16.5754 23.1483 15.7291C22.4156 14.8828 22.0124 13.801 22.0124 12.6816C22.0124 11.5623 22.4156 10.4804 23.1483 9.63413C23.8809 8.78786 24.8939 8.23387 26.0017 8.0736H26.0004ZM22.1466 6.37658L21.8588 5.49975C22.1274 5.32252 22.4052 5.1595 22.691 5.01136C22.8375 5.08799 22.9775 5.16994 23.1154 5.25322C23.1554 5.27654 23.1947 5.30053 23.234 5.32518L23.4872 5.60702C23.6072 5.73197 23.7705 5.80633 23.9436 5.8149L23.9882 5.84888C24.3912 6.16658 24.7652 6.51955 25.1056 6.90361C23.8361 7.24718 22.7152 7.99925 21.9159 9.04361C21.1166 10.088 20.6835 11.3665 20.6835 12.6816C20.6835 13.9967 21.1166 15.2752 21.9159 16.3196C22.7152 17.364 23.8361 18.116 25.1056 18.4596C24.7694 18.8394 24.4004 19.1888 24.0029 19.5037L23.9589 19.5363C23.8694 19.5394 23.7815 19.5604 23.7003 19.5982C23.6192 19.636 23.5464 19.6897 23.4865 19.7562L23.234 20.038C23.1933 20.064 23.152 20.0887 23.1101 20.1133C22.9735 20.1953 22.8355 20.2759 22.691 20.3519C22.4051 20.2037 22.1273 20.0404 21.8588 19.8628L22.1466 18.986C22.1884 18.8602 22.1917 18.7247 22.1561 18.597C22.1205 18.4693 22.0476 18.3551 21.9467 18.2691C21.6392 18.0088 21.3538 17.7235 21.0932 17.4162C21.0072 17.3155 20.8931 17.2427 20.7656 17.2071C20.638 17.1715 20.5027 17.1747 20.377 17.2163L19.4975 17.5055C19.279 17.1845 19.0822 16.8493 18.9085 16.5021L19.6074 15.8758C19.7063 15.7873 19.7765 15.6712 19.8091 15.5425C19.8416 15.4139 19.8349 15.2784 19.79 15.1535C19.6534 14.7763 19.5489 14.3883 19.4775 13.9935C19.4538 13.8631 19.3917 13.7428 19.2993 13.6478C19.2068 13.5529 19.0882 13.4876 18.9584 13.4605L18.0443 13.2679C18.0283 13.0614 18.0203 12.8682 18.0203 12.6836C18.0203 12.499 18.0283 12.3058 18.0443 12.0993L18.9584 11.9067C19.0882 11.8796 19.2068 11.8144 19.2993 11.7194C19.3917 11.6245 19.4538 11.5041 19.4775 11.3737C19.5491 10.9786 19.6537 10.5901 19.79 10.2124C19.8348 10.0876 19.8414 9.95225 19.8088 9.82371C19.7763 9.69516 19.7062 9.57924 19.6074 9.49078L18.9085 8.86514C19.0823 8.51795 19.2791 8.18273 19.4975 7.86172L20.3776 8.15089C20.5035 8.19268 20.6389 8.19599 20.7666 8.16038C20.8943 8.12477 21.0085 8.05187 21.0945 7.951C21.3548 7.64351 21.6401 7.35803 21.9474 7.09749C22.0489 7.01106 22.1222 6.89615 22.1577 6.76763C22.1932 6.6391 22.1894 6.50288 22.1466 6.37658ZM18.6819 4.01993C19.5183 4.02082 20.35 4.14313 21.1512 4.38306C20.9879 4.49033 20.818 4.59427 20.6681 4.70754C20.5569 4.79132 20.4747 4.90784 20.4331 5.04073C20.3915 5.17362 20.3926 5.31621 20.4363 5.44844L20.7421 6.38124C20.6159 6.49984 20.4936 6.62221 20.375 6.74836L19.4422 6.44254C19.31 6.39981 19.1679 6.3991 19.0353 6.4405C18.9027 6.48191 18.7863 6.56339 18.7019 6.67374C18.2118 7.32004 17.8023 8.02373 17.4826 8.7692C17.4281 8.89726 17.415 9.03919 17.4452 9.17506C17.4755 9.31093 17.5475 9.43392 17.6512 9.52676L18.3928 10.193C18.3415 10.3589 18.2968 10.5262 18.2595 10.6934L17.2941 10.8933C17.158 10.922 17.0344 10.9926 16.9405 11.0951C16.8466 11.1976 16.7871 11.327 16.7704 11.465C16.662 12.2724 16.662 13.0908 16.7704 13.8982C16.7871 14.0363 16.8466 14.1656 16.9405 14.2681C17.0344 14.3706 17.158 14.4412 17.2941 14.4699L18.2595 14.6698C18.2995 14.837 18.3441 15.0029 18.3928 15.1702L17.6519 15.8365C17.5482 15.9293 17.4761 16.0523 17.4459 16.1882C17.4157 16.324 17.4287 16.466 17.4833 16.594C17.8047 17.34 18.2157 18.0441 18.7073 18.6908C18.791 18.802 18.9076 18.8842 19.0405 18.9258C19.1733 18.9674 19.3159 18.9663 19.4482 18.9227L20.381 18.6169C20.4996 18.743 20.6219 18.8654 20.7481 18.984L20.4423 19.9168C20.3987 20.0489 20.3976 20.1912 20.4391 20.324C20.4805 20.4567 20.5625 20.5732 20.6735 20.657C20.824 20.771 20.9939 20.8749 21.1572 20.9828C19.9659 21.3377 18.7123 21.432 17.4814 21.2593C16.2505 21.0867 15.0711 20.6512 14.0235 19.9823C12.9758 19.3135 12.0844 18.427 11.4097 17.383C10.7351 16.3391 10.293 15.1622 10.1135 13.9323C9.93406 12.7024 10.0214 11.4482 10.3696 10.255C10.7178 9.06184 11.3188 7.95757 12.1316 7.01724C12.9445 6.0769 13.9502 5.32252 15.0804 4.80534C16.2107 4.28816 17.439 4.02029 18.6819 4.01993Z" fill="#FF0000"/>
<path d="M4.0233 36.6678C4.12245 36.6679 4.22037 36.6459 4.30994 36.6034C4.3995 36.5608 4.47844 36.4989 4.541 36.4219L12.2785 26.8988L13.6258 27.8789C13.7644 27.9797 13.9365 28.0232 14.1064 28.0003C14.2763 27.9775 14.4308 27.8901 14.5379 27.7563L16.6174 25.1578C19.2645 25.6176 21.9894 25.2132 24.389 24.0046C26.7885 22.7959 28.7354 20.8471 29.9417 18.4463C30.0083 18.4463 30.075 18.4463 30.1416 18.4463L30.7159 19.1126C30.7784 19.1852 30.8558 19.2435 30.9428 19.2835C31.0299 19.3235 31.1245 19.3443 31.2203 19.3444C31.2651 19.3442 31.3097 19.3395 31.3536 19.3304C31.8385 19.227 32.3102 19.0688 32.7594 18.8587C32.8653 18.8096 32.9564 18.7335 33.0237 18.6381C33.0909 18.5427 33.1319 18.4313 33.1425 18.315L33.2245 17.4215C33.2978 17.3696 33.3704 17.3163 33.4404 17.2623L34.2805 17.4542C34.3968 17.4814 34.5183 17.4766 34.6321 17.4404C34.7459 17.4041 34.8477 17.3378 34.9268 17.2483C35.2593 16.8758 35.5498 16.4678 35.793 16.0317C35.8496 15.9308 35.8791 15.817 35.8784 15.7013C35.8777 15.5857 35.8469 15.4722 35.789 15.3721L35.3433 14.6038C35.3746 14.5119 35.4026 14.4179 35.4305 14.3227L36.2301 13.9702C36.3372 13.923 36.43 13.8484 36.4992 13.7538C36.5683 13.6593 36.6113 13.5483 36.6239 13.4318C36.6807 12.9333 36.6807 12.4299 36.6239 11.9314C36.6113 11.815 36.5683 11.7039 36.4992 11.6094C36.43 11.5149 36.3372 11.4402 36.2301 11.393L35.4305 11.0406C35.4026 10.9453 35.3746 10.8513 35.3433 10.7594L35.789 9.99116C35.8468 9.89115 35.8777 9.77782 35.8785 9.6623C35.8793 9.54677 35.8501 9.43302 35.7937 9.3322C35.5493 8.89563 35.2575 8.48738 34.9235 8.11491C34.8441 8.02586 34.7422 7.95978 34.6285 7.92357C34.5148 7.88735 34.3935 7.88233 34.2772 7.90902L33.4377 8.10091C33.3671 8.04628 33.2944 7.99298 33.2211 7.94167L33.1392 7.04819C33.1286 6.93194 33.0876 6.82054 33.0203 6.72512C32.9531 6.6297 32.862 6.55362 32.7561 6.5045C32.3071 6.29443 31.8357 6.13617 31.3509 6.03277C31.2345 6.00856 31.1137 6.01593 31.0011 6.05412C30.8885 6.09232 30.7882 6.15994 30.7106 6.24998L30.1349 6.91626C30.0683 6.91626 30.0017 6.91626 29.935 6.91626C29.1609 5.39317 28.0862 4.04274 26.7758 2.94647C25.4653 1.85021 23.9463 1.03086 22.3105 0.537877C20.6746 0.0448932 18.9558 -0.111497 17.2578 0.0781452C15.5599 0.267788 13.9179 0.799531 12.4312 1.64128C10.9444 2.48302 9.64357 3.61731 8.60728 4.97568C7.57098 6.33404 6.82069 7.88831 6.40168 9.54466C5.98267 11.201 5.90364 12.9251 6.16935 14.6128C6.43507 16.3006 7.04003 17.917 7.9477 19.3644L6.1654 21.5925C6.10908 21.6628 6.06762 21.7439 6.04353 21.8307C6.01943 21.9176 6.01321 22.0084 6.02523 22.0977C6.03725 22.187 6.06727 22.273 6.11346 22.3504C6.15966 22.4278 6.22107 22.495 6.29399 22.5479L7.74116 23.6L0.174849 32.916C0.119334 32.9842 0.0778797 33.0627 0.0528761 33.1471C0.0278724 33.2314 0.0198149 33.3198 0.0291682 33.4073C0.0385215 33.4948 0.0651005 33.5795 0.107372 33.6567C0.149643 33.7338 0.20677 33.8018 0.275458 33.8567L3.60687 36.5219C3.72492 36.6167 3.87189 36.6682 4.0233 36.6678ZM31.2796 11.4703C31.2643 11.3071 31.2356 11.1478 31.213 10.9866C31.1823 10.76 31.153 10.5328 31.1097 10.3083C31.0664 10.0838 31.0131 9.87256 30.9591 9.65602C30.9218 9.50544 30.8865 9.35486 30.8438 9.20628C30.7679 8.93976 30.6806 8.68191 30.588 8.42473C30.568 8.37009 30.5547 8.31412 30.534 8.25949C30.6894 8.23482 30.831 8.15599 30.9338 8.03695L31.4562 7.4313C31.5894 7.47061 31.7227 7.51525 31.8559 7.56456L31.9306 8.38009C31.94 8.48288 31.9732 8.58206 32.0276 8.66982C32.0819 8.75759 32.1559 8.83152 32.2437 8.88579C32.4523 9.01426 32.6496 9.16026 32.8334 9.32221C32.9128 9.3921 33.0076 9.44209 33.1102 9.46805C33.2127 9.494 33.32 9.49517 33.423 9.47146L34.1846 9.29689C34.2765 9.41616 34.3638 9.53742 34.4451 9.66201L34.0393 10.3616C33.988 10.4502 33.9577 10.5494 33.9509 10.6515C33.9441 10.7537 33.9609 10.856 34 10.9506C34.094 11.1823 34.1684 11.4214 34.2226 11.6655C34.2457 11.7669 34.2922 11.8614 34.3583 11.9416C34.4245 12.0218 34.5085 12.0854 34.6037 12.1273L35.3366 12.4497C35.3399 12.5264 35.3419 12.603 35.3419 12.6796C35.3419 12.7562 35.3419 12.8329 35.3366 12.9095L34.6037 13.232C34.5085 13.2739 34.4245 13.3374 34.3583 13.4176C34.2922 13.4978 34.2457 13.5923 34.2226 13.6937C34.1684 13.9378 34.094 14.1769 34 14.4086C33.9609 14.5032 33.9441 14.6056 33.9509 14.7077C33.9577 14.8098 33.988 14.909 34.0393 14.9976L34.4451 15.6972C34.3638 15.8218 34.2765 15.9431 34.1846 16.0623L33.423 15.8878C33.32 15.8637 33.2126 15.8647 33.1101 15.8907C33.0075 15.9167 32.9126 15.9668 32.8334 16.037C32.6492 16.199 32.4517 16.3452 32.243 16.4741C32.1554 16.5284 32.0816 16.6022 32.0274 16.6899C31.9732 16.7775 31.94 16.8765 31.9306 16.9791L31.8559 17.7947C31.7227 17.846 31.5894 17.8906 31.4562 17.9279L30.9351 17.3229C30.8324 17.2036 30.6908 17.1246 30.5354 17.0997C30.556 17.0451 30.5693 16.9891 30.5893 16.9345C30.6819 16.6773 30.7692 16.4181 30.8452 16.1529C30.8878 16.0044 30.9231 15.8538 30.9604 15.7039C31.0144 15.4873 31.0684 15.2714 31.111 15.0509C31.1537 14.8304 31.1837 14.5992 31.2143 14.3726C31.2363 14.2114 31.2643 14.0522 31.2809 13.8889C31.3196 13.4891 31.3422 13.084 31.3422 12.6776C31.3422 12.2712 31.3182 11.8714 31.2796 11.4703ZM7.35471 12.6816C7.35273 10.1129 8.22468 7.61984 9.82724 5.61228C11.4298 3.60472 13.6676 2.20206 16.173 1.6348C18.6783 1.06755 21.3021 1.36947 23.6131 2.49093C25.9242 3.61239 27.7849 5.48667 28.8896 7.80575C29.0542 8.14889 29.1988 8.49735 29.3267 8.84981C29.3454 8.90112 29.3654 8.95242 29.3834 9.00439C29.4966 9.32887 29.5892 9.65802 29.6712 9.98916C29.6912 10.0698 29.7158 10.1491 29.7338 10.2304C29.8004 10.5422 29.8531 10.8573 29.8957 11.1738C29.9084 11.2684 29.929 11.3604 29.939 11.4556C30.0314 12.2703 30.0314 13.0929 29.939 13.9076C29.929 14.0028 29.9084 14.0948 29.8957 14.1894C29.8531 14.5059 29.8038 14.821 29.7338 15.1329C29.7158 15.2141 29.6912 15.2934 29.6712 15.3741C29.5892 15.7072 29.4966 16.0343 29.3834 16.3588C29.3654 16.4108 29.3454 16.4621 29.3267 16.5134C29.1988 16.8659 29.0542 17.2143 28.8896 17.5575C27.8086 19.8336 25.9977 21.6829 23.7448 22.8116C21.4919 23.9403 18.9264 24.2834 16.4561 23.7865C16.2203 23.7392 15.9897 23.6739 15.7599 23.6126C15.6266 23.5767 15.488 23.546 15.3561 23.508C15.2242 23.4701 15.0976 23.4154 14.9677 23.3701C14.7385 23.2902 14.5073 23.2142 14.2854 23.1203C14.2587 23.1089 14.2347 23.0949 14.2081 23.0836C12.1752 22.2078 10.4431 20.7563 9.22526 18.9079C8.00745 17.0595 7.35721 14.8951 7.35471 12.6816ZM7.64455 21.881L8.73725 20.5151C8.78655 20.5777 8.84119 20.6344 8.89116 20.6957C8.91715 20.7276 8.94446 20.7583 8.97112 20.7896C9.20431 21.0694 9.44862 21.338 9.70403 21.5951L9.76532 21.6571C10.619 22.5093 11.5911 23.2339 12.6517 23.8085C12.9768 23.9844 13.3099 24.1417 13.6511 24.2909C13.727 24.3242 13.8037 24.3575 13.881 24.3875C14.1515 24.4977 14.4262 24.5983 14.7051 24.6894C14.8117 24.7247 14.9177 24.7626 15.0256 24.7953C15.0709 24.8086 15.1136 24.8266 15.1589 24.8393L13.8929 26.4237L12.5517 25.4496L12.4758 25.3943L7.64455 21.881ZM8.82053 24.3855L11.1992 26.1139L3.92336 35.0687L1.63201 33.2358L8.82053 24.3855Z" fill="#FF0000"/>
</svg>
