<svg width="39" height="42" viewBox="0 0 39 42" fill="none" xmlns="http://www.w3.org/2000/svg">
<path d="M36.1091 31.3001C36.3076 30.983 36.4229 30.6086 36.4229 30.2077V29.8622C36.4229 28.7236 35.4966 27.7975 34.3581 27.7975H27.9386C27.7991 27.7975 27.6629 27.8115 27.5311 27.8381L28.684 22.0286C28.8531 21.1767 28.8723 20.3392 28.741 19.5394C28.5229 18.2097 27.8205 16.6249 25.7135 16.6249C25.413 16.6249 25.1563 16.8416 25.106 17.1378L24.7015 19.5176C24.5417 20.4577 24.3225 21.3533 24.0501 22.1793C23.2956 24.4669 22.3436 25.6395 20.6548 26.3619C19.8433 26.7089 19.1844 27.0057 18.921 27.1253H16.379V26.6327C16.379 26.2923 16.1032 26.0165 15.7627 26.0165H11.5912V25.3516C11.5912 25.0112 11.3154 24.7354 10.975 24.7354H0.61622C0.27579 24.7354 0 25.0112 0 25.3516V29.0083C0 29.3487 0.275872 29.6245 0.61622 29.6245C0.95665 29.6245 1.23244 29.3486 1.23244 29.0083V25.9679H10.3588V26.6327V40.4735H1.23252V31.0624C1.23252 30.722 0.956732 30.4462 0.616302 30.4462C0.275872 30.4462 8.19864e-05 30.7221 8.19864e-05 31.0624V41.0897C8.19864e-05 41.4301 0.275954 41.7059 0.616302 41.7059H10.9751C11.3156 41.7059 11.5914 41.4301 11.5914 41.0897V40.4248H15.7629C16.1033 40.4248 16.3791 40.149 16.3791 39.8086V39.5198H18.8368L20.161 40.5919C21.2727 41.4919 22.6727 41.9875 24.1031 41.9875H27.8575C27.8618 41.9875 27.866 41.987 27.8703 41.9869C27.9495 41.9953 28.0297 42 28.1112 42H32.5132C33.7471 42 34.7508 40.9963 34.7508 39.7625C34.7508 39.3922 34.6598 39.0429 34.4999 38.7349C35.5851 38.5814 36.4227 37.6469 36.4227 36.52C36.4227 36.0642 36.2854 35.6399 36.0505 35.286C36.7159 34.9428 37.172 34.2489 37.172 33.4501V33.1047C37.1722 32.3296 36.7426 31.6531 36.1091 31.3001ZM27.9386 29.0302H34.3581V29.0301C34.817 29.0301 35.1904 29.4034 35.1904 29.8624V30.2079C35.1904 30.6668 34.8171 31.0402 34.3581 31.0402H27.9386C27.4797 31.0402 27.1063 30.6669 27.1063 30.2079V29.8767C27.1466 29.727 27.1816 29.5867 27.2118 29.4581C27.3542 29.2031 27.6265 29.0302 27.9386 29.0302ZM25.8738 39.7628C25.8738 40.119 25.9579 40.4559 26.1067 40.7553H24.103C22.9542 40.7551 21.8297 40.3569 20.9366 39.634L19.4427 38.4246C19.333 38.3357 19.1961 38.2873 19.0549 38.2873H16.379V36.5201C16.379 36.1797 16.1033 35.9039 15.7628 35.9039C15.4224 35.9039 15.1466 36.1798 15.1466 36.5201V38.9036V39.1924H11.5913V27.249H15.1466V27.7416V34.466V34.4661C15.1466 34.8065 15.4225 35.0823 15.7628 35.0823C16.1033 35.0823 16.379 34.8065 16.379 34.4661V34.466V28.3579H19.0549C19.1438 28.3579 19.2317 28.3387 19.3124 28.3016C19.3202 28.298 20.1025 27.9387 21.1394 27.4951C23.1698 26.6269 24.3521 25.1987 25.2206 22.5654C25.5123 21.6808 25.7464 20.725 25.9166 19.7242L26.2247 17.9113C26.9478 18.08 27.3465 18.6532 27.5247 19.7391C27.6319 20.3927 27.6152 21.0823 27.4749 21.7889L26.1611 28.4095C26.1587 28.4218 26.1565 28.4344 26.1549 28.4469C26.1533 28.4584 26.1201 28.6899 26.0386 29.0545C25.9564 29.2471 25.903 29.4545 25.883 29.6716C25.3948 31.4143 24.1385 34.4009 21.2621 34.4009C20.9218 34.4009 20.6459 34.6766 20.6459 35.0171C20.6459 35.3575 20.9218 35.6333 21.2621 35.6333C23.1695 35.6333 24.7595 34.6491 25.9002 32.777C25.8831 32.8838 25.8739 32.9934 25.8739 33.105V33.4505C25.8739 34.0402 26.1227 34.5724 26.5203 34.949C26.1209 35.3533 25.8739 35.9084 25.8739 36.5203C25.8739 37.1579 26.1423 37.7336 26.5717 38.1415C26.1422 38.5494 25.8738 39.125 25.8738 39.7628ZM32.5134 40.7676H28.1113C27.5572 40.7676 27.1064 40.3167 27.1064 39.7626C27.1064 39.2085 27.5572 38.7575 28.1113 38.7575H32.5134C33.0675 38.7575 33.5184 39.2084 33.5184 39.7626C33.5184 40.3167 33.0675 40.7676 32.5134 40.7676ZM34.1854 37.5251H32.5135H28.1114C27.5573 37.5251 27.1065 37.0743 27.1065 36.5201C27.1065 35.966 27.5573 35.5152 28.1114 35.5152H34.1855C34.7396 35.5152 35.1905 35.966 35.1905 36.5201C35.1904 37.0742 34.7396 37.5251 34.1854 37.5251ZM35.9397 33.4503C35.9398 33.9092 35.5664 34.2826 35.1075 34.2826H34.1854H28.1113H27.9385C27.4796 34.2826 27.1062 33.9092 27.1062 33.4503V33.1048C27.1062 32.6459 27.4795 32.2725 27.9385 32.2725H34.358H35.1074C35.5663 32.2725 35.9397 32.6458 35.9397 33.1048V33.4503Z" fill="#FF0000"/>
<path d="M12.3625 8.89212C12.2258 8.47188 11.8693 8.17139 11.432 8.10782L8.62986 7.70062L7.37675 5.1615C7.18111 4.7652 6.78506 4.51903 6.34307 4.51903C5.90117 4.51903 5.50512 4.7652 5.30948 5.1615L4.05653 7.70062L1.2545 8.10782C0.81711 8.17131 0.460602 8.47179 0.323937 8.89212C0.187273 9.31237 0.299 9.76518 0.615559 10.0739L2.64321 12.0503L2.16464 14.841C2.08991 15.2767 2.26562 15.7086 2.62303 15.9685C2.82516 16.1153 3.06149 16.1898 3.29954 16.1898C3.48272 16.1898 3.6668 16.1456 3.83701 16.0562L6.34324 14.7386L8.84946 16.0562C9.24067 16.2618 9.70571 16.2282 10.0632 15.9685C10.4208 15.7088 10.5965 15.2767 10.5218 14.841L10.0431 12.0503L12.0708 10.0738C12.3873 9.76526 12.499 9.31245 12.3625 8.89212ZM9.15273 11.197C8.88096 11.4618 8.75701 11.8432 8.82116 12.2172L9.27955 14.8898L6.8794 13.628C6.54348 13.4513 6.14243 13.4514 5.80659 13.628L3.40643 14.8898L3.86474 12.2172C3.92889 11.8434 3.80502 11.462 3.53333 11.197L1.59149 9.30425L4.27514 8.91427C4.65052 8.8598 4.97512 8.62413 5.14304 8.2837L6.34307 5.85196L7.54303 8.28353C7.71087 8.62396 8.03538 8.8598 8.41092 8.91427L11.0943 9.30425L9.15273 11.197Z" fill="#FF0000"/>
<path d="M25.3264 4.37301C25.1897 3.95277 24.8332 3.65228 24.3959 3.58871L21.5938 3.18151L20.3407 0.64247C20.1451 0.246176 19.7491 0 19.3071 0C18.8651 0 18.4692 0.246176 18.2735 0.64247L17.0204 3.18159L14.2184 3.58879C13.781 3.6522 13.4245 3.95277 13.2878 4.37309C13.1511 4.79334 13.2629 5.24616 13.5794 5.55492L15.6072 7.53139L15.1285 10.322C15.0538 10.7577 15.2295 11.1896 15.5869 11.4495C15.9445 11.7092 16.4094 11.7428 16.8008 11.5372L19.307 10.2196L21.8132 11.5372C21.9834 11.6267 22.1675 11.6709 22.3507 11.6709C22.5887 11.6709 22.8251 11.5963 23.0272 11.4495C23.3847 11.1897 23.5604 10.7578 23.4856 10.3222L23.007 7.53147L25.0348 5.55492C25.3513 5.24616 25.463 4.79334 25.3264 4.37301ZM22.1168 6.67793C21.8452 6.94265 21.7212 7.32393 21.7852 7.69816L22.2436 10.3707L19.8433 9.10893C19.5076 8.9324 19.1065 8.9324 18.7706 9.10893L16.3705 10.3707L16.8289 7.69816C16.893 7.32417 16.7691 6.94281 16.4974 6.67793L14.5556 4.78522L17.2391 4.39524C17.6146 4.34077 17.9391 4.1051 18.1071 3.76467L19.3071 1.33301L20.5071 3.76475C20.6751 4.1051 20.9997 4.34077 21.375 4.39524L24.0585 4.78522L22.1168 6.67793Z" fill="#FF0000"/>
<path d="M38.2657 8.89221C38.1291 8.47197 37.7726 8.17149 37.3352 8.10791L34.5331 7.70071L33.2801 5.16159C33.0845 4.7653 32.6885 4.51912 32.2465 4.51912C31.8045 4.51912 31.4086 4.7653 31.2129 5.16159L29.9598 7.70071L27.1578 8.10791C26.7204 8.1714 26.3639 8.47188 26.2272 8.89221C26.0906 9.31254 26.2024 9.76536 26.5189 10.074L28.5466 12.0505L28.0679 14.8411C27.9932 15.2768 28.1688 15.7087 28.5263 15.9686C28.8839 16.2284 29.3487 16.262 29.7402 16.0563L32.2464 14.7388L34.7527 16.0563C34.9228 16.1458 35.1069 16.19 35.2901 16.19C35.5282 16.19 35.7646 16.1154 35.9666 15.9687C36.3241 15.7089 36.4998 15.2769 36.425 14.8413L35.9464 12.0506L37.9742 10.0741C38.2906 9.76527 38.4024 9.31246 38.2657 8.89221ZM35.056 11.1971C34.7845 11.4619 34.6605 11.8431 34.7246 12.2172L35.183 14.8898L32.7827 13.628C32.6149 13.5397 32.4307 13.4956 32.2464 13.4956C32.0622 13.4956 31.878 13.5397 31.71 13.628L29.3099 14.8898L29.7683 12.2172C29.8324 11.8431 29.7085 11.4618 29.4368 11.197L27.495 9.30426L30.1783 8.91428C30.5537 8.85981 30.8783 8.62414 31.0463 8.2837L32.2465 5.85213L33.4465 8.28387C33.6145 8.62422 33.9391 8.85981 34.3144 8.91436L36.9979 9.30434L35.056 11.1971Z" fill="#FF0000"/>
</svg>
