<svg width="42" height="46" viewBox="0 0 42 46" fill="none" xmlns="http://www.w3.org/2000/svg">
<path d="M12.7028 24.0304V24.7304H13.813L13.3344 23.7286L12.7028 24.0304ZM12.6516 23.9322L13.2605 23.5871L13.26 23.5862L12.6516 23.9322ZM12.0151 22.8131L11.6563 22.212L11.0677 22.5633L11.4066 23.1592L12.0151 22.8131ZM21.0605 10.8588L20.3605 10.8534V10.8534L21.0605 10.8588ZM11.351 1.0003L11.3456 1.70028L11.3458 1.70028L11.351 1.0003ZM1.4925 10.7082L2.19248 10.7136L2.19248 10.7134L1.4925 10.7082ZM10.2464 22.8244L10.85 23.179L11.2197 22.5497L10.5755 22.2066L10.2464 22.8244ZM9.60994 23.9079L10.2133 24.2629L10.2135 24.2625L9.60994 23.9079ZM9.54493 24.0304L8.91274 23.7298L8.43706 24.7304H9.54493V24.0304ZM13.3344 23.7286C13.3116 23.6809 13.287 23.6337 13.2605 23.5871L12.0426 24.2774C12.053 24.2958 12.0625 24.3141 12.0712 24.3322L13.3344 23.7286ZM13.26 23.5862L12.6235 22.467L11.4066 23.1592L12.0431 24.2783L13.26 23.5862ZM12.3738 23.4142C13.5827 22.6926 15.8925 21.1791 17.9142 19.0584C19.9271 16.9469 21.735 14.1478 21.7605 10.8643L20.3605 10.8534C20.3391 13.6206 18.8073 16.0926 16.9009 18.0924C15.0031 20.0831 12.8136 21.5213 11.6563 22.212L12.3738 23.4142ZM21.7605 10.8643C21.8056 5.07464 17.1476 0.34371 11.3563 0.300323L11.3458 1.70028C16.3637 1.73788 20.3996 5.83702 20.3605 10.8534L21.7605 10.8643ZM11.3565 0.300325C5.56699 0.255203 0.83591 4.91149 0.792522 10.703L2.19248 10.7134C2.23007 5.69568 6.32906 1.66118 11.3456 1.70028L11.3565 0.300325ZM0.792522 10.7028C0.764793 14.3275 2.45859 17.197 4.42549 19.2987C6.3893 21.3971 8.6648 22.7752 9.9174 23.4423L10.5755 22.2066C9.39221 21.5764 7.26483 20.2838 5.44768 18.3421C3.63361 16.4037 2.16838 13.8636 2.19248 10.7136L0.792522 10.7028ZM9.64289 22.4699L9.00638 23.5534L10.2135 24.2625L10.85 23.179L9.64289 22.4699ZM9.00662 23.553C8.97247 23.611 8.94117 23.67 8.91274 23.7298L10.1771 24.331C10.1878 24.3084 10.1998 24.2857 10.2133 24.2629L9.00662 23.553ZM9.54493 24.7304H12.7028V23.3304H9.54493V24.7304Z" fill="#FF0000"/>
<path fill-rule="evenodd" clip-rule="evenodd" d="M10.334 26.0567C10.3437 26.0607 10.3535 26.0647 10.3633 26.0685V31.7517C10.3633 33.8167 12.0428 35.4962 14.1078 35.4962C16.1728 35.4962 17.8523 33.8167 17.8523 31.7517V29.1198C17.8523 27.9472 18.8063 26.9949 19.9773 26.9949H23.1355L22.797 27.3707C22.1475 28.0898 21.9321 29.0502 22.1346 29.9312C21.3248 30.307 20.1149 31.0925 20.1149 32.4675V33.2547C20.1149 33.8782 20.3627 34.4451 20.7611 34.8532C20.3643 35.2889 20.1149 35.8638 20.1149 36.4971C20.1149 37.1336 20.366 37.7086 20.7644 38.1459C20.3643 38.5751 20.1149 39.1468 20.1149 39.78C20.1149 41.1049 21.1936 42.1835 22.5184 42.1835H25.654V44.3036C25.654 44.7506 26.0167 45.1134 26.4638 45.1134C26.9108 45.1134 27.2736 44.7506 27.2736 44.3036V42.1835H28.6648C29.2349 42.1835 29.7532 41.9746 30.1662 41.641C30.1726 41.641 30.1783 41.6426 30.184 41.6442C30.1896 41.6458 30.1953 41.6474 30.2018 41.6474H33.8119C34.6638 41.6474 35.4331 41.3057 36.0016 40.755L40.0619 41.6653C40.1219 41.6782 40.1802 41.6847 40.2385 41.6847C40.6094 41.6847 40.9446 41.4288 41.0288 41.0514C41.126 40.6141 40.8523 40.1817 40.415 40.0829L36.8519 39.2844C36.9183 39.0302 36.9652 38.7662 36.9652 38.4908V36.8567C36.9652 36.4096 36.6025 36.0469 36.1554 36.0469C35.7084 36.0469 35.3456 36.4096 35.3456 36.8567V38.4908C35.3456 39.3363 34.6557 40.0262 33.8103 40.0262H31.0424C31.0452 39.9973 31.0492 39.9687 31.0532 39.9399C31.0607 39.8864 31.0683 39.8326 31.0683 39.7768C31.0683 39.1452 30.8189 38.5734 30.4188 38.1442C30.8189 37.7086 31.0683 37.132 31.0683 36.4955C31.0683 35.8606 30.8205 35.2873 30.4221 34.85C30.7865 34.4758 31.0148 33.9689 31.0521 33.4069C31.5331 33.5624 32.0481 33.6628 32.615 33.6628C33.8718 33.6628 35.1027 33.2304 36.0809 32.4465C36.4292 32.1663 36.4842 31.6577 36.204 31.3079C35.9238 30.9597 35.4169 30.9062 35.0655 31.1848C34.3658 31.7468 33.5187 32.0432 32.615 32.0432C31.9753 32.0432 31.0845 31.8942 30.4723 31.1913C29.8552 30.4819 29.6349 29.3385 29.839 27.8889C29.8876 27.5358 29.7013 27.1925 29.379 27.0435C29.0535 26.8945 28.6713 26.969 28.4332 27.2378L25.858 30.1143C25.6264 30.375 25.3074 30.5224 24.9608 30.5337C24.5445 30.5192 24.2886 30.4123 24.0441 30.1677C23.5744 29.698 23.5533 28.9449 24.0003 28.4509L27.2153 24.8748C27.5408 24.5493 28.0186 24.4214 28.4397 24.5331L40.449 28.1286C40.8863 28.2517 41.3301 28.0136 41.458 27.5844C41.586 27.1552 41.3463 26.7099 40.9171 26.5803L28.8834 22.9799C27.8906 22.7094 26.8087 23.001 26.0443 23.7638L24.5947 25.3753H19.9789C17.9139 25.3753 16.2344 27.0548 16.2344 29.1198V31.7517C16.2344 32.9243 15.2804 33.8766 14.1094 33.8766C12.9385 33.8766 11.9845 32.9226 11.9845 31.7517V26.0567H10.334ZM22.5702 37.3296H25.6556V35.6646V35.663H22.5702C22.1086 35.663 21.7361 36.0371 21.7361 36.4971C21.7361 36.9571 22.1103 37.3296 22.5702 37.3296ZM27.2752 37.3296H28.6194C29.0794 37.3296 29.4519 36.9571 29.4519 36.4987C29.4519 36.0371 29.0778 35.6646 28.6194 35.6646H27.2752V37.3296ZM28.8802 33.8944C29.196 33.8944 29.4519 33.6077 29.4519 33.2547V32.7688C29.4519 32.4157 29.1944 32.129 28.8802 32.129L27.2752 32.0724V33.8944H28.8802ZM21.7378 39.7817C21.7378 40.2141 22.0892 40.5655 22.5216 40.5655V40.5672H25.6572V38.9961H22.5216C22.0908 38.9961 21.7378 39.3492 21.7378 39.7817ZM27.2752 40.5655H28.668C29.0988 40.5655 29.4503 40.2125 29.4503 39.78C29.4503 39.3476 29.0988 38.9945 28.6664 38.9945H27.2752V40.5655ZM27.7238 30.4657L28.3538 30.4884C28.35 30.4739 28.3462 30.4594 28.3424 30.4449C28.2975 30.2732 28.2525 30.1012 28.2226 29.9086L27.7238 30.4657ZM25.6556 32.0562C25.4466 32.1112 25.2312 32.1485 25.0126 32.155C24.1736 32.1857 23.4869 31.8812 22.9363 31.3452C22.4148 31.5735 21.7361 31.9979 21.7361 32.4659V33.253C21.7361 33.6061 21.9937 33.8928 22.3079 33.8928H25.6556V32.0562Z" fill="#FF0000"/>
</svg>
