<svg width="21" height="19" viewBox="0 0 21 19" fill="none" xmlns="http://www.w3.org/2000/svg">
<path d="M20.0089 7.72911C19.9014 7.109 19.3788 6.73693 18.6231 6.72866C18.39 6.72535 18.1585 6.74851 17.9319 6.7237C17.4854 6.6774 17.368 6.82623 17.3713 7.1801C17.3928 8.91641 17.3862 10.6511 17.3796 12.3824C17.3746 13.2903 16.4883 14.2229 15.4234 14.4594C12.1161 15.1853 8.81216 15.9228 5.5016 16.6422C5.12954 16.7232 4.73763 16.7645 4.35895 16.7612C4.19359 16.7612 3.96539 16.6355 3.89429 16.5132C3.84799 16.4321 3.9935 16.2354 4.1076 16.1345C4.25808 16.0121 4.4499 15.9146 4.64668 15.8468C5.25356 15.6301 5.87037 15.4333 6.48386 15.23C8.9395 14.4131 11.4001 13.6061 13.8524 12.7842C14.9587 12.4105 15.5557 11.673 15.5738 10.742C15.6301 7.7258 15.602 4.70959 15.5887 1.69006C15.5887 1.21217 15.3407 0.813642 14.7718 0.606938C14.117 0.372123 13.5415 0.558984 12.9727 0.830178C9.49677 2.48877 6.0225 4.14405 2.54327 5.79933C1.51968 6.28715 0.949173 6.99324 0.954134 7.99865C0.965709 10.8512 0.957444 13.6987 0.960751 16.5479C0.960751 16.6901 0.975632 16.8356 1.02028 16.9712C1.36258 17.9402 2.25058 18.4959 3.47757 18.4959C5.92328 18.5025 8.37726 18.4992 10.8246 18.4992C13.2637 18.4992 15.6946 18.5025 18.1337 18.4959C18.6628 18.4959 19.1506 18.3867 19.5475 18.0593C20.0618 17.6459 20.0353 17.12 20.0353 16.5958C20.0403 13.8178 20.0403 11.043 20.037 8.25992C20.0419 8.08629 20.0386 7.90439 20.0089 7.72911ZM9.83907 6.8378C10.0855 6.19785 10.6229 5.79767 11.4431 5.69515C11.9855 5.62569 12.4584 5.96138 12.5361 6.45085C12.6535 7.20491 11.711 8.08133 10.78 8.07802C10.0028 8.07802 9.56953 7.53398 9.83907 6.8378Z" fill="#FF0000"/>
</svg>
