<svg width="24" height="25" viewBox="0 0 24 25" fill="none" xmlns="http://www.w3.org/2000/svg">
<path d="M11.0662 17.4803C10.979 17.3927 10.8581 17.343 10.7348 17.343C10.6115 17.343 10.4906 17.3927 10.4034 17.4803C10.3162 17.5675 10.266 17.688 10.266 17.8118C10.266 17.935 10.3161 18.056 10.4034 18.1432C10.4906 18.2304 10.6115 18.2805 10.7348 18.2805C10.8581 18.2805 10.979 18.2304 11.0662 18.1432C11.1534 18.056 11.2036 17.935 11.2036 17.8118C11.2036 17.6885 11.1534 17.5675 11.0662 17.4803Z" fill="#FF0000"/>
<path d="M21.0008 13.313C20.742 13.313 20.5321 13.5229 20.5321 13.7818V15.8434H12.4692V14.6863C12.4692 12.9038 11.1288 11.4294 9.40326 11.2155C9.74429 10.7947 9.94919 10.2592 9.94919 9.67652V6.37874C9.94919 6.11983 9.73927 5.90997 9.48042 5.90997H7.02773C5.93803 5.90997 5.05149 6.7965 5.05149 7.8862V9.67652C5.05149 10.2592 5.25635 10.7946 5.59742 11.2155C3.87175 11.4294 2.53135 12.9038 2.53135 14.6863V15.8434H0.937537V4.58143C0.937537 4.38099 1.10165 4.21795 1.30341 4.21795H11.0473C11.3062 4.21795 11.5161 4.00808 11.5161 3.74918C11.5161 3.49028 11.3062 3.28041 11.0473 3.28041H1.30341C0.584742 3.28041 0 3.86403 0 4.58143V18.48C0 19.1974 0.584742 19.7811 1.30341 19.7811H8.43689V21.9465C7.25433 22.0663 6.32837 23.0676 6.32837 24.2812C6.32837 24.5401 6.53829 24.75 6.79714 24.75H14.6724C14.9313 24.75 15.1412 24.5401 15.1412 24.2812C15.1412 23.0677 14.2153 22.0663 13.0327 21.9465V19.7811H20.1662C20.8849 19.7811 21.4696 19.1974 21.4696 18.48V13.7818C21.4696 13.5229 21.2597 13.313 21.0008 13.313ZM5.98898 7.88629C5.98898 7.31355 6.45494 6.8476 7.02768 6.8476H9.0116V7.59603C9.0116 7.96786 8.70911 8.27036 8.33723 8.27036H5.98898V7.88629ZM5.98898 9.20789H8.33728C8.57799 9.20789 8.80633 9.1545 9.01165 9.05948V9.67661C9.01165 10.5099 8.33362 11.1879 7.50029 11.1879C6.66696 11.1879 5.98898 10.5099 5.98898 9.67661V9.20789ZM8.0473 12.1255L7.50029 12.6725L6.95329 12.1255H8.0473ZM3.46889 14.6863C3.46889 13.4016 4.42002 12.335 5.65503 12.1531L7.16878 13.6669C7.26033 13.7584 7.38029 13.8042 7.50025 13.8042C7.6202 13.8042 7.74016 13.7584 7.83171 13.6669L9.34546 12.1531C10.5806 12.335 11.5317 13.4016 11.5317 14.6863V15.8434H3.46889V14.6863ZM14.1235 23.8125H7.34602C7.53962 23.2651 8.06225 22.872 8.67512 22.872H12.7944C13.4072 22.872 13.9299 23.2651 14.1235 23.8125ZM9.37443 21.9344V19.7811H12.0952V21.9344H9.37443ZM20.5321 18.48C20.5321 18.6804 20.3679 18.8435 20.1662 18.8435H1.30341C1.10165 18.8435 0.937537 18.6804 0.937537 18.48V16.7809H20.5321V18.48Z" fill="#FF0000"/>
<path d="M21.3322 11.6845C21.245 11.5973 21.1241 11.5471 21.0008 11.5471C20.8775 11.5471 20.7566 11.5973 20.6694 11.6845C20.5822 11.7721 20.5321 11.8926 20.5321 12.0159C20.5321 12.1397 20.5822 12.2601 20.6694 12.3473C20.7566 12.435 20.8775 12.4847 21.0008 12.4847C21.1241 12.4847 21.245 12.435 21.3322 12.3473C21.4194 12.2601 21.4696 12.1397 21.4696 12.0159C21.4696 11.8926 21.4194 11.7717 21.3322 11.6845Z" fill="#FF0000"/>
<path d="M21.0008 2.95321H17.4851C17.2262 2.95321 17.0163 3.16308 17.0163 3.42198C17.0163 3.68088 17.2262 3.89075 17.4851 3.89075H21.0008C21.2597 3.89075 21.4696 3.68088 21.4696 3.42198C21.4696 3.16308 21.2597 2.95321 21.0008 2.95321Z" fill="#FF0000"/>
<path d="M15.8945 3.09056C15.8073 3.00337 15.6864 2.95321 15.5631 2.95321C15.4398 2.95321 15.3189 3.00337 15.2317 3.09056C15.1445 3.17775 15.0943 3.29869 15.0943 3.42198C15.0943 3.54527 15.1445 3.66621 15.2317 3.7534C15.3189 3.84059 15.4398 3.89075 15.5631 3.89075C15.6864 3.89075 15.8073 3.84059 15.8945 3.7534C15.9817 3.66621 16.0319 3.54527 16.0319 3.42198C16.0319 3.29869 15.9817 3.17775 15.8945 3.09056Z" fill="#FF0000"/>
<path d="M21.0008 5.01579H15.5631C15.3043 5.01579 15.0943 5.22566 15.0943 5.48456C15.0943 5.74346 15.3043 5.95333 15.5631 5.95333H21.0008C21.2597 5.95333 21.4696 5.74346 21.4696 5.48456C21.4696 5.22566 21.2597 5.01579 21.0008 5.01579Z" fill="#FF0000"/>
<path d="M21.0008 7.07837H15.5631C15.3043 7.07837 15.0943 7.28824 15.0943 7.54714C15.0943 7.80604 15.3043 8.01591 15.5631 8.01591H21.0008C21.2597 8.01591 21.4696 7.80604 21.4696 7.54714C21.4696 7.28824 21.2597 7.07837 21.0008 7.07837Z" fill="#FF0000"/>
<path d="M21.6571 0.75H14.9068C13.6144 0.75 12.563 1.80145 12.563 3.09384V8.10966C12.563 9.31229 13.4733 10.3063 14.6412 10.4385V11.6566C14.6412 11.8462 14.7554 12.0172 14.9306 12.0897C14.9885 12.1138 15.0495 12.1255 15.1099 12.1255C15.2319 12.1255 15.3517 12.0778 15.4414 11.9882L16.976 10.4535H21.6571C22.9495 10.4535 24.0009 9.40206 24.0009 8.10966V3.09384C24.0009 1.80145 22.9495 0.75 21.6571 0.75ZM23.0634 8.10966C23.0634 8.8851 22.4325 9.51597 21.6571 9.51597H16.7819C16.6576 9.51597 16.5384 9.56538 16.4504 9.65327L15.5787 10.525V9.98474C15.5787 9.72583 15.3688 9.51597 15.11 9.51597H14.9068C14.1314 9.51597 13.5005 8.8851 13.5005 8.10966V3.09384C13.5005 2.3184 14.1314 1.68754 14.9068 1.68754H21.6571C22.4325 1.68754 23.0634 2.3184 23.0634 3.09384V8.10966Z" fill="#FF0000"/>
</svg>
