<svg width="48" height="40" viewBox="0 0 48 40" fill="none" xmlns="http://www.w3.org/2000/svg">
<path d="M36.3034 17.8607C35.4681 17.8607 34.7886 17.1812 34.7886 16.3459C34.7886 15.5106 35.4681 14.8311 36.3034 14.8311C37.1387 14.8311 37.8182 15.5106 37.8182 16.3459C37.8182 17.1812 37.1387 17.8607 36.3034 17.8607ZM36.3034 15.5447C35.8617 15.5447 35.5022 15.9042 35.5022 16.3459C35.5022 16.7876 35.8617 17.147 36.3034 17.147C36.7451 17.147 37.1045 16.7876 37.1045 16.3459C37.1045 15.9042 36.7451 15.5447 36.3034 15.5447Z" fill="#FF0000" stroke="#FF0000"/>
<path d="M25.0003 16.3407H13.0573C12.9315 16.3407 12.8107 16.2905 12.7216 16.2014C11.0427 14.5167 10.1182 12.2828 10.1182 9.91074C10.1182 4.99725 14.1154 1 19.0289 1C23.9422 1 27.9394 4.99725 27.9394 9.91074C27.9394 12.2828 27.0148 14.5167 25.336 16.2014C25.2469 16.2905 25.1261 16.3407 25.0003 16.3407ZM13.2572 15.393H24.8003C26.215 13.9045 26.9917 11.9654 26.9917 9.91074C26.9917 5.51993 23.4197 1.94772 19.0289 1.94772C14.6381 1.94772 11.0659 5.51993 11.0659 9.91074C11.0659 11.9654 11.8426 13.9045 13.2572 15.393Z" fill="#FF0000" stroke="#FF0000"/>
<path d="M18.8957 14.0242C18.6176 14.0242 18.3921 13.7987 18.3921 13.5206V12.4191C18.3921 12.1409 18.6176 11.9154 18.8957 11.9154C19.1739 11.9154 19.3994 12.1409 19.3994 12.4191V13.5206C19.3994 13.7987 19.1739 14.0242 18.8957 14.0242Z" fill="#FF0000"/>
<path d="M18.8957 5.88941C18.6176 5.88941 18.3921 5.66389 18.3921 5.38575V4.28399C18.3921 4.00585 18.6176 3.78033 18.8957 3.78033C19.1739 3.78033 19.3994 4.00585 19.3994 4.28399V5.38575C19.3994 5.66389 19.1739 5.88941 18.8957 5.88941Z" fill="#FF0000"/>
<path d="M18.8963 12.9227C17.649 12.9227 16.6343 11.908 16.6343 10.6606C16.6343 10.3825 16.8598 10.157 17.1379 10.157C17.4161 10.157 17.6416 10.3825 17.6416 10.6606C17.6416 11.3524 18.2045 11.9154 18.8963 11.9154C19.5881 11.9154 20.151 11.3524 20.151 10.6606C20.151 9.96884 19.5881 9.40592 18.8963 9.40592C17.649 9.40592 16.6343 8.39122 16.6343 7.14388C16.6343 5.89678 17.649 4.88208 18.8963 4.88208C20.1437 4.88208 21.1584 5.89678 21.1584 7.14388C21.1584 7.42202 20.9328 7.64753 20.6547 7.64753C20.3766 7.64753 20.151 7.42202 20.151 7.14388C20.151 6.45208 19.5881 5.8894 18.8963 5.8894C18.2045 5.8894 17.6416 6.45208 17.6416 7.14388C17.6416 7.83567 18.2045 8.3986 18.8963 8.3986C20.1437 8.3986 21.1584 9.41329 21.1584 10.6606C21.1584 11.908 20.1437 12.9227 18.8963 12.9227Z" fill="#FF0000"/>
<path d="M28.6393 16.3407H9.41819C9.15651 16.3407 8.94434 16.1285 8.94434 15.8668C8.94434 15.6051 9.15651 15.3929 9.41819 15.3929H28.6393C28.901 15.3929 29.1131 15.6051 29.1131 15.8668C29.1131 16.1285 28.901 16.3407 28.6393 16.3407Z" fill="#FF0000" stroke="#FF0000"/>
<path d="M5.85974 18.5275C5.82559 18.5275 5.79091 18.5224 5.75641 18.5122C5.63236 18.4747 2.70326 17.5659 1.49946 15.056C0.810006 13.6184 0.834399 11.9617 1.57229 10.1321C1.64582 9.94929 1.85421 9.8606 2.03663 9.93465C2.21941 10.0084 2.30775 10.2162 2.23404 10.399C1.57438 12.0349 1.54372 13.498 2.14309 14.7474C3.21221 16.9766 5.93536 17.8206 5.96271 17.8288C6.15141 17.8858 6.25804 18.0849 6.20124 18.2736C6.15454 18.4278 6.01289 18.5275 5.85974 18.5275Z" fill="#FF0000" stroke="#FF0000"/>
<path d="M37.421 39H29.6047C29.4366 39 29.2914 38.8827 29.2559 38.7184L28.6035 35.6961C28.5619 35.5034 28.6844 35.3136 28.8771 35.272C29.0691 35.2305 29.2597 35.3528 29.3012 35.5455L29.8927 38.2863H37.0641V32.3014C37.0641 32.181 37.1249 32.057 37.2258 31.9911C40.1804 30.06 42.233 27.584 43.1621 24.8303C43.2046 24.7045 43.3135 24.6125 43.4449 24.592L46.6752 24.0835V15.8794H42.2843C42.1616 15.8794 42.0475 15.8164 41.9821 15.7125C40.0607 12.655 38.0015 10.7896 35.0968 9.47501C34.9691 9.41716 34.887 9.28997 34.887 9.14988V2.68343C33.8219 2.92423 30.9319 3.89351 29.7106 7.45543C29.6538 7.62165 29.4847 7.72306 29.3108 7.691C29.0764 7.64953 27.401 7.48941 27.1405 7.45543C26.945 7.42999 26.8072 7.25088 26.8326 7.05556C26.8584 6.85989 27.0412 6.72189 27.2325 6.74768C27.3973 6.76911 28.9839 6.91198 29.1391 6.9376C30.8467 2.44943 35.1592 1.90668 35.2035 1.90163C35.3052 1.88978 35.4056 1.92219 35.4815 1.98997C35.5573 2.05775 35.6007 2.15445 35.6007 2.2562V8.92146C39.2126 10.6164 41.1751 13.1185 42.4806 15.1658H47.032C47.2291 15.1658 47.3889 15.3255 47.3889 15.5226V24.3886C47.3889 24.5643 47.261 24.7138 47.0875 24.7411L43.767 25.2637C42.7739 28.0372 40.7092 30.5256 37.7778 32.4818V38.6431C37.7778 38.8402 37.618 39 37.421 39Z" fill="#FF0000" stroke="#FF0000"/>
<path d="M17.621 38.9923H9.80472C9.60766 38.9923 9.44788 38.8326 9.44788 38.6355V32.4855C5.22124 29.6574 2.80127 25.6646 2.80127 21.5054C2.80127 16.8563 5.72874 12.604 10.582 9.81616L10.7857 10.5225C6.24545 13.1821 3.51494 17.1669 3.51494 21.5054C3.51494 25.4723 5.87881 29.2957 10.0002 31.9953C10.1009 32.0612 10.1616 32.1734 10.1616 32.2938V38.2787H17.3331L17.9245 35.5454C17.9658 35.3555 18.1524 35.2344 18.3416 35.2706C21.7337 35.9324 25.4883 35.9333 28.8852 35.2706C29.0992 35.2281 29.3123 35.4006 29.3123 35.6209C29.3123 35.8026 29.1779 35.9526 29.0025 35.9749C25.6353 36.6292 21.929 36.6492 18.5486 36.0357L17.9698 38.7109C17.9343 38.8752 17.7889 38.9923 17.621 38.9923Z" fill="#FF0000" stroke="#FF0000"/>
</svg>
