<svg width="24" height="25" viewBox="0 0 24 25" fill="none" xmlns="http://www.w3.org/2000/svg">
<path d="M22.5942 0.25H5.90674C5.13133 0.25 4.50049 0.880844 4.50049 1.65625V3.25C4.50049 3.50884 4.71035 3.71875 4.96924 3.71875C5.22813 3.71875 5.43799 3.50884 5.43799 3.25V1.65625C5.43799 1.39778 5.64827 1.1875 5.90674 1.1875H22.5942C22.8527 1.1875 23.063 1.39778 23.063 1.65625V22.8438C23.063 23.1022 22.8527 23.3125 22.5942 23.3125H5.90674C5.64827 23.3125 5.43799 23.1022 5.43799 22.8438V21.328C5.43799 21.0692 5.22813 20.8593 4.96924 20.8593C4.71035 20.8593 4.50049 21.0692 4.50049 21.328V22.8438C4.50049 23.6192 5.13133 24.25 5.90674 24.25H22.5942C23.3696 24.25 24.0005 23.6192 24.0005 22.8438V1.65625C24.0005 0.880844 23.3696 0.25 22.5942 0.25Z" fill="#FF0000"/>
<path d="M20.3392 18.3438H9.08923C8.83034 18.3438 8.62048 18.5537 8.62048 18.8125C8.62048 19.0713 8.83034 19.2812 9.08923 19.2812H20.3392C20.5981 19.2812 20.808 19.0713 20.808 18.8125C20.808 18.5537 20.5981 18.3438 20.3392 18.3438Z" fill="#FF0000"/>
<path d="M20.6705 20.9186C20.5833 20.8314 20.4628 20.7812 20.3391 20.7812C20.2158 20.7812 20.0948 20.8314 20.0077 20.9186C19.9205 21.0058 19.8703 21.1267 19.8703 21.25C19.8703 21.3733 19.9205 21.4942 20.0077 21.5814C20.0948 21.6685 20.2158 21.7188 20.3391 21.7188C20.4628 21.7188 20.5833 21.6686 20.6705 21.5814C20.7577 21.4942 20.8078 21.3733 20.8078 21.25C20.8078 21.1267 20.7577 21.0058 20.6705 20.9186Z" fill="#FF0000"/>
<path d="M18.4224 20.7812H9.08923C8.83034 20.7812 8.62048 20.9912 8.62048 21.25C8.62048 21.5088 8.83034 21.7188 9.08923 21.7188H18.4224C18.6813 21.7188 18.8911 21.5088 18.8911 21.25C18.8911 20.9912 18.6813 20.7812 18.4224 20.7812Z" fill="#FF0000"/>
<path d="M12.3744 4.36408C9.58498 4.36408 7.31557 6.63349 7.31557 9.42297C7.31548 10.8708 7.92711 12.1785 8.90534 13.1015C8.92198 13.1195 8.93989 13.1365 8.95948 13.1519C9.86004 13.9773 11.0593 14.4818 12.3744 14.4818C13.6894 14.4818 14.8887 13.9773 15.7893 13.1519C15.8089 13.1365 15.8268 13.1195 15.8434 13.1015C16.8216 12.1785 17.4333 10.8708 17.4333 9.42297C17.4333 6.63349 15.1639 4.36408 12.3744 4.36408ZM12.3744 13.5443C11.4114 13.5443 10.5247 13.2123 9.82231 12.6568C10.3199 11.7154 11.2895 11.1232 12.3744 11.1232C13.4592 11.1232 14.4288 11.7154 14.9264 12.6568C14.2241 13.2123 13.3373 13.5443 12.3744 13.5443ZM11.3877 9.19905V8.83516C11.3877 8.29113 11.8303 7.84849 12.3743 7.84849C12.9184 7.84849 13.361 8.29108 13.361 8.83516V9.19905C13.361 9.74304 12.9184 10.1857 12.3743 10.1857C11.8303 10.1857 11.3877 9.74308 11.3877 9.19905ZM15.6121 11.9702C15.183 11.2859 14.5552 10.764 13.8205 10.4663C14.1177 10.1275 14.2985 9.68411 14.2985 9.1991V8.83521C14.2985 7.77419 13.4353 6.91104 12.3744 6.91104C11.3134 6.91104 10.4502 7.77419 10.4502 8.83521V9.1991C10.4502 9.68411 10.631 10.1275 10.9283 10.4663C10.1935 10.764 9.56572 11.2859 9.13667 11.9702C8.5835 11.2686 8.25303 10.3837 8.25303 9.42297C8.25298 7.15043 10.1018 5.30158 12.3744 5.30158C14.6469 5.30158 16.4957 7.15043 16.4957 9.42297C16.4957 10.3837 16.1652 11.2686 15.6121 11.9702Z" fill="#FF0000"/>
<path d="M12.3744 2.125C8.35029 2.125 5.07644 5.39884 5.07644 9.42292C5.07644 11.7495 6.17078 13.8253 7.87174 15.1625L2.43114 20.6031C2.09013 20.9441 1.53522 20.9441 1.19416 20.6031C1.02897 20.4379 0.937988 20.2182 0.937988 19.9846C0.937988 19.751 1.02897 19.5313 1.19421 19.3661L3.97671 16.5836C4.15975 16.4006 4.15975 16.1038 3.97671 15.9207C3.79366 15.7377 3.49685 15.7377 3.3138 15.9207L0.531348 18.7032C0.188973 19.0455 0.000488281 19.5006 0.000488281 19.9846C0.000488281 20.4686 0.188973 20.9237 0.531254 21.266C0.884551 21.6193 1.34861 21.796 1.81268 21.796C2.27674 21.796 2.7408 21.6193 3.0941 21.266L8.65849 15.7016C9.74758 16.3487 11.0182 16.7209 12.3744 16.7209C16.3985 16.7209 19.6723 13.447 19.6723 9.42297C19.6723 5.39889 16.3984 2.125 12.3744 2.125ZM12.3744 15.7833C8.86722 15.7833 6.01389 12.9301 6.01389 9.42292C6.01389 5.91578 8.86718 3.0625 12.3744 3.0625C15.8816 3.0625 18.7348 5.91578 18.7348 9.42292C18.7348 12.9301 15.8815 15.7833 12.3744 15.7833Z" fill="#FF0000"/>
<path d="M5.45205 14.4452C5.36486 14.358 5.24439 14.3078 5.12064 14.3078C4.99736 14.3078 4.87642 14.358 4.78924 14.4452C4.70205 14.5323 4.65189 14.6533 4.65189 14.7766C4.65189 14.8999 4.70205 15.0208 4.78924 15.108C4.87642 15.1952 4.99736 15.2453 5.12064 15.2453C5.24439 15.2453 5.36486 15.1952 5.45205 15.108C5.53971 15.0208 5.58939 14.8999 5.58939 14.7766C5.58939 14.6533 5.53971 14.5323 5.45205 14.4452Z" fill="#FF0000"/>
</svg>
