<svg width="25" height="25" viewBox="0 0 25 25" fill="none" xmlns="http://www.w3.org/2000/svg">
<path d="M20.6777 4.3626V2.125C20.6763 1.021 19.7817 0.1264 18.6777 0.125H2.67773C1.57373 0.1264 0.679134 1.021 0.677734 2.125V10.925C0.680834 11.9465 1.45513 12.8008 2.47133 12.9044L3.97493 16.8075C4.37213 17.8381 5.52953 18.3515 6.56023 17.9548L15.9497 14.3378C15.3009 16.0325 15.4855 17.9336 16.4479 19.4719L16.6777 19.8394V23.725C16.6777 23.946 16.8567 24.125 17.0777 24.125H24.2777C24.4987 24.125 24.6777 23.946 24.6777 23.725V10.5215C24.6739 9.1382 24.1232 7.8128 23.1452 6.8345L20.6777 4.3626ZM20.6777 6.7548L21.8917 9.9062C22.1296 10.5248 21.8213 11.2189 21.2028 11.457L20.5089 11.725C20.6197 11.4728 20.6771 11.2002 20.6777 10.925V6.7548ZM1.47773 10.925V2.125C1.47773 1.4624 2.01513 0.925 2.67773 0.925H18.6777C19.3403 0.925 19.8777 1.4624 19.8777 2.125V4.6674H19.8742L19.8777 4.6765V10.925C19.8746 10.9948 19.8655 11.064 19.8505 11.1322L16.1865 7.4678C15.3629 6.6632 14.0499 6.657 13.2189 7.4532C12.3877 8.2499 12.3378 9.5619 13.1065 10.4189L14.6685 12.125H2.67773C2.01513 12.125 1.47773 11.5876 1.47773 10.925ZM6.60213 12.925L3.75773 14.0201L3.33693 12.925H6.60213ZM6.27253 17.2081C5.65413 17.4465 4.95963 17.1382 4.72133 16.5198L4.04653 14.765L8.82133 12.925V12.9226H15.4017L15.9216 13.4894L6.27253 17.2081ZM23.8777 23.325H17.4777V20.125H23.8777V23.325ZM23.8777 19.325H17.2997L17.1262 19.0478C16.1509 17.4892 16.1121 15.5206 17.0249 13.925C17.1113 13.774 17.0901 13.5844 16.9725 13.4562L13.6946 9.8802C13.2058 9.3452 13.2333 8.5181 13.7566 8.017C14.2801 7.5158 15.1076 7.524 15.6208 8.0352L21.9949 14.4078L22.5605 13.8422L21.0805 12.3622L21.4909 12.2022C22.5207 11.8049 23.0339 10.6485 22.6377 9.6181L21.2838 6.1025L22.5796 7.401C23.4076 8.2288 23.8745 9.3506 23.8777 10.5215V19.325Z" fill="#FF0000"/>
<path d="M5.23734 5.72498C5.81174 5.72498 6.27734 5.25938 6.27734 4.68498V2.76498C6.27734 2.19058 5.81174 1.72498 5.23734 1.72498H3.31734C2.74294 1.72498 2.27734 2.19058 2.27734 2.76498V4.68498C2.27734 5.25938 2.74294 5.72498 3.31734 5.72498H5.23734ZM3.07734 4.68498V4.12498H3.87734V3.32498H3.07734V2.76498C3.07734 2.63248 3.18484 2.52498 3.31734 2.52498H5.23734C5.36984 2.52498 5.47734 2.63248 5.47734 2.76498V3.32498H4.67734V4.12498H5.47734V4.68498C5.47734 4.81748 5.36984 4.92498 5.23734 4.92498H3.31734C3.18484 4.92498 3.07734 4.81748 3.07734 4.68498Z" fill="#FF0000"/>
<path d="M2.67773 6.92505H4.27773V7.72505H2.67773V6.92505Z" fill="#FF0000"/>
<path d="M2.67773 9.32495H4.27773V10.125H2.67773V9.32495Z" fill="#FF0000"/>
<path d="M9.87793 9.32495H11.4779V10.125H9.87793V9.32495Z" fill="#FF0000"/>
<path d="M5.07812 6.92505H6.67813V7.72505H5.07812V6.92505Z" fill="#FF0000"/>
<path d="M7.47754 6.92505H9.07754V7.72505H7.47754V6.92505Z" fill="#FF0000"/>
<path d="M9.87793 6.92505H11.4779V7.72505H9.87793V6.92505Z" fill="#FF0000"/>
<path d="M17.4775 2.125H18.2775V3.325H17.4775V2.125Z" fill="#FF0000"/>
<path d="M15.8779 2.125H16.6779V3.325H15.8779V2.125Z" fill="#FF0000"/>
<path d="M14.2773 2.125H15.0773V3.325H14.2773V2.125Z" fill="#FF0000"/>
<path d="M12.6777 2.125H13.4777V3.325H12.6777V2.125Z" fill="#FF0000"/>
<path d="M18.2773 20.925H19.0773V21.725H18.2773V20.925Z" fill="#FF0000"/>
</svg>
