<svg width="40" height="36" viewBox="0 0 40 36" fill="none" xmlns="http://www.w3.org/2000/svg">
<path d="M34.9291 3.00687H28.8741V1.15332C28.8741 0.535469 28.3387 0 27.7208 0C27.103 0 26.5675 0.535469 26.5675 1.15332V3.04805H12.5629V1.15332C12.5629 0.535469 12.0275 0 11.4096 0C10.7918 0 10.2563 0.535469 10.2563 1.15332V3.04805H4.20137C1.85355 3.04805 0 4.94279 0 7.24943V31.7986C0 34.1465 1.89474 36 4.20137 36H34.8879C37.2357 36 39.0892 34.1053 39.0892 31.7986V7.24943C39.1304 4.9016 37.2357 3.00687 34.9291 3.00687ZM4.20137 5.3135H10.2563V7.20824C10.2563 7.82609 10.7918 8.36156 11.4096 8.36156C12.0275 8.36156 12.5629 7.82609 12.5629 7.20824V5.3135H26.5675V7.20824C26.5675 7.82609 27.103 8.36156 27.7208 8.36156C28.3387 8.36156 28.8741 7.82609 28.8741 7.20824V5.3135H34.9291C36 5.3135 36.865 6.17849 36.865 7.24943V11.5744H2.30664V7.24943C2.30664 6.17849 3.17162 5.3135 4.20137 5.3135ZM34.9291 33.6934H4.20137C3.13043 33.6934 2.26545 32.8284 2.26545 31.7574V13.881H36.7826V31.7986C36.8238 32.8284 35.9588 33.6934 34.9291 33.6934Z" fill="#FF0000"/>
<path d="M21.0479 18.9474H18.041C17.4232 18.9474 16.8877 19.4829 16.8877 20.1007C16.8877 20.7186 17.4232 21.254 18.041 21.254H21.0479C21.6657 21.254 22.2012 20.7186 22.2012 20.1007C22.2012 19.4829 21.7069 18.9474 21.0479 18.9474Z" fill="#FF0000"/>
<path d="M11.41 18.9474H8.44433C7.82648 18.9474 7.29102 19.4829 7.29102 20.1007C7.29102 20.7186 7.82648 21.254 8.44433 21.254H11.4512C12.069 21.254 12.6045 20.7186 12.6045 20.1007C12.5633 19.4829 12.069 18.9474 11.41 18.9474Z" fill="#FF0000"/>
<path d="M30.6866 18.9474H27.6797C27.0618 18.9474 26.5264 19.4829 26.5264 20.1007C26.5264 20.7186 27.0618 21.254 27.6797 21.254H30.6866C31.3044 21.254 31.8399 20.7186 31.8399 20.1007C31.8399 19.4829 31.3456 18.9474 30.6866 18.9474Z" fill="#FF0000"/>
<path d="M21.0479 26.3204H18.041C17.4232 26.3204 16.8877 26.8558 16.8877 27.4737C16.8877 28.0915 17.4232 28.627 18.041 28.627H21.0479C21.6657 28.627 22.2012 28.0915 22.2012 27.4737C22.2012 26.8558 21.7069 26.3204 21.0479 26.3204Z" fill="#FF0000"/>
<path d="M11.41 26.3204H8.44433C7.82648 26.3204 7.29102 26.8558 7.29102 27.4737C7.29102 28.0915 7.82648 28.627 8.44433 28.627H11.4512C12.069 28.627 12.6045 28.0915 12.6045 27.4737C12.6045 26.8558 12.069 26.3204 11.41 26.3204Z" fill="#FF0000"/>
<path d="M30.6866 26.3204H27.6797C27.0618 26.3204 26.5264 26.8558 26.5264 27.4737C26.5264 28.0915 27.0618 28.627 27.6797 28.627H30.6866C31.3044 28.627 31.8399 28.0915 31.8399 27.4737C31.8399 26.8558 31.3456 26.3204 30.6866 26.3204Z" fill="#FF0000"/>
</svg>
