<svg width="37" height="38" viewBox="0 0 37 38" fill="none" xmlns="http://www.w3.org/2000/svg">
<path d="M34.7042 19.4922C34.5513 19.1794 34.5513 18.8206 34.7042 18.5079L36.1215 15.6085C36.9106 13.9942 36.2854 12.0701 34.6981 11.228L31.8474 9.71541C31.5399 9.55228 31.329 9.26194 31.2688 8.91913L30.7113 5.74045C30.4008 3.97065 28.7637 2.78138 26.985 3.03305L23.7897 3.48504C23.4448 3.53373 23.1037 3.42285 22.8535 3.18082L20.5342 0.937066C19.2427 -0.312318 17.2195 -0.312392 15.9281 0.937066L13.6087 3.18104C13.3584 3.42314 13.0174 3.5338 12.6726 3.48526L9.47725 3.03328C7.69788 2.78145 6.06138 3.97087 5.75092 5.74067L5.1934 8.9192C5.13321 9.26209 4.92235 9.55235 4.61487 9.71556L1.76416 11.2281C0.176936 12.0702 -0.448276 13.9944 0.340809 15.6088L1.758 18.508C1.91089 18.8208 1.91089 19.1796 1.758 19.4924L0.340735 22.3916C-0.44835 24.0059 0.176862 25.93 1.76409 26.7722L4.6148 28.2847C4.92235 28.4479 5.13321 28.7382 5.1934 29.081L5.75092 32.2597C6.03354 33.8708 7.41504 35.0007 9.00278 35.0006C9.15916 35.0006 9.31783 34.9896 9.47733 34.967L12.6726 34.515C13.0172 34.4661 13.3585 34.5772 13.6087 34.8192L15.9281 37.063C16.574 37.6878 17.4024 38.0001 18.2311 38C19.0596 37.9999 19.8885 37.6876 20.5341 37.063L22.8535 34.8192C23.1038 34.5772 23.4449 34.4666 23.7897 34.515L26.985 34.967C28.7646 35.2188 30.4008 34.0294 30.7113 32.2596L31.2689 29.0811C31.3291 28.7382 31.5399 28.4479 31.8474 28.2847L34.6981 26.7722C36.2854 25.9301 36.9106 24.0058 36.1215 22.3915L34.7042 19.4922ZM33.6709 24.836L30.8202 26.3486C29.9113 26.8309 29.2879 27.6888 29.1102 28.7023L28.5527 31.8809C28.4476 32.4797 27.8941 32.8819 27.2919 32.7969L24.0966 32.3449C23.0776 32.2005 22.0693 32.5285 21.3297 33.2439L19.0102 35.4876C18.5734 35.9102 17.8889 35.9102 17.4519 35.4876L15.1325 33.2438C14.5074 32.6392 13.6903 32.3115 12.8372 32.3115C12.6809 32.3115 12.5234 32.3225 12.3656 32.3448L9.17029 32.7968C8.56868 32.8819 8.01464 32.4796 7.90955 31.8808L7.35195 28.7021C7.17412 27.6886 6.55084 26.8307 5.6419 26.3485L2.79119 24.836C2.25415 24.551 2.04263 23.9001 2.30959 23.3539L3.72685 20.4546C4.17869 19.5301 4.17869 18.4699 3.72685 17.5454L2.30959 14.6461C2.04263 14.0999 2.25415 13.4489 2.79119 13.164L5.6419 11.6515C6.55077 11.1691 7.17412 10.3113 7.35188 9.29779L7.9094 6.11918C8.01449 5.52039 8.56801 5.11813 9.17014 5.20319L12.3654 5.65517C13.3841 5.79938 14.3928 5.47156 15.1324 4.75617L17.4518 2.51241C17.8887 2.08982 18.5732 2.08982 19.0102 2.51241L21.3296 4.75617C22.0691 5.47163 23.0777 5.79938 24.0965 5.65517L27.2918 5.20319C27.8935 5.11806 28.4475 5.52039 28.5525 6.11918L29.11 9.29786C29.2879 10.3114 29.9111 11.1693 30.8201 11.6515L33.6708 13.164C34.2078 13.4489 34.4194 14.0999 34.1524 14.6461L32.7351 17.5453C32.2833 18.4697 32.2833 19.5301 32.7351 20.4545L34.1524 23.3538C34.4194 23.9001 34.2079 24.5511 33.6709 24.836Z" fill="#FF0000"/>
<path d="M26.2378 10.993C25.8099 10.5651 25.116 10.5651 24.688 10.993L10.2238 25.4573C9.79585 25.8853 9.79585 26.5791 10.2238 27.0071C10.4378 27.2211 10.7182 27.3281 10.9986 27.3281C11.279 27.3281 11.5596 27.2211 11.7735 27.0071L26.2377 12.5428C26.6658 12.1148 26.6658 11.421 26.2378 10.993Z" fill="#FF0000"/>
<path d="M13.8482 9.13751C11.6326 9.13751 9.83008 10.94 9.83008 13.1556C9.83008 15.3711 11.6326 17.1737 13.8482 17.1737C16.0637 17.1737 17.8662 15.3711 17.8662 13.1556C17.8662 10.94 16.0637 9.13751 13.8482 9.13751ZM13.8482 14.9819C12.8411 14.9819 12.0218 14.1627 12.0218 13.1555C12.0218 12.1485 12.8411 11.3292 13.8482 11.3292C14.8552 11.3292 15.6746 12.1485 15.6746 13.1555C15.6745 14.1627 14.8552 14.9819 13.8482 14.9819Z" fill="#FF0000"/>
<path d="M22.6148 20.8264C20.3992 20.8264 18.5967 22.6289 18.5967 24.8445C18.5967 27.0601 20.3992 28.8626 22.6148 28.8626C24.8303 28.8626 26.6328 27.0601 26.6328 24.8445C26.6328 22.6289 24.8303 20.8264 22.6148 20.8264ZM22.6148 26.6709C21.6077 26.6709 20.7883 25.8516 20.7883 24.8445C20.7883 23.8374 21.6076 23.0181 22.6148 23.0181C23.6218 23.0181 24.4411 23.8374 24.4411 24.8445C24.4411 25.8516 23.6218 26.6709 22.6148 26.6709Z" fill="#FF0000"/>
</svg>
