<svg width="39" height="42" viewBox="0 0 39 42" fill="none" xmlns="http://www.w3.org/2000/svg">
<path d="M38.1448 20.8646H30.0158C29.5662 20.8646 29.2029 21.2288 29.2029 21.6775V23.5285L26.3675 21.9083C25.609 21.4743 25.1384 20.663 25.1384 19.7907V11.1098C25.1384 10.6611 24.775 10.2969 24.3255 10.2969H22.6996C20.4585 10.2969 18.6351 12.1202 18.6351 14.3614V20.8646H8.06744C7.17975 20.8646 6.32051 21.2336 5.70921 21.8775C5.08897 22.531 4.77356 23.387 4.8199 24.2893C4.86704 25.19 5.30032 25.9834 5.95552 26.5411C5.26374 27.1386 4.81583 28.01 4.81583 28.9936C4.81583 29.9691 5.25642 30.8356 5.93926 31.4323C5.25642 32.029 4.81583 32.8955 4.81583 33.871C4.81583 34.8465 5.25642 35.713 5.93926 36.3097C5.25642 36.9064 4.81583 37.7729 4.81583 38.7484C4.81583 40.5417 6.27418 42 8.06744 42H24.3255C24.4669 42 24.6059 41.9634 24.7286 41.8927L29.2029 39.3361V41.1871C29.2029 41.6358 29.5662 42 30.0158 42H38.1448C38.5943 42 38.9577 41.6358 38.9577 41.1871V21.6775C38.9577 21.2288 38.5943 20.8646 38.1448 20.8646ZM24.1092 40.3742H8.06744C7.17081 40.3742 6.44163 39.645 6.44163 38.7484C6.44163 37.8518 7.17081 37.1226 8.06744 37.1226H12.9448V35.4968H8.06744C7.17081 35.4968 6.44163 34.7676 6.44163 33.871C6.44163 32.9744 7.17081 32.2452 8.06744 32.2452H12.9448V30.6194H8.06744C7.17081 30.6194 6.44163 29.8902 6.44163 28.9936C6.44163 28.097 7.17081 27.3678 8.06744 27.3678V27.3548C8.11458 27.3564 8.15848 27.3678 8.20563 27.3678H12.9448V25.742H8.20563C7.27811 25.742 6.48878 25.0526 6.44407 24.2048C6.4205 23.752 6.5782 23.3236 6.88873 22.9968C7.19844 22.67 7.61709 22.4904 8.06744 22.4904H19.448C19.8976 22.4904 20.2609 22.1262 20.2609 21.6775V14.3614C20.2609 13.0168 21.3551 11.9227 22.6996 11.9227H23.5126V19.7907C23.5126 21.2458 24.2978 22.5977 25.5611 23.3195L29.2029 25.4006V37.464L24.1092 40.3742ZM37.3319 40.3742H30.8287V22.4904H37.3319V40.3742Z" fill="#FF0000"/>
<path d="M34.8924 24.1161H33.2666V25.742H34.8924V24.1161Z" fill="#FF0000"/>
<path d="M34.8924 37.1225H33.2666V38.7483H34.8924V37.1225Z" fill="#FF0000"/>
<path d="M13.7877 15.1846L12.3326 10.0942L15.863 7.97659C16.1353 7.8132 16.2873 7.50673 16.2524 7.19133C16.2174 6.87592 16.002 6.60929 15.7012 6.50849L11.1433 4.98918L8.8558 0.41336C8.57942 -0.137787 7.67791 -0.137787 7.40152 0.41336L5.11402 4.98918L0.556084 6.50849C0.255311 6.60929 0.039892 6.87592 0.00493723 7.19133C-0.0300175 7.50673 0.122808 7.81401 0.394317 7.97659L3.92474 10.0942L2.46965 15.1846C2.37617 15.5122 2.49729 15.8634 2.77205 16.065C3.04844 16.2666 3.41993 16.2739 3.70282 16.0845L8.12825 13.1336L12.5545 16.0845C12.6911 16.1755 12.8488 16.221 13.0057 16.221C13.1739 16.221 13.3422 16.169 13.4853 16.065C13.76 15.8642 13.8812 15.5122 13.7877 15.1846ZM8.57941 11.4802C8.44285 11.3891 8.28514 11.3436 8.12825 11.3436C7.97136 11.3436 7.81366 11.3891 7.67709 11.4802L4.6401 13.5051L5.65866 9.94137C5.75946 9.58776 5.60989 9.21057 5.2953 9.02117L2.74604 7.4921L5.94724 6.42557C6.15128 6.35729 6.32036 6.21097 6.4171 6.01831L8.12825 2.59356L9.83941 6.01668C9.93614 6.20934 10.1052 6.35566 10.3093 6.42395L13.5105 7.49047L10.9612 9.01954C10.6458 9.20895 10.497 9.58613 10.5978 9.93974L11.6164 13.5035L8.57941 11.4802Z" fill="#FF0000"/>
</svg>
