<svg width="39" height="38" viewBox="0 0 39 38" fill="none" xmlns="http://www.w3.org/2000/svg">
<path d="M19.5 0C9.0234 0 0.5 8.5234 0.5 19C0.5 29.4766 9.0234 38 19.5 38C29.9766 38 38.5 29.4766 38.5 19C38.5 8.5234 29.9766 0 19.5 0ZM19.5 35.8889C10.1875 35.8889 2.61111 28.3125 2.61111 19C2.61111 9.68747 10.1875 2.11111 19.5 2.11111C28.8125 2.11111 36.3889 9.68747 36.3889 19C36.3889 28.3125 28.8125 35.8889 19.5 35.8889Z" fill="#FF0000"/>
<path d="M28.4858 8.52172L21.0188 15.9887C20.5628 15.7544 20.0473 15.6197 19.5001 15.6197C18.9529 15.6197 18.4378 15.7544 17.9814 15.9887L13.0519 11.0589C12.6394 10.6463 11.9715 10.6463 11.5594 11.0589C11.1469 11.4709 11.1469 12.1393 11.5594 12.5514L16.504 17.4961C16.2874 17.9381 16.1624 18.433 16.1624 18.9578C16.1624 20.7983 17.6601 22.2959 19.5005 22.2959C21.341 22.2959 22.8386 20.7983 22.8386 18.9578C22.8386 18.433 22.7136 17.9381 22.497 17.4961L29.9788 10.0143C30.3913 9.60219 30.3913 8.93381 29.9788 8.52172C29.5663 8.10921 28.8984 8.10921 28.4858 8.52172ZM19.5001 20.1848C18.8233 20.1848 18.2731 19.6342 18.2731 18.9578C18.2731 18.2814 18.8237 17.7308 19.5001 17.7308C20.1765 17.7308 20.7271 18.2814 20.7271 18.9578C20.7271 19.6342 20.1769 20.1848 19.5001 20.1848Z" fill="#FF0000"/>
<path d="M19.4999 6.7454C20.083 6.7454 20.5554 6.27294 20.5554 5.68985V4.03938C20.5554 3.45629 20.083 2.98383 19.4999 2.98383C18.9168 2.98383 18.4443 3.45629 18.4443 4.03938V5.68985C18.4443 6.27251 18.9168 6.7454 19.4999 6.7454Z" fill="#FF0000"/>
<path d="M19.4999 31.1702C18.9168 31.1702 18.4443 31.6426 18.4443 32.2257V33.8762C18.4443 34.4593 18.9168 34.9317 19.4999 34.9317C20.083 34.9317 20.5554 34.4593 20.5554 33.8762V32.2257C20.5554 31.6426 20.083 31.1702 19.4999 31.1702Z" fill="#FF0000"/>
<path d="M32.7675 20.0133H34.4179C35.001 20.0133 35.4735 19.5409 35.4735 18.9578C35.4735 18.3747 35.001 17.9022 34.4179 17.9022H32.7675C32.1844 17.9022 31.7119 18.3747 31.7119 18.9578C31.7119 19.5409 32.1844 20.0133 32.7675 20.0133Z" fill="#FF0000"/>
<path d="M6.2319 17.9022H4.58143C3.99835 17.9022 3.52588 18.3747 3.52588 18.9578C3.52588 19.5409 3.99835 20.0133 4.58143 20.0133H6.2319C6.81499 20.0133 7.28746 19.5409 7.28746 18.9578C7.28746 18.3747 6.81499 17.9022 6.2319 17.9022Z" fill="#FF0000"/>
</svg>
