<svg width="41" height="42" viewBox="0 0 41 42" fill="none" xmlns="http://www.w3.org/2000/svg">
<path d="M40.2626 15.5189L37.995 13.8364V4.09203C37.995 3.76782 37.7322 3.50493 37.4079 3.50493H24.0551C24.0324 3.48133 20.8498 1.11563 20.8498 1.11563C20.6421 0.961494 20.3579 0.961416 20.1501 1.11563L16.9298 3.50493H3.59195C3.26773 3.50493 3.00484 3.76782 3.00484 4.09203V13.8363L0.737265 15.5188C0.589453 15.6244 0.5 15.8101 0.5 15.9903V40.413C0.5 40.7372 0.76289 41 1.08711 41H39.9129C40.2074 41 40.4634 40.7707 40.4962 40.4783C40.4986 40.4568 40.5 40.4351 40.5 40.413V15.9904C40.4999 15.8026 40.407 15.6344 40.2626 15.5189ZM37.995 15.2985L38.8737 15.9504L37.995 16.5031V15.2985ZM20.5 2.31821L22.0996 3.505H18.9004L20.5 2.31821ZM4.17905 4.67914H36.8209V17.2416L34.7659 18.5343H29.0714C28.7471 18.5343 28.4843 18.7972 28.4843 19.1214C28.4843 19.4456 28.7471 19.7085 29.0714 19.7085H32.8993L20.5 27.5081L8.10069 19.7085H22.2578C22.5821 19.7085 22.8449 19.4456 22.8449 19.1214C22.8449 18.7972 22.5821 18.5343 22.2578 18.5343H6.23405L4.17905 17.2416V4.67914ZM3.00492 15.2985V16.5031L2.12625 15.9504L3.00492 15.2985ZM1.67414 39.8259V17.0531L37.8769 39.8258H1.67414V39.8259ZM39.3258 39.3501L21.6026 28.2016L39.3258 17.0531V39.3501Z" fill="#FF0000" stroke="#FF0000" stroke-width="0.3"/>
<path d="M33.0246 7.88849H28.0148C27.6905 7.88849 27.4277 8.15138 27.4277 8.4756V14.7378C27.4277 15.0621 27.6906 15.325 28.0148 15.325H33.0246C33.3489 15.325 33.6117 15.0621 33.6117 14.7378V8.4756C33.6117 8.15138 33.3489 7.88849 33.0246 7.88849ZM32.4376 14.1507H28.602V9.06271H32.4376V14.1507Z" fill="#FF0000" stroke="#FF0000" stroke-width="0.3"/>
<path d="M25.51 7.88849H7.97578C7.65156 7.88849 7.38867 8.15138 7.38867 8.4756C7.38867 8.79981 7.65156 9.06271 7.97578 9.06271H25.51C25.8343 9.06271 26.0971 8.79981 26.0971 8.4756C26.0971 8.15138 25.8343 7.88849 25.51 7.88849Z" fill="#FF0000" stroke="#FF0000" stroke-width="0.3"/>
<path d="M17.4083 11.3132H7.97578C7.65156 11.3132 7.38867 11.5761 7.38867 11.9003C7.38867 12.2245 7.65156 12.4874 7.97578 12.4874H17.4083C17.7325 12.4874 17.9954 12.2245 17.9954 11.9003C17.9953 11.576 17.7325 11.3132 17.4083 11.3132Z" fill="#FF0000" stroke="#FF0000" stroke-width="0.3"/>
<path d="M20.5393 14.7379H7.97578C7.65156 14.7379 7.38867 15.0007 7.38867 15.325C7.38867 15.6492 7.65156 15.9121 7.97578 15.9121H20.5393C20.8636 15.9121 21.1265 15.6492 21.1265 15.325C21.1265 15.0007 20.8636 14.7379 20.5393 14.7379Z" fill="#FF0000" stroke="#FF0000" stroke-width="0.3"/>
</svg>
