<svg width="44" height="43" viewBox="0 0 44 43" fill="none" xmlns="http://www.w3.org/2000/svg">
<path fill-rule="evenodd" clip-rule="evenodd" d="M42.8811 0H6.51398C6.0477 0 5.66973 0.377968 5.66973 0.844245V10.2609C3.36334 11.4045 1.84986 13.7967 1.84986 16.3876V21.9078C1.84986 22.3741 2.22783 22.7521 2.69411 22.7521C3.16038 22.7521 3.53835 22.3741 3.53835 21.9078V16.3876C3.53835 14.7329 4.35921 13.1851 5.66973 12.2276V19.3462C5.66973 19.6876 5.87547 19.9955 6.19088 20.1262C6.50638 20.2569 6.86949 20.1847 7.11086 19.9432C7.11086 19.9432 7.49111 19.5629 7.49119 19.5628C7.97469 19.0793 8.66613 18.8262 9.34726 18.8713C9.34887 18.8714 9.35047 18.8714 9.35207 18.8715C9.35942 18.872 9.36677 18.8715 9.37411 18.8718C9.61033 18.8824 9.83971 18.7936 10.007 18.6262C10.007 18.6262 12.7611 15.8723 12.7626 15.8707C13.1535 15.4798 13.7811 15.3885 14.2685 15.6479C14.3781 15.7062 14.4794 15.781 14.5693 15.871C15.0246 16.326 15.0627 17.0856 14.6541 17.584C14.6275 17.6163 14.5992 17.6476 14.5693 17.6776L11.8138 20.4331C11.6412 20.6057 11.5518 20.8447 11.5686 21.0882C11.6165 21.7833 11.3646 22.4616 10.8772 22.9489L10.4707 23.3554C10.2292 23.5968 10.157 23.9599 10.2877 24.2754C10.4183 24.5909 10.7262 24.7967 11.0677 24.7967H17.0742V27.5328C17.0742 28.9266 15.9865 30.111 14.5978 30.2292C14.1609 30.2663 13.8251 30.6319 13.8251 31.0704V33.3378H3.53835V28.6619C3.53835 28.1956 3.16038 27.8176 2.69411 27.8176C2.22783 27.8176 1.84986 28.1956 1.84986 28.6619V33.3378H1.34424C0.877968 33.3378 0.5 33.7158 0.5 34.182V42.1558C0.5 42.622 0.877968 43 1.34424 43H16.0193C16.4856 43 16.8636 42.622 16.8636 42.1558V34.182C16.8636 33.7158 16.4856 33.3378 16.0193 33.3378H15.5138V31.7744C17.3871 31.2629 18.7628 29.5303 18.7628 27.5328V24.7967H42.8811C43.3474 24.7967 43.7253 24.4187 43.7253 23.9524V0.844245C43.7253 0.377968 43.3474 0 42.8811 0ZM15.1751 41.3114H2.18849V35.0262H2.6925C2.69309 35.0262 2.6936 35.0263 2.69419 35.0263H14.6696C14.6701 35.0263 14.6707 35.0262 14.6713 35.0262H15.1753V41.3114H15.1751ZM41.9583 1.68849C41.7643 2.72953 41.2154 3.72557 40.3652 4.55774C39.3705 5.53115 38.1124 6.11233 36.9994 6.11233H12.3957C11.2827 6.11233 10.0245 5.53115 9.02991 4.55774C8.17967 3.72565 7.63074 2.72953 7.43674 1.68849H41.9583ZM42.0368 23.1081H17.9185H12.8212C13.0922 22.5737 13.244 21.9819 13.2613 21.3736L15.7632 18.8716C15.9028 18.7319 16.0268 18.5806 16.1342 18.4199C16.4565 17.9376 16.6295 17.3697 16.6295 16.7742C16.6295 15.9803 16.3219 15.2354 15.7632 14.6768C15.3849 14.2985 14.905 14.0268 14.3858 13.8978C13.3665 13.6445 12.3204 13.9577 11.5686 14.6768L9.06647 17.1789C8.46334 17.1957 7.88317 17.3417 7.35814 17.6036V10.8084V5.23913C7.51196 5.41946 7.67549 5.59481 7.84881 5.7645C9.15165 7.03965 10.8514 7.80091 12.3956 7.80091H36.9993C38.5435 7.80091 40.2432 7.03965 41.5461 5.7645C41.7194 5.59489 41.8829 5.41954 42.0367 5.23913V23.1081H42.0368Z" fill="#FF0000"/>
<path fill-rule="evenodd" clip-rule="evenodd" d="M38.5906 14.3375H26.2349C25.7686 14.3375 25.3906 14.7154 25.3906 15.1817V19.6616C25.3906 20.1279 25.7686 20.5059 26.2349 20.5059H38.5906C39.0568 20.5059 39.4348 20.1279 39.4348 19.6616V15.1817C39.4348 14.7154 39.0568 14.3375 38.5906 14.3375ZM37.7463 18.8174H27.0791V16.026H37.7463V18.8174Z" fill="#FF0000"/>
<path fill-rule="evenodd" clip-rule="evenodd" d="M2.69385 26.129C3.15886 26.129 3.53818 25.7498 3.53818 25.2848C3.53818 24.8198 3.15886 24.4406 2.69385 24.4406C2.22884 24.4406 1.84961 24.8198 1.84961 25.2848C1.84961 25.7498 2.22893 26.129 2.69385 26.129Z" fill="#FF0000"/>
</svg>
