<svg width="15" height="21" viewBox="0 0 15 21" fill="none" xmlns="http://www.w3.org/2000/svg">
<path d="M7.06945 4.8833C5.65995 4.8833 4.5127 6.03055 4.5127 7.44005C4.5127 8.84955 5.65995 9.9968 7.06945 9.9968C8.47895 9.9968 9.6262 8.84955 9.6262 7.44005C9.6262 6.03055 8.47895 4.8833 7.06945 4.8833ZM7.06945 9.2663C6.06245 9.2663 5.2432 8.44705 5.2432 7.44005C5.2432 6.43306 6.06245 5.6138 7.06945 5.6138C8.07644 5.6138 8.8957 6.43306 8.8957 7.44005C8.8957 8.44705 8.07644 9.2663 7.06945 9.2663Z" fill="#FF0000"/>
<path d="M11.9574 2.55161C10.6344 1.22867 8.87538 0.5 7.00456 0.5C5.13339 0.5 3.37471 1.22867 2.05177 2.55161C-0.396498 4.99952 -0.700751 9.60532 1.39286 12.3958L7.00456 20.5L12.6079 12.4072C14.7099 9.60532 14.4056 4.99952 11.9574 2.55161ZM12.0154 11.9802L7.00456 19.2165L1.98566 11.9689C0.086728 9.43694 0.358839 5.27747 2.5686 3.06807C3.75347 1.8832 5.3288 1.2305 7.00456 1.2305C8.68033 1.2305 10.2557 1.8832 11.4409 3.06807C13.6507 5.27747 13.9228 9.43694 12.0154 11.9802Z" fill="#FF0000"/>
</svg>
