<?xml version="1.0"?>
<!--Icons from directory ""-->
<svg xmlns="http://www.w3.org/2000/svg" width="48" height="443" viewBox="0 0 48 443"><svg width="37" height="38" fill="none" id="price1" y="0"><path d="M34.704 19.492a1.113 1.113 0 0 1 0-.984l1.417-2.9a3.299 3.299 0 0 0-1.423-4.38l-2.85-1.513a1.114 1.114 0 0 1-.58-.796l-.557-3.179a3.299 3.299 0 0 0-3.726-2.707l-3.195.452a1.114 1.114 0 0 1-.936-.304L20.534.937a3.299 3.299 0 0 0-4.606 0l-2.32 2.244c-.25.242-.59.353-.935.304l-3.196-.452a3.298 3.298 0 0 0-3.726 2.708l-.558 3.178c-.06.343-.27.633-.578.797l-2.85 1.512a3.299 3.299 0 0 0-1.424 4.38l1.417 2.9c.153.313.153.672 0 .984l-1.417 2.9a3.299 3.299 0 0 0 1.423 4.38l2.85 1.513c.308.163.52.453.58.796l.557 3.179a3.297 3.297 0 0 0 3.726 2.707l3.196-.452c.344-.049.685.062.936.304l2.32 2.244a3.302 3.302 0 0 0 4.605 0l2.32-2.244c.25-.242.59-.352.936-.304l3.195.452a3.298 3.298 0 0 0 3.726-2.707l.558-3.179c.06-.343.27-.633.578-.796l2.851-1.513a3.299 3.299 0 0 0 1.423-4.38l-1.417-2.9zm-1.033 5.344l-2.85 1.513a3.291 3.291 0 0 0-1.71 2.353l-.558 3.179a1.116 1.116 0 0 1-1.261.916l-3.195-.452a3.29 3.29 0 0 0-2.767.899l-2.32 2.244a1.116 1.116 0 0 1-1.558 0l-2.32-2.244a3.288 3.288 0 0 0-2.766-.9l-3.196.453a1.116 1.116 0 0 1-1.26-.916l-.558-3.179a3.291 3.291 0 0 0-1.71-2.354l-2.85-1.512a1.116 1.116 0 0 1-.482-1.482l1.417-2.9a3.291 3.291 0 0 0 0-2.909L2.31 14.646a1.116 1.116 0 0 1 .481-1.482l2.85-1.512a3.292 3.292 0 0 0 1.71-2.354l.558-3.179a1.116 1.116 0 0 1 1.261-.916l3.195.452a3.291 3.291 0 0 0 2.767-.899l2.32-2.244a1.116 1.116 0 0 1 1.558 0l2.32 2.244a3.29 3.29 0 0 0 2.767.9l3.195-.453a1.116 1.116 0 0 1 1.26.916l.558 3.179a3.291 3.291 0 0 0 1.71 2.354l2.85 1.512c.538.285.75.936.482 1.482l-1.417 2.9a3.292 3.292 0 0 0 0 2.909l1.417 2.899a1.116 1.116 0 0 1-.481 1.482z" fill="red"/><path d="M26.238 10.993a1.096 1.096 0 0 0-1.55 0L10.224 25.457a1.096 1.096 0 0 0 1.55 1.55l14.464-14.464a1.096 1.096 0 0 0 0-1.55zM13.848 9.138a4.023 4.023 0 0 0-4.018 4.018 4.023 4.023 0 0 0 4.018 4.018 4.023 4.023 0 0 0 4.018-4.018 4.023 4.023 0 0 0-4.018-4.018zm0 5.844a1.828 1.828 0 0 1-1.826-1.826c0-1.008.82-1.827 1.826-1.827 1.007 0 1.827.82 1.827 1.826 0 1.008-.82 1.827-1.827 1.827zM22.615 20.826a4.023 4.023 0 0 0-4.018 4.018 4.023 4.023 0 0 0 4.018 4.019 4.023 4.023 0 0 0 4.018-4.018 4.023 4.023 0 0 0-4.018-4.019zm0 5.845a1.829 1.829 0 0 1-1.827-1.826c0-1.008.82-1.827 1.827-1.827 1.007 0 1.826.82 1.826 1.826 0 1.008-.82 1.827-1.826 1.827z" fill="red"/></svg><svg width="25" height="25" fill="none" id="price10" y="38"><path d="M20.678 4.363V2.125a2.003 2.003 0 0 0-2-2h-16a2.003 2.003 0 0 0-2 2v8.8a1.996 1.996 0 0 0 1.793 1.98l1.504 3.903a2 2 0 0 0 2.585 1.147l9.39-3.617a5.782 5.782 0 0 0 .498 5.134l.23.367v3.886a.4.4 0 0 0 .4.4h7.2a.4.4 0 0 0 .4-.4V10.521a5.235 5.235 0 0 0-1.533-3.687l-2.467-2.471zm0 2.392l1.214 3.151a1.2 1.2 0 0 1-.69 1.551l-.693.268a2 2 0 0 0 .169-.8v-4.17zm-19.2 4.17v-8.8a1.2 1.2 0 0 1 1.2-1.2h16a1.2 1.2 0 0 1 1.2 1.2v2.542h-.004l.004.01v6.248c-.003.07-.012.139-.027.207l-3.665-3.664a2.134 2.134 0 0 0-3.08 2.95l1.563 1.707H2.678a1.2 1.2 0 0 1-1.2-1.2zm5.124 2L3.758 14.02l-.421-1.095h3.265zm-.33 4.283a1.2 1.2 0 0 1-1.55-.688l-.675-1.755 4.774-1.84v-.002h6.58l.52.566-9.648 3.72zm17.606 6.117h-6.4v-3.2h6.4v3.2zm0-4H17.3l-.174-.277a4.988 4.988 0 0 1-.101-5.123.4.4 0 0 0-.052-.469L13.694 9.88a1.334 1.334 0 0 1 1.926-1.845l6.374 6.373.566-.566-1.48-1.48.41-.16a2 2 0 0 0 1.147-2.584l-1.354-3.516 1.296 1.299a4.43 4.43 0 0 1 1.298 3.12v8.804z" fill="red"/><path d="M5.237 5.725a1.04 1.04 0 0 0 1.04-1.04v-1.92a1.04 1.04 0 0 0-1.04-1.04h-1.92a1.04 1.04 0 0 0-1.04 1.04v1.92c0 .574.466 1.04 1.04 1.04h1.92zm-2.16-1.04v-.56h.8v-.8h-.8v-.56a.24.24 0 0 1 .24-.24h1.92a.24.24 0 0 1 .24.24v.56h-.8v.8h.8v.56a.24.24 0 0 1-.24.24h-1.92a.24.24 0 0 1-.24-.24zM2.678 6.925h1.6v.8h-1.6v-.8zM2.678 9.325h1.6v.8h-1.6v-.8zM9.878 9.325h1.6v.8h-1.6v-.8zM5.078 6.925h1.6v.8h-1.6v-.8zM7.478 6.925h1.6v.8h-1.6v-.8zM9.878 6.925h1.6v.8h-1.6v-.8zM17.477 2.125h.8v1.2h-.8v-1.2zM15.878 2.125h.8v1.2h-.8v-1.2zM14.277 2.125h.8v1.2h-.8v-1.2zM12.678 2.125h.8v1.2h-.8v-1.2zM18.277 20.925h.8v.8h-.8v-.8z" fill="red"/></svg><svg width="27" height="25" fill="none" id="price11" y="63"><path d="M21 .5H6.36a2.658 2.658 0 0 0-2.656 2.656v12.117l-1.68-1.679a.634.634 0 0 0-.898 0c-.25.25-.25.65 0 .9l2.77 2.77a.633.633 0 0 0 .452.187.633.633 0 0 0 .453-.187l2.77-2.77c.25-.25.25-.65 0-.9a.634.634 0 0 0-.899 0l-1.684 1.684V3.156c0-.764.618-1.382 1.383-1.382h14.632c.765 0 1.383.618 1.383 1.382v1.768a.639.639 0 1 0 1.279 0V3.156C23.65 1.696 22.46.5 20.999.5zM22.563 7.741l-2.77 2.77c-.25.25-.25.65 0 .9a.633.633 0 0 0 .452.187.633.633 0 0 0 .452-.187l1.684-1.684v12.117c0 .764-.618 1.383-1.382 1.383H6.36a1.382 1.382 0 0 1-1.383-1.383v-1.768a.639.639 0 1 0-1.279 0v1.768A2.658 2.658 0 0 0 6.355 24.5h14.633a2.658 2.658 0 0 0 2.657-2.656V9.727l1.684 1.684c.25.25.65.25.9 0 .249-.25.249-.65 0-.9l-2.771-2.77c-.23-.239-.655-.239-.895 0z" fill="red"/><path d="M13.075 17.553a.38.38 0 0 1 0 .76h-3.038a.38.38 0 0 1 0-.76h3.038zM14.594 13.756a.38.38 0 0 1 0-.76c.733 0 1.399-.297 1.88-.778l.021-.02a2.652 2.652 0 0 0 .758-1.86c0-.733-.298-1.399-.78-1.879l-.019-.021a2.65 2.65 0 0 0-1.86-.759h-4.557a.38.38 0 0 1 0-.76h4.557c.93 0 1.775.374 2.392.98l.025.022a3.41 3.41 0 0 1 1.002 2.417c0 .93-.374 1.775-.98 2.392l-.021.024a3.41 3.41 0 0 1-2.418 1.002z" fill="red"/><path d="M10.036 13.756a.38.38 0 0 1 0-.76h4.556a.38.38 0 0 1 0 .76h-4.556z" fill="red"/><path d="M11.935 17.933a.38.38 0 0 1-.76 0V7.3a.38.38 0 0 1 .76 0v10.633z" fill="red"/><path d="M10.036 15.275a.38.38 0 0 1 0-.76h5.318a.38.38 0 0 1 0 .76h-5.318z" fill="red"/></svg><svg width="21" height="19" fill="none" id="price12" y="88"><path d="M20.009 7.73c-.108-.621-.63-.993-1.386-1.001-.233-.004-.465.02-.691-.005-.447-.047-.564.102-.56.456.02 1.736.014 3.471.008 5.202-.005.908-.892 1.84-1.957 2.077-3.307.726-6.61 1.464-9.921 2.183a5.22 5.22 0 0 1-1.143.12c-.165 0-.394-.127-.465-.249-.046-.08.1-.278.214-.379.15-.122.342-.22.539-.287.607-.217 1.223-.414 1.837-.617 2.456-.817 4.916-1.624 7.368-2.446 1.107-.373 1.704-1.111 1.722-2.042.056-3.016.028-6.032.015-9.052 0-.478-.248-.876-.817-1.083-.655-.235-1.23-.048-1.8.223C9.498 2.49 6.023 4.144 2.544 5.8 1.52 6.286.95 6.992.954 7.998c.012 2.852.003 5.7.007 8.549 0 .142.015.288.06.423.342.97 1.23 1.525 2.457 1.525 2.445.007 4.9.003 7.347.003 2.439 0 4.87.004 7.309-.003.529 0 1.017-.11 1.413-.437.515-.413.488-.939.488-1.463.005-2.778.005-5.553.002-8.336a2.74 2.74 0 0 0-.028-.53zm-10.17-.892c.246-.64.784-1.04 1.604-1.143.543-.07 1.015.266 1.093.756.117.754-.825 1.63-1.756 1.627-.777 0-1.21-.544-.94-1.24z" fill="red"/></svg><svg width="48" height="61" fill="none" id="price13" y="107"><path d="M13.891 2.658H38.29v29.16a1.008 1.008 0 0 0 2.014 0V1.651c0-.556-.45-1.007-1.007-1.007H13.891a1.007 1.007 0 1 0 0 2.014zM6.8 19.421h21.319a1.008 1.008 0 0 0 0-2.015H6.799a1.007 1.007 0 1 0 0 2.015zm0 6.09h21.319a1.008 1.008 0 0 0 0-2.015H6.799a1.007 1.007 0 1 0 0 2.015zm15.108 4.293H6.799a1.007 1.007 0 1 0 0 2.014h15.108a1.007 1.007 0 1 0 0-2.014zm-4.169 6.894H6.8a1.007 1.007 0 1 0 0 2.014h10.94a1.007 1.007 0 1 0 0-2.014zM38.59 41.45l-6.977 8.222-4.457-3.546a1.006 1.006 0 1 0-1.254 1.576l5.22 4.155a1.008 1.008 0 0 0 1.395-.136l7.609-8.967a1.007 1.007 0 1 0-1.536-1.303zm-3.113-8.683V6.477c0-.555-.451-1.007-1.007-1.007H9.457c-.24 0-.472.086-.654.242L.353 12.93c-.224.192-.353.471-.353.767v38.276c0 .556.45 1.007 1.007 1.007h19.117c.102 0 .199-.02.292-.048 2.324 4.569 7.06 7.712 12.528 7.712 7.752 0 14.058-6.307 14.058-14.059 0-6.886-4.98-12.62-11.525-13.818zM18.885 46.585c0 1.53.254 3 .709 4.38H2.014V14.16L9.83 7.485h23.634v25.068c-.174-.007-.344-.026-.519-.026-7.752 0-14.059 6.306-14.059 14.058zM32.944 58.63c-6.642 0-12.045-5.404-12.045-12.045s5.403-12.044 12.045-12.044c6.641 0 12.044 5.403 12.044 12.044 0 6.64-5.403 12.045-12.044 12.045z" fill="red"/></svg><svg width="48" height="40" fill="none" id="price2" y="168"><path d="M36.303 17.86c-.835 0-1.514-.679-1.514-1.514s.68-1.515 1.514-1.515c.836 0 1.515.68 1.515 1.515 0 .835-.68 1.515-1.515 1.515zm0-2.315a.802.802 0 0 0 0 1.602.802.802 0 0 0 0-1.602zM25 16.34H13.057a.475.475 0 0 1-.335-.139 8.857 8.857 0 0 1-2.604-6.29c0-4.914 3.997-8.911 8.91-8.911 4.914 0 8.911 3.997 8.911 8.91a8.857 8.857 0 0 1-2.603 6.291c-.09.09-.21.14-.336.14zm-11.743-.947H24.8a7.91 7.91 0 0 0 2.192-5.482c0-4.391-3.572-7.963-7.963-7.963-4.39 0-7.963 3.572-7.963 7.963 0 2.054.777 3.994 2.191 5.482z" fill="red" stroke="red"/><path d="M18.896 14.024a.504.504 0 0 1-.504-.503v-1.102a.504.504 0 1 1 1.007 0v1.102a.504.504 0 0 1-.503.503zM18.896 5.89a.504.504 0 0 1-.504-.504V4.284a.504.504 0 0 1 1.007 0v1.102a.504.504 0 0 1-.503.503z" fill="red"/><path d="M18.896 12.923a2.265 2.265 0 0 1-2.262-2.262.504.504 0 0 1 1.008 0c0 .691.563 1.254 1.254 1.254.692 0 1.255-.563 1.255-1.254 0-.692-.563-1.255-1.255-1.255a2.265 2.265 0 0 1-2.262-2.262 2.264 2.264 0 0 1 2.262-2.262 2.265 2.265 0 0 1 2.262 2.262.504.504 0 0 1-1.007 0 1.256 1.256 0 0 0-2.51 0c0 .692.563 1.255 1.255 1.255a2.265 2.265 0 0 1 2.262 2.262 2.265 2.265 0 0 1-2.262 2.262z" fill="red"/><path d="M28.64 16.34H9.417a.474.474 0 0 1 0-.947H28.64a.474.474 0 0 1 0 .948zM5.86 18.527a.364.364 0 0 1-.104-.015c-.124-.037-3.053-.946-4.257-3.456-.689-1.438-.665-3.094.073-4.924a.357.357 0 1 1 .662.267c-.66 1.636-.69 3.099-.09 4.348 1.068 2.23 3.791 3.074 3.819 3.082a.357.357 0 0 1-.103.698z" fill="red" stroke="red"/><path d="M37.421 39h-7.816a.357.357 0 0 1-.35-.282l-.651-3.022a.357.357 0 1 1 .697-.15l.592 2.74h7.171v-5.985c0-.12.06-.244.162-.31 2.954-1.931 5.007-4.407 5.936-7.16a.357.357 0 0 1 .283-.239l3.23-.508v-8.205h-4.39a.357.357 0 0 1-.303-.166c-1.921-3.058-3.98-4.923-6.885-6.238a.357.357 0 0 1-.21-.325V2.683c-1.065.241-3.955 1.21-5.176 4.772a.355.355 0 0 1-.4.236c-.235-.041-1.91-.202-2.17-.236a.357.357 0 0 1 .092-.707c.164.021 1.75.164 1.906.19 1.708-4.489 6.02-5.031 6.064-5.036a.355.355 0 0 1 .398.354v6.665c3.612 1.695 5.574 4.197 6.88 6.245h4.551c.197 0 .357.16.357.357v8.866a.357.357 0 0 1-.302.352l-3.32.523c-.993 2.773-3.058 5.262-5.99 7.218v6.161c0 .197-.159.357-.356.357z" fill="red" stroke="red"/><path d="M17.621 38.992H9.805a.357.357 0 0 1-.357-.356v-6.15C5.22 29.657 2.8 25.665 2.8 21.506c0-4.65 2.928-8.902 7.781-11.69l.204.707c-4.54 2.66-7.271 6.644-7.271 10.982 0 3.967 2.364 7.79 6.485 10.49.1.066.162.178.162.299v5.985h7.171l.591-2.734a.358.358 0 0 1 .418-.274c3.392.661 7.146.662 10.543 0a.364.364 0 0 1 .427.35.356.356 0 0 1-.31.354 28.97 28.97 0 0 1-10.453.06l-.58 2.676a.357.357 0 0 1-.348.281z" fill="red" stroke="red"/></svg><svg width="39" height="38" fill="none" id="price3" y="208"><path d="M19.5 0C9.023 0 .5 8.523.5 19s8.523 19 19 19 19-8.523 19-19-8.523-19-19-19zm0 35.889c-9.313 0-16.889-7.577-16.889-16.889 0-9.313 7.576-16.889 16.889-16.889 9.313 0 16.889 7.576 16.889 16.889 0 9.313-7.577 16.889-16.889 16.889z" fill="red"/><path d="M28.486 8.522l-7.467 7.467a3.313 3.313 0 0 0-3.038 0l-4.93-4.93a1.055 1.055 0 1 0-1.492 1.492l4.945 4.945a3.311 3.311 0 0 0-.342 1.462 3.342 3.342 0 0 0 3.338 3.338 3.342 3.342 0 0 0 3.339-3.338c0-.525-.125-1.02-.342-1.462l7.482-7.482a1.055 1.055 0 1 0-1.493-1.492zM19.5 20.185c-.677 0-1.227-.55-1.227-1.227s.55-1.227 1.227-1.227 1.227.55 1.227 1.227c0 .676-.55 1.227-1.227 1.227zM19.5 6.745c.583 0 1.055-.472 1.055-1.055V4.04a1.055 1.055 0 1 0-2.11 0v1.65c0 .583.472 1.055 1.055 1.055zM19.5 31.17c-.583 0-1.056.473-1.056 1.056v1.65a1.055 1.055 0 1 0 2.111 0v-1.65c0-.583-.472-1.056-1.055-1.056zM32.767 20.013h1.65a1.055 1.055 0 1 0 0-2.11h-1.65a1.055 1.055 0 1 0 0 2.11zM6.232 17.902h-1.65a1.055 1.055 0 1 0 0 2.111h1.65a1.055 1.055 0 1 0 0-2.11z" fill="red"/></svg><svg width="39" height="42" fill="none" id="price4" y="246"><path d="M38.145 20.865h-8.13a.813.813 0 0 0-.812.813v1.85l-2.835-1.62a2.445 2.445 0 0 1-1.23-2.117V11.11a.813.813 0 0 0-.813-.813H22.7a4.07 4.07 0 0 0-4.065 4.064v6.504H8.067c-.887 0-1.746.369-2.358 1.013a3.23 3.23 0 0 0-.89 2.411c.048.901.481 1.694 1.137 2.252a3.233 3.233 0 0 0-1.14 2.453c0 .975.44 1.842 1.123 2.438a3.231 3.231 0 0 0-1.123 2.439c0 .975.44 1.842 1.123 2.439a3.231 3.231 0 0 0-1.123 2.438A3.255 3.255 0 0 0 8.067 42h16.258c.142 0 .28-.037.404-.107l4.474-2.557v1.851c0 .449.363.813.813.813h8.129c.45 0 .813-.364.813-.813v-19.51a.813.813 0 0 0-.813-.812zm-14.036 19.51H8.067a1.627 1.627 0 0 1 0-3.252h4.878v-1.626H8.067c-.896 0-1.625-.73-1.625-1.626 0-.897.729-1.626 1.625-1.626h4.878V30.62H8.067c-.896 0-1.625-.729-1.625-1.625 0-.897.729-1.626 1.625-1.626v-.013c.048.001.091.013.139.013h4.739v-1.626h-4.74c-.927 0-1.716-.69-1.76-1.537a1.614 1.614 0 0 1 .444-1.208c.31-.327.728-.507 1.178-.507h11.381c.45 0 .813-.364.813-.813v-7.316a2.442 2.442 0 0 1 2.439-2.438h.813v7.868c0 1.455.785 2.807 2.048 3.529l3.642 2.08v12.064l-5.094 2.91zm13.223 0h-6.503V22.49h6.503v17.884z" fill="red"/><path d="M34.892 24.116h-1.625v1.626h1.625v-1.626zM34.892 37.123h-1.625v1.625h1.625v-1.625zM13.788 15.185l-1.455-5.09 3.53-2.118a.811.811 0 0 0-.162-1.469L11.143 4.99 8.856.413c-.277-.55-1.178-.55-1.454 0L5.114 4.99.556 6.51a.812.812 0 1 0-.162 1.468l3.53 2.117-1.454 5.09a.812.812 0 1 0 1.233.9l4.425-2.95 4.427 2.95a.814.814 0 0 0 1.233-.9zM8.579 11.48a.813.813 0 0 0-.902 0L4.64 13.505 5.66 9.941a.814.814 0 0 0-.364-.92L2.746 7.492l3.201-1.066a.815.815 0 0 0 .47-.408l1.711-3.424L9.84 6.017a.815.815 0 0 0 .47.407l3.202 1.066-2.55 1.53a.813.813 0 0 0-.363.92l1.018 3.564L8.58 11.48z" fill="red"/></svg><svg width="40" height="36" fill="none" id="price5" y="288"><path d="M34.93 3.007h-6.056V1.153C28.874.535 28.34 0 27.721 0s-1.154.535-1.154 1.153v1.895H12.563V1.153C12.563.535 12.027 0 11.41 0c-.618 0-1.154.535-1.154 1.153v1.895H4.201A4.193 4.193 0 0 0 0 7.249V31.8A4.193 4.193 0 0 0 4.201 36h30.687a4.193 4.193 0 0 0 4.201-4.201V7.249a4.167 4.167 0 0 0-4.16-4.242zM4.2 5.314h6.055v1.894c0 .618.536 1.154 1.154 1.154.617 0 1.153-.536 1.153-1.154V5.314h14.004v1.894c0 .618.536 1.154 1.154 1.154.618 0 1.153-.536 1.153-1.154V5.314h6.055c1.071 0 1.936.864 1.936 1.935v4.325H2.307V7.25c0-1.07.865-1.935 1.894-1.935zm30.728 28.38H4.201a1.934 1.934 0 0 1-1.936-1.937V13.881h34.518v17.918c.04 1.03-.824 1.894-1.854 1.894z" fill="red"/><path d="M21.048 18.947H18.04c-.618 0-1.153.536-1.153 1.154 0 .618.535 1.153 1.153 1.153h3.007c.618 0 1.153-.535 1.153-1.153s-.494-1.154-1.153-1.154zM11.41 18.947H8.444c-.618 0-1.153.536-1.153 1.154 0 .618.535 1.153 1.153 1.153h3.007c.618 0 1.153-.535 1.153-1.153-.04-.618-.535-1.154-1.194-1.154zM30.687 18.947H27.68c-.618 0-1.154.536-1.154 1.154 0 .618.536 1.153 1.154 1.153h3.007c.617 0 1.153-.535 1.153-1.153s-.494-1.154-1.153-1.154zM21.048 26.32H18.04c-.618 0-1.153.536-1.153 1.154 0 .617.535 1.153 1.153 1.153h3.007c.618 0 1.153-.535 1.153-1.153s-.494-1.154-1.153-1.154zM11.41 26.32H8.444c-.618 0-1.153.536-1.153 1.154 0 .617.535 1.153 1.153 1.153h3.007c.618 0 1.153-.535 1.153-1.153s-.535-1.154-1.194-1.154zM30.687 26.32H27.68c-.618 0-1.154.536-1.154 1.154 0 .617.536 1.153 1.154 1.153h3.007c.617 0 1.153-.535 1.153-1.153s-.494-1.154-1.153-1.154z" fill="red"/></svg><svg width="41" height="44" fill="none" id="price6" y="324"><path d="M39.248 11.615H24.65c.409-.185.83-.383 1.253-.593 3.804-1.89 5.916-3.812 6.278-5.713.173-.908.03-2.278-1.63-3.65C29.182.528 27.784.188 26.395.65c-1.912.635-3.666 2.813-5.214 6.473-.36.852-.666 1.681-.916 2.416a35.496 35.496 0 0 0-.915-2.416c-1.548-3.66-3.302-5.838-5.214-6.473-1.39-.461-2.788-.121-4.158 1.01-1.66 1.372-1.802 2.742-1.63 3.65.363 1.901 2.475 3.823 6.279 5.713.424.21.844.408 1.253.593H1.283a.833.833 0 0 0-.832.833v7.628c0 .46.372.832.832.832h2.913V41.95c0 .46.373.833.833.833h30.473c.46 0 .833-.373.833-.833V20.908h2.913c.46 0 .832-.373.832-.833v-7.627a.833.833 0 0 0-.832-.833zM2.116 19.243V13.28h13.503v5.963H2.116zm13.503 21.874H5.862V20.908h9.757v20.209zm-.268-31.595c-3.209-1.596-5.115-3.203-5.366-4.525-.049-.253-.195-1.022 1.054-2.054.667-.55 1.296-.823 1.907-.823.223 0 .445.036.664.11 2.477.821 4.475 5.797 5.422 8.89a42.048 42.048 0 0 1-3.68-1.598zm7.896 31.595h-5.963V13.28h5.963v27.837zm-1.75-29.996c.947-3.093 2.943-8.068 5.423-8.891.22-.073.441-.11.665-.11.611 0 1.24.273 1.907.823 1.249 1.032 1.102 1.801 1.054 2.054-.251 1.322-2.157 2.929-5.366 4.525a42.047 42.047 0 0 1-3.682 1.599zM34.67 41.116h-9.757V20.909h9.757v20.209zm3.746-21.873H24.912V13.28h13.503v5.963z" fill="red" stroke="red" stroke-width=".8"/></svg><svg width="24" height="25" fill="none" id="price7" y="368"><path d="M22.594.25H5.907C5.13.25 4.5.88 4.5 1.656V3.25a.469.469 0 0 0 .938 0V1.656a.47.47 0 0 1 .469-.468h16.687a.47.47 0 0 1 .469.468v21.188a.47.47 0 0 1-.469.468H5.907a.47.47 0 0 1-.469-.468v-1.516a.469.469 0 0 0-.938 0v1.516c0 .775.631 1.406 1.407 1.406h16.687c.776 0 1.406-.63 1.406-1.406V1.656C24 .881 23.37.25 22.595.25z" fill="red"/><path d="M20.34 18.344H9.09a.469.469 0 0 0 0 .937h11.25a.469.469 0 1 0 0-.937zM20.67 20.919a.472.472 0 0 0-.662 0 .472.472 0 0 0 0 .662.472.472 0 0 0 .8-.331.472.472 0 0 0-.137-.331zM18.422 20.781H9.09a.469.469 0 0 0 0 .938h9.333a.469.469 0 0 0 0-.938zM12.374 4.364a5.065 5.065 0 0 0-5.058 5.059 5.045 5.045 0 0 0 1.643 3.729c.901.825 2.1 1.33 3.415 1.33a5.04 5.04 0 0 0 3.47-1.38 5.045 5.045 0 0 0 1.59-3.679c0-2.79-2.27-5.059-5.06-5.059zm0 9.18a4.1 4.1 0 0 1-2.552-.887 2.872 2.872 0 0 1 2.552-1.534c1.085 0 2.055.592 2.552 1.534a4.1 4.1 0 0 1-2.552.887zM11.388 9.2v-.364a.988.988 0 0 1 1.973 0V9.2a.988.988 0 0 1-1.973 0zm4.224 2.771a3.795 3.795 0 0 0-1.792-1.504c.298-.338.479-.782.479-1.267v-.364a1.926 1.926 0 0 0-1.925-1.924 1.926 1.926 0 0 0-1.924 1.924V9.2c0 .485.181.928.478 1.267a3.794 3.794 0 0 0-1.791 1.504 4.101 4.101 0 0 1-.884-2.547 4.126 4.126 0 0 1 4.121-4.121 4.126 4.126 0 0 1 4.122 4.121c0 .96-.33 1.846-.884 2.547z" fill="red"/><path d="M12.374 2.125c-4.024 0-7.298 3.274-7.298 7.298a7.289 7.289 0 0 0 2.796 5.74l-5.44 5.44a.876.876 0 0 1-1.238-1.237l2.783-2.782a.469.469 0 0 0-.663-.663L.53 18.703a1.8 1.8 0 0 0-.53 1.282 1.807 1.807 0 0 0 1.812 1.811c.464 0 .928-.177 1.281-.53l5.564-5.564a7.252 7.252 0 0 0 3.716 1.019c4.024 0 7.298-3.274 7.298-7.298s-3.274-7.298-7.298-7.298zm0 13.658a6.368 6.368 0 0 1-6.36-6.36 6.368 6.368 0 0 1 6.36-6.36 6.368 6.368 0 0 1 6.36 6.36 6.368 6.368 0 0 1-6.36 6.36z" fill="red"/><path d="M5.452 14.445a.471.471 0 0 0-.663 0 .472.472 0 0 0 0 .663.472.472 0 0 0 .663 0 .47.47 0 0 0 0-.663z" fill="red"/></svg><svg width="20" height="25" fill="none" id="price8" y="393"><path d="M16.75 7.625H10a.469.469 0 1 0 0 .937h6.75a.469.469 0 1 0 0-.937zM15.11 10.012a.472.472 0 0 0-.662 0 .472.472 0 0 0 0 .663.472.472 0 0 0 .662 0 .472.472 0 0 0 0-.663zM10.331 2.653a.472.472 0 0 0-.662 0 .472.472 0 0 0 0 .663.472.472 0 0 0 .662 0 .472.472 0 0 0 0-.663zM12.807 9.875h-2.806a.469.469 0 1 0 0 .938h2.806a.469.469 0 0 0 0-.938zM16.75 12.688H10a.469.469 0 1 0 0 .937h6.75a.469.469 0 0 0 0-.938zM15.11 15.075a.472.472 0 0 0-.662 0 .472.472 0 0 0 0 .663.472.472 0 0 0 .662 0 .472.472 0 0 0 0-.663zM12.807 14.938h-2.806a.469.469 0 1 0 0 .937h2.806a.469.469 0 0 0 0-.938zM16.75 17.75H10a.469.469 0 1 0 0 .938h6.75a.469.469 0 0 0 0-.938zM15.11 20.137a.472.472 0 0 0-.662 0 .472.472 0 0 0 0 .663.472.472 0 0 0 .662 0 .472.472 0 0 0 0-.663zM12.807 20h-2.806a.469.469 0 1 0 0 .938h2.806a.469.469 0 0 0 0-.938z" fill="red"/><path d="M17.652 2.328h-3.58a2.872 2.872 0 0 0-1.987-.797h-.41A1.881 1.881 0 0 0 10 .5c-.715 0-1.36.41-1.674 1.031h-.412c-.77 0-1.469.304-1.986.797h-3.58A2.288 2.288 0 0 0 .064 4.614v17.6A2.288 2.288 0 0 0 2.349 24.5h15.303a2.288 2.288 0 0 0 2.286-2.285V4.614a2.288 2.288 0 0 0-2.286-2.286zm-9.737.14h.73c.211 0 .396-.14.452-.343a.94.94 0 0 1 .904-.688.94.94 0 0 1 .903.688.469.469 0 0 0 .452.344h.73c1.017 0 1.854.785 1.938 1.781H5.976a1.948 1.948 0 0 1 1.939-1.781zM19 22.216a1.35 1.35 0 0 1-1.348 1.348H2.35A1.35 1.35 0 0 1 1 22.215V4.614A1.35 1.35 0 0 1 2.35 3.266H5.27c-.154.352-.24.74-.24 1.148v.305c0 .259.21.469.47.469h8.998c.26 0 .47-.21.47-.47v-.304c0-.408-.086-.796-.24-1.148h2.923A1.35 1.35 0 0 1 19 4.614v17.6z" fill="red"/><path d="M7.02 7.512a.469.469 0 0 0-.663 0L4.352 9.517l-.617-.618a.469.469 0 0 0-.663.663l.949.95a.467.467 0 0 0 .663 0L7.02 8.174a.469.469 0 0 0 0-.663zM5.875 17.75h-2.25a.469.469 0 0 0-.468.469v2.25c0 .259.21.468.468.468h2.25c.26 0 .47-.21.47-.468v-2.25a.469.469 0 0 0-.47-.469zM5.407 20H4.094v-1.313h1.313V20zM5.875 12.688h-2.25a.469.469 0 0 0-.468.468v2.25c0 .26.21.469.468.469h2.25c.26 0 .47-.21.47-.469v-2.25a.469.469 0 0 0-.47-.469zm-.468 2.25H4.094v-1.313h1.313v1.313z" fill="red"/></svg><svg width="24" height="25" fill="none" id="price9" y="418"><path d="M11.066 17.48a.47.47 0 0 0-.663 0 .472.472 0 0 0 0 .663.472.472 0 0 0 .663 0 .472.472 0 0 0 0-.663z" fill="red"/><path d="M21 13.313a.469.469 0 0 0-.468.469v2.061H12.47v-1.157a3.503 3.503 0 0 0-3.066-3.47c.341-.421.546-.957.546-1.54V6.38a.469.469 0 0 0-.469-.469H7.028c-1.09 0-1.977.886-1.977 1.976v1.79c0 .583.205 1.119.546 1.54a3.503 3.503 0 0 0-3.066 3.47v1.157H.938V4.581c0-.2.164-.363.365-.363h9.744a.469.469 0 1 0 0-.938H1.303C.585 3.28 0 3.864 0 4.581V18.48c0 .717.585 1.301 1.303 1.301h7.134v2.166a2.35 2.35 0 0 0-2.109 2.334c0 .26.21.469.47.469h7.874c.26 0 .47-.21.47-.469a2.35 2.35 0 0 0-2.11-2.334V19.78h7.134c.719 0 1.304-.584 1.304-1.301v-4.698a.469.469 0 0 0-.47-.469zM5.99 7.886a1.04 1.04 0 0 1 1.039-1.038h1.984v.748a.675.675 0 0 1-.675.674H5.99v-.384zm0 1.322h2.348c.241 0 .47-.053.675-.149v.618c0 .833-.678 1.51-1.512 1.51a1.513 1.513 0 0 1-1.511-1.51v-.47zm2.058 2.918l-.547.546-.547-.546h1.094zm-4.578 2.56c0-1.284.951-2.351 2.186-2.533l1.514 1.514a.467.467 0 0 0 .663 0l1.513-1.514a2.565 2.565 0 0 1 2.187 2.533v1.157H3.469v-1.157zm10.655 9.127H7.346c.194-.548.716-.941 1.33-.941h4.118c.613 0 1.136.393 1.33.94zm-4.75-1.879v-2.153h2.721v2.153h-2.72zm11.158-3.454c0 .2-.164.363-.366.363H1.303a.365.365 0 0 1-.365-.363v-1.7h19.594v1.7zM21.332 11.684a.472.472 0 0 0-.663 0 .471.471 0 0 0 .331.8.47.47 0 0 0 .332-.8zM21 2.953h-3.515a.469.469 0 1 0 0 .938h3.516a.469.469 0 1 0 0-.938zM15.895 3.09a.472.472 0 0 0-.663 0 .472.472 0 0 0 0 .663.472.472 0 0 0 .663 0 .472.472 0 0 0 0-.662zM21 5.016h-5.437a.469.469 0 0 0 0 .937h5.438a.469.469 0 1 0 0-.937z" fill="red"/><path d="M21 7.078h-5.437a.469.469 0 0 0 0 .938h5.438a.469.469 0 1 0 0-.938z" fill="red"/><path d="M21.657.75h-6.75a2.346 2.346 0 0 0-2.344 2.344V8.11c0 1.202.91 2.196 2.078 2.329v1.218a.469.469 0 0 0 .8.331l1.535-1.534h4.681a2.346 2.346 0 0 0 2.344-2.344V3.094A2.346 2.346 0 0 0 21.657.75zm1.406 7.36c0 .775-.63 1.406-1.406 1.406h-4.875a.47.47 0 0 0-.332.137l-.871.872v-.54a.469.469 0 0 0-.469-.469h-.203c-.776 0-1.406-.63-1.406-1.406V3.094c0-.776.63-1.406 1.406-1.406h6.75c.776 0 1.406.63 1.406 1.406V8.11z" fill="red"/></svg></svg>
