<svg width="22" height="21" viewBox="0 0 22 21" fill="none" xmlns="http://www.w3.org/2000/svg">
<path d="M20.8265 19.6175L15.9662 14.7572C17.27 13.2583 18.0593 11.3026 18.0593 9.16517C18.0593 4.46007 14.2323 0.637451 9.53162 0.637451C4.82652 0.637451 1.00391 4.4645 1.00391 9.16517C1.00391 13.8658 4.83096 17.6929 9.53162 17.6929C11.6691 17.6929 13.6248 16.9035 15.1236 15.5998L19.984 20.4601C20.0993 20.5754 20.2545 20.6375 20.4052 20.6375C20.556 20.6375 20.7112 20.5798 20.8265 20.4601C21.0571 20.2295 21.0571 19.8481 20.8265 19.6175ZM2.19681 9.16517C2.19681 5.12082 5.48728 1.83479 9.52719 1.83479C13.5715 1.83479 16.8576 5.12526 16.8576 9.16517C16.8576 13.2051 13.5715 16.5 9.52719 16.5C5.48728 16.5 2.19681 13.2095 2.19681 9.16517Z" fill="#FF0000" stroke="#FF0000" stroke-width="0.6"/>
</svg>
