<svg width="48" height="61" viewBox="0 0 48 61" fill="none" xmlns="http://www.w3.org/2000/svg">
<path d="M13.8911 2.65841H38.2891V31.8184C38.2891 32.3744 38.7403 32.8256 39.2963 32.8256C39.8523 32.8256 40.3035 32.3744 40.3035 31.8184V1.65123C40.3035 1.09459 39.8523 0.644043 39.2963 0.644043H13.8911C13.3345 0.644043 12.8839 1.09459 12.8839 1.65123C12.8839 2.20719 13.3351 2.65841 13.8911 2.65841ZM6.79917 19.4207H28.1179C28.6739 19.4207 29.1251 18.9694 29.1251 18.4135C29.1251 17.8568 28.6739 17.4063 28.1179 17.4063H6.79917C6.24253 17.4063 5.79198 17.8568 5.79198 18.4135C5.79198 18.9694 6.24253 19.4207 6.79917 19.4207ZM6.79917 25.5105H28.1179C28.6739 25.5105 29.1251 25.0593 29.1251 24.5033C29.1251 23.9467 28.6739 23.4961 28.1179 23.4961H6.79917C6.24253 23.4961 5.79198 23.9467 5.79198 24.5033C5.79198 25.0593 6.24253 25.5105 6.79917 25.5105ZM21.9069 29.8041H6.79917C6.24253 29.8041 5.79198 30.2553 5.79198 30.8112C5.79198 31.3672 6.24253 31.8184 6.79917 31.8184H21.9069C22.4636 31.8184 22.9141 31.3672 22.9141 30.8112C22.9141 30.2553 22.4636 29.8041 21.9069 29.8041ZM17.7385 36.698H6.79917C6.24253 36.698 5.79198 37.1492 5.79198 37.7052C5.79198 38.2612 6.24253 38.7124 6.79917 38.7124H17.7385C18.2952 38.7124 18.7457 38.2612 18.7457 37.7052C18.7457 37.1492 18.2952 36.698 17.7385 36.698ZM38.5899 41.4505L31.6135 49.6724L27.1557 46.1258C26.7219 45.7793 26.0874 45.8512 25.7409 46.287C25.3945 46.7214 25.467 47.3559 25.9021 47.7017L31.1227 51.8567C31.3073 52.0044 31.5289 52.0756 31.7491 52.0756C32.0352 52.0756 32.3192 51.9541 32.518 51.7204L40.1256 42.7538C40.4855 42.3294 40.4338 41.6942 40.0094 41.3343C39.5837 40.9737 38.9492 41.0268 38.5899 41.4505ZM35.4771 32.7672V6.47766C35.4771 5.92169 35.0258 5.47047 34.4699 5.47047H9.45746C9.21775 5.47047 8.98543 5.55642 8.80346 5.71152L0.353186 12.9304C0.12892 13.1217 0 13.401 0 13.6965V51.9729C0 52.5288 0.450547 52.98 1.00718 52.98H20.1242C20.2263 52.98 20.323 52.9606 20.4163 52.9324C22.7402 57.501 27.4767 60.644 32.9443 60.644C40.6956 60.644 47.0019 54.3371 47.0019 46.5851C47.0019 39.6993 42.0224 33.9651 35.4771 32.7672ZM18.8854 46.5851C18.8854 48.1153 19.1392 49.5852 19.5938 50.965H2.01437V14.1605L9.82878 7.48484H33.4627V32.553C33.2888 32.5463 33.1189 32.5268 32.9443 32.5268C25.1924 32.5268 18.8854 38.8331 18.8854 46.5851ZM32.9437 58.6297C26.3023 58.6297 20.8991 53.2265 20.8991 46.5851C20.8991 39.9437 26.3023 34.5405 32.9437 34.5405C39.585 34.5405 44.9876 39.9444 44.9876 46.5851C44.9876 53.2258 39.585 58.6297 32.9437 58.6297Z" fill="#FF0000"/>
</svg>
