<svg width="27" height="25" viewBox="0 0 27 25" fill="none" xmlns="http://www.w3.org/2000/svg">
<path d="M20.9992 0.5H6.36116C4.89527 0.5 3.70489 1.69038 3.70489 3.15627V15.2732L2.02587 13.5942C1.77636 13.3447 1.3761 13.3447 1.12659 13.5942C0.877075 13.8437 0.877075 14.244 1.12659 14.4935L3.89722 17.2641C4.02197 17.3889 4.18312 17.4513 4.34946 17.4513C4.5158 17.4513 4.67695 17.3889 4.8017 17.2641L7.57233 14.4935C7.82184 14.244 7.82184 13.8437 7.57233 13.5942C7.32282 13.3447 6.92256 13.3447 6.67305 13.5942L4.98884 15.2784V3.15627C4.98884 2.39214 5.60742 1.77355 6.37155 1.77355H21.0044C21.7686 1.77355 22.3871 2.39214 22.3871 3.15627V4.92365C22.3871 5.27713 22.673 5.56303 23.0265 5.56303C23.38 5.56303 23.6659 5.27713 23.6659 4.92365V3.15627C23.6503 1.69558 22.4599 0.5 20.9992 0.5Z" fill="#FF0000"/>
<path d="M22.5634 7.7411L19.7928 10.5117C19.5433 10.7612 19.5433 11.1615 19.7928 11.411C19.9175 11.5358 20.0787 11.5982 20.245 11.5982C20.4114 11.5982 20.5725 11.5358 20.6973 11.411L22.3815 9.72681V21.8438C22.3815 22.6079 21.7629 23.2265 20.9988 23.2265H6.36069C5.59655 23.2265 4.97797 22.6079 4.97797 21.8438V20.0764C4.97797 19.7229 4.69207 19.437 4.3386 19.437C3.98512 19.437 3.69922 19.7229 3.69922 20.0764V21.8438C3.69922 23.3097 4.8896 24.5 6.35549 24.5H20.9884C22.4543 24.5 23.6446 23.3097 23.6446 21.8438V9.72681L25.3288 11.411C25.5784 11.6605 25.9786 11.6605 26.2281 11.411C26.4776 11.1615 26.4776 10.7612 26.2281 10.5117L23.4575 7.7411C23.2288 7.50199 22.8025 7.50199 22.5634 7.7411Z" fill="#FF0000"/>
<path d="M13.0749 17.5527C13.2845 17.5527 13.4546 17.7227 13.4546 17.9324C13.4546 18.142 13.2845 18.3122 13.0749 18.3122H10.0368C9.82717 18.3122 9.65704 18.1421 9.65704 17.9324C9.65704 17.7227 9.82717 17.5527 10.0368 17.5527H13.0749Z" fill="#FF0000"/>
<path d="M14.5939 13.7559C14.3843 13.7559 14.2142 13.5858 14.2142 13.3761C14.2142 13.1665 14.3842 12.9964 14.5939 12.9964C15.3273 12.9964 15.9927 12.699 16.4737 12.2179L16.4951 12.1982C16.9627 11.7203 17.253 11.0636 17.253 10.3389C17.253 9.60473 16.9548 8.93937 16.4737 8.45915L16.454 8.43778C15.9753 7.96864 15.3186 7.67907 14.5939 7.67907H10.0368C9.82717 7.67907 9.65704 7.50894 9.65704 7.29931C9.65704 7.08964 9.82717 6.91956 10.0368 6.91956H14.5939C15.5235 6.91956 16.3693 7.293 16.9864 7.89902L17.0109 7.92118C17.6288 8.53908 18.0125 9.39434 18.0125 10.3382C18.0125 11.2678 17.6391 12.1128 17.0339 12.7299L17.0117 12.7544C16.393 13.373 15.5378 13.7559 14.5939 13.7559Z" fill="#FF0000"/>
<path d="M10.036 13.7559C9.82637 13.7559 9.65625 13.5858 9.65625 13.3761C9.65625 13.1665 9.82637 12.9964 10.036 12.9964H14.5924C14.802 12.9964 14.9721 13.1665 14.9721 13.3761C14.9721 13.5858 14.802 13.7559 14.5924 13.7559H10.036Z" fill="#FF0000"/>
<path d="M11.9348 17.9325C11.9348 18.1421 11.7647 18.3123 11.5551 18.3123C11.3454 18.3123 11.1753 18.1422 11.1753 17.9325V7.29999C11.1753 7.09031 11.3454 6.92027 11.5551 6.92027C11.7647 6.92027 11.9348 7.09039 11.9348 7.29999V17.9325Z" fill="#FF0000"/>
<path d="M10.036 15.275C9.82637 15.275 9.65625 15.1048 9.65625 14.8952C9.65625 14.6856 9.82637 14.5155 10.036 14.5155H15.3535C15.5631 14.5155 15.7332 14.6856 15.7332 14.8952C15.7332 15.1048 15.5631 15.275 15.3535 15.275H10.036Z" fill="#FF0000"/>
</svg>
