<svg width="41" height="44" viewBox="0 0 41 44" fill="none" xmlns="http://www.w3.org/2000/svg">
<path d="M39.2476 11.615H24.6512C25.0596 11.4304 25.4801 11.2322 25.9041 11.0216C29.7076 9.13218 31.8198 7.21005 32.182 5.30859C32.355 4.40085 32.2127 3.03086 30.5525 1.65937C29.1826 0.527824 27.7839 0.188012 26.3951 0.649362C24.4833 1.28442 22.729 3.46211 21.1806 7.12208C20.8204 7.97367 20.5149 8.80303 20.2654 9.53846C20.016 8.80295 19.7106 7.97367 19.3503 7.12208C17.8018 3.46211 16.0476 1.28442 14.1358 0.649362C12.7469 0.187847 11.3484 0.527907 9.9784 1.65946C8.3182 3.03094 8.17582 4.40085 8.34887 5.30867C8.71117 7.21005 10.8234 9.13218 14.6268 11.0216C15.0507 11.2323 15.4714 11.4304 15.8796 11.6151H1.28326C0.823567 11.6151 0.450684 11.9878 0.450684 12.4477V20.0755C0.450684 20.5353 0.823485 20.9081 1.28326 20.9081H4.19639V41.9492C4.19639 42.4089 4.56919 42.7817 5.02897 42.7817H16.4516H24.0794H35.502C35.9619 42.7817 36.3347 42.4089 36.3347 41.9491V20.908H39.2478C39.7075 20.908 40.0804 20.5353 40.0804 20.0754V12.4476C40.0802 11.9878 39.7074 11.615 39.2476 11.615ZM2.11584 19.2429V13.2802H15.619V19.2429H2.11584ZM15.6191 41.1165H5.86155V20.908H15.619V41.1165H15.6191ZM15.3511 9.52201C12.1421 7.92572 10.2362 6.3186 9.98452 4.99664C9.93648 4.74397 9.79006 3.97497 11.039 2.94305C11.7057 2.39241 12.3348 2.11965 12.9456 2.11965C13.1693 2.11965 13.3906 2.15628 13.6103 2.2292C16.0868 3.05128 18.0847 8.02717 19.0324 11.1204C18.0545 10.748 16.7092 10.1977 15.3511 9.52201ZM23.2469 41.1165H17.2842V13.2802H23.2469V41.1165ZM21.4976 11.1209C22.4439 8.02841 24.4402 3.05326 26.92 2.22953C27.14 2.15652 27.3614 2.1199 27.5853 2.1199C28.196 2.1199 28.8255 2.39266 29.4919 2.94322C30.7409 3.97497 30.5944 4.74406 30.5464 4.99681C30.2948 6.31868 28.3888 7.92589 25.1797 9.52226C23.8214 10.198 22.4757 10.7485 21.4976 11.1209ZM34.6694 41.1165H24.9119V20.908H34.6694V41.1165ZM38.415 19.2429H24.9118V13.2802H38.415V19.2429Z" fill="#FF0000" stroke="#FF0000" stroke-width="0.8"/>
</svg>
