<svg width="20" height="25" viewBox="0 0 20 25" fill="none" xmlns="http://www.w3.org/2000/svg">
<path d="M16.7505 7.62499H10.0005C9.74158 7.62499 9.53172 7.83485 9.53172 8.09374C9.53172 8.35263 9.74158 8.56248 10.0005 8.56248H16.7505C17.0094 8.56248 17.2193 8.35263 17.2193 8.09374C17.2193 7.83485 17.0094 7.62499 16.7505 7.62499Z" fill="#FF0000"/>
<path d="M15.1103 10.0124C15.0231 9.92519 14.9022 9.87503 14.7789 9.87503C14.6556 9.87503 14.5347 9.92519 14.4475 10.0124C14.3603 10.0996 14.3101 10.2205 14.3101 10.3438C14.3101 10.4671 14.3603 10.588 14.4475 10.6752C14.5347 10.7624 14.6556 10.8125 14.7789 10.8125C14.9022 10.8125 15.0231 10.7624 15.1103 10.6752C15.1975 10.588 15.2476 10.4671 15.2476 10.3438C15.2476 10.2205 15.1975 10.0996 15.1103 10.0124Z" fill="#FF0000"/>
<path d="M10.3314 2.65301C10.2442 2.56582 10.1233 2.51567 10 2.51567C9.87672 2.51567 9.75578 2.56582 9.6686 2.65301C9.58141 2.7402 9.53125 2.86114 9.53125 2.98442C9.53125 3.1077 9.58141 3.22864 9.6686 3.31582C9.75578 3.40301 9.87672 3.45317 10 3.45317C10.1233 3.45317 10.2442 3.40301 10.3314 3.31582C10.4186 3.22864 10.4687 3.1077 10.4687 2.98442C10.4687 2.86114 10.4186 2.7402 10.3314 2.65301Z" fill="#FF0000"/>
<path d="M12.8072 9.87498H10.0005C9.74158 9.87498 9.53172 10.0848 9.53172 10.3437C9.53172 10.6026 9.74158 10.8125 10.0005 10.8125H12.8072C13.0661 10.8125 13.2759 10.6026 13.2759 10.3437C13.2759 10.0848 13.0661 9.87498 12.8072 9.87498Z" fill="#FF0000"/>
<path d="M16.7505 12.6875H10.0005C9.74158 12.6875 9.53172 12.8973 9.53172 13.1562C9.53172 13.4151 9.74158 13.625 10.0005 13.625H16.7505C17.0094 13.625 17.2193 13.4151 17.2193 13.1562C17.2193 12.8973 17.0094 12.6875 16.7505 12.6875Z" fill="#FF0000"/>
<path d="M15.1103 15.0749C15.0231 14.9877 14.9022 14.9375 14.7789 14.9375C14.6556 14.9375 14.5347 14.9877 14.4475 15.0749C14.3603 15.1621 14.3101 15.283 14.3101 15.4063C14.3101 15.5295 14.3603 15.6505 14.4475 15.7377C14.5347 15.8249 14.6556 15.875 14.7789 15.875C14.9022 15.875 15.0231 15.8249 15.1103 15.7377C15.1975 15.6505 15.2476 15.5295 15.2476 15.4063C15.2476 15.283 15.1975 15.1621 15.1103 15.0749Z" fill="#FF0000"/>
<path d="M12.8072 14.9375H10.0005C9.74158 14.9375 9.53172 15.1473 9.53172 15.4062C9.53172 15.6651 9.74158 15.875 10.0005 15.875H12.8072C13.0661 15.875 13.2759 15.6651 13.2759 15.4062C13.2759 15.1473 13.0661 14.9375 12.8072 14.9375Z" fill="#FF0000"/>
<path d="M16.7505 17.75H10.0005C9.74158 17.75 9.53172 17.9598 9.53172 18.2187C9.53172 18.4776 9.74158 18.6875 10.0005 18.6875H16.7505C17.0094 18.6875 17.2193 18.4776 17.2193 18.2187C17.2193 17.9598 17.0094 17.75 16.7505 17.75Z" fill="#FF0000"/>
<path d="M15.1103 20.1374C15.0231 20.0502 14.9022 20 14.7789 20C14.6556 20 14.5347 20.0502 14.4475 20.1374C14.3603 20.2245 14.3101 20.3455 14.3101 20.4688C14.3101 20.592 14.3603 20.713 14.4475 20.8002C14.5347 20.8874 14.6556 20.9375 14.7789 20.9375C14.9022 20.9375 15.0231 20.8874 15.1103 20.8002C15.1975 20.713 15.2476 20.592 15.2476 20.4688C15.2476 20.3455 15.1975 20.2245 15.1103 20.1374Z" fill="#FF0000"/>
<path d="M12.8072 20H10.0005C9.74158 20 9.53172 20.2098 9.53172 20.4687C9.53172 20.7276 9.74158 20.9375 10.0005 20.9375H12.8072C13.0661 20.9375 13.2759 20.7276 13.2759 20.4687C13.2759 20.2098 13.0661 20 12.8072 20Z" fill="#FF0000"/>
<path d="M17.6524 2.32817H14.0722C13.5546 1.835 12.855 1.53125 12.0854 1.53125H11.6747C11.3608 0.90978 10.7159 0.5 10.0004 0.5C9.28497 0.5 8.64007 0.90978 8.3261 1.53125H7.91449C7.14485 1.53125 6.44529 1.835 5.92774 2.32817H2.34852C1.08828 2.32817 0.0629883 3.35346 0.0629883 4.6137V22.2145C0.0629883 23.4747 1.08828 24.5 2.34852 24.5H17.6524C18.9126 24.5 19.9379 23.4747 19.9379 22.2145V4.6137C19.938 3.35346 18.9127 2.32817 17.6524 2.32817ZM7.91454 2.46875H8.64513C8.85597 2.46875 9.04085 2.32798 9.09696 2.12478C9.20875 1.72011 9.58028 1.4375 10.0005 1.4375C10.4207 1.4375 10.7922 1.72011 10.9039 2.12478C10.96 2.32798 11.145 2.46875 11.3558 2.46875H12.0854C13.1028 2.46875 13.9403 3.2539 14.0238 4.25004H5.97607C6.05965 3.2539 6.89716 2.46875 7.91454 2.46875ZM19.0005 22.2145C19.0005 22.9578 18.3957 23.5625 17.6524 23.5625H2.34852C1.60522 23.5625 1.00049 22.9578 1.00049 22.2145V4.6137C1.00049 3.8704 1.60522 3.26567 2.34852 3.26567H5.27103C5.11746 3.61779 5.03173 4.00601 5.03173 4.4141V4.71879C5.03173 4.97768 5.24159 5.18754 5.50048 5.18754H14.4995C14.7584 5.18754 14.9682 4.97768 14.9682 4.71879V4.4141C14.9682 4.00606 14.8825 3.61779 14.7289 3.26567H17.6524C18.3957 3.26567 19.0005 3.8704 19.0005 4.6137V22.2145Z" fill="#FF0000"/>
<path d="M7.01965 7.5123C6.8366 7.32925 6.53979 7.32925 6.35674 7.51225L4.35228 9.51676L3.73479 8.89923C3.55175 8.71624 3.25494 8.71624 3.07184 8.89923C2.8888 9.08228 2.8888 9.37909 3.07184 9.56219L4.02082 10.5112C4.11237 10.6027 4.23232 10.6485 4.35228 10.6485C4.47223 10.6485 4.59223 10.6027 4.68373 10.5112L7.01965 8.17525C7.20269 7.99221 7.20269 7.69539 7.01965 7.5123Z" fill="#FF0000"/>
<path d="M5.87548 17.75H3.62548C3.36659 17.75 3.15673 17.9598 3.15673 18.2187V20.4687C3.15673 20.7276 3.36659 20.9375 3.62548 20.9375H5.87548C6.13437 20.9375 6.34423 20.7276 6.34423 20.4687V18.2187C6.34423 17.9598 6.13437 17.75 5.87548 17.75ZM5.40673 20H4.09423V18.6875H5.40673V20Z" fill="#FF0000"/>
<path d="M5.87548 12.6875H3.62548C3.36659 12.6875 3.15673 12.8973 3.15673 13.1562V15.4062C3.15673 15.6651 3.36659 15.875 3.62548 15.875H5.87548C6.13437 15.875 6.34423 15.6651 6.34423 15.4062V13.1562C6.34423 12.8973 6.13437 12.6875 5.87548 12.6875ZM5.40673 14.9375H4.09423V13.625H5.40673V14.9375Z" fill="#FF0000"/>
</svg>
