<svg width="48" height="61" viewBox="0 0 48 61" fill="none" xmlns="http://www.w3.org/2000/svg"><path d="M13.891 2.658H38.29v29.16a1.008 1.008 0 0 0 2.014 0V1.651c0-.556-.45-1.007-1.007-1.007H13.891a1.007 1.007 0 1 0 0 2.014zM6.8 19.421h21.319a1.008 1.008 0 0 0 0-2.015H6.799a1.007 1.007 0 1 0 0 2.015zm0 6.09h21.319a1.008 1.008 0 0 0 0-2.015H6.799a1.007 1.007 0 1 0 0 2.015zm15.108 4.293H6.799a1.007 1.007 0 1 0 0 2.014h15.108a1.007 1.007 0 1 0 0-2.014zm-4.169 6.894H6.8a1.007 1.007 0 1 0 0 2.014h10.94a1.007 1.007 0 1 0 0-2.014zM38.59 41.45l-6.977 8.222-4.457-3.546a1.006 1.006 0 1 0-1.254 1.576l5.22 4.155a1.008 1.008 0 0 0 1.395-.136l7.609-8.967a1.007 1.007 0 1 0-1.536-1.303zm-3.113-8.683V6.477c0-.555-.451-1.007-1.007-1.007H9.457c-.24 0-.472.086-.654.242L.353 12.93c-.224.192-.353.471-.353.767v38.276c0 .556.45 1.007 1.007 1.007h19.117c.102 0 .199-.02.292-.048 2.324 4.569 7.06 7.712 12.528 7.712 7.752 0 14.058-6.307 14.058-14.059 0-6.886-4.98-12.62-11.525-13.818zM18.885 46.585c0 1.53.254 3 .709 4.38H2.014V14.16L9.83 7.485h23.634v25.068c-.174-.007-.344-.026-.519-.026-7.752 0-14.059 6.306-14.059 14.058zM32.944 58.63c-6.642 0-12.045-5.404-12.045-12.045s5.403-12.044 12.045-12.044c6.641 0 12.044 5.403 12.044 12.044 0 6.64-5.403 12.045-12.044 12.045z" fill="#F00"/></svg>