<svg width="25" height="25" viewBox="0 0 25 25" fill="none" xmlns="http://www.w3.org/2000/svg"><path d="M20.678 4.363V2.125a2.003 2.003 0 0 0-2-2h-16a2.003 2.003 0 0 0-2 2v8.8a1.996 1.996 0 0 0 1.793 1.98l1.504 3.903a2 2 0 0 0 2.585 1.147l9.39-3.617a5.782 5.782 0 0 0 .498 5.134l.23.367v3.886a.4.4 0 0 0 .4.4h7.2a.4.4 0 0 0 .4-.4V10.521a5.235 5.235 0 0 0-1.533-3.687l-2.467-2.471zm0 2.392l1.214 3.151a1.2 1.2 0 0 1-.69 1.551l-.693.268a2 2 0 0 0 .169-.8v-4.17zm-19.2 4.17v-8.8a1.2 1.2 0 0 1 1.2-1.2h16a1.2 1.2 0 0 1 1.2 1.2v2.542h-.004l.004.01v6.248c-.003.07-.012.139-.027.207l-3.665-3.664a2.134 2.134 0 0 0-3.08 2.95l1.563 1.707H2.678a1.2 1.2 0 0 1-1.2-1.2zm5.124 2L3.758 14.02l-.421-1.095h3.265zm-.33 4.283a1.2 1.2 0 0 1-1.55-.688l-.675-1.755 4.774-1.84v-.002h6.58l.52.566-9.648 3.72zm17.606 6.117h-6.4v-3.2h6.4v3.2zm0-4H17.3l-.174-.277a4.988 4.988 0 0 1-.101-5.123.4.4 0 0 0-.052-.469L13.694 9.88a1.334 1.334 0 0 1 1.926-1.845l6.374 6.373.566-.566-1.48-1.48.41-.16a2 2 0 0 0 1.147-2.584l-1.354-3.516 1.296 1.299a4.43 4.43 0 0 1 1.298 3.12v8.804z" fill="#F00"/><path d="M5.237 5.725a1.04 1.04 0 0 0 1.04-1.04v-1.92a1.04 1.04 0 0 0-1.04-1.04h-1.92a1.04 1.04 0 0 0-1.04 1.04v1.92c0 .574.466 1.04 1.04 1.04h1.92zm-2.16-1.04v-.56h.8v-.8h-.8v-.56a.24.24 0 0 1 .24-.24h1.92a.24.24 0 0 1 .24.24v.56h-.8v.8h.8v.56a.24.24 0 0 1-.24.24h-1.92a.24.24 0 0 1-.24-.24zM2.678 6.925h1.6v.8h-1.6v-.8zM2.678 9.325h1.6v.8h-1.6v-.8zM9.878 9.325h1.6v.8h-1.6v-.8zM5.078 6.925h1.6v.8h-1.6v-.8zM7.478 6.925h1.6v.8h-1.6v-.8zM9.878 6.925h1.6v.8h-1.6v-.8zM17.477 2.125h.8v1.2h-.8v-1.2zM15.878 2.125h.8v1.2h-.8v-1.2zM14.277 2.125h.8v1.2h-.8v-1.2zM12.678 2.125h.8v1.2h-.8v-1.2zM18.277 20.925h.8v.8h-.8v-.8z" fill="#F00"/></svg>