<svg width="20" height="25" viewBox="0 0 20 25" fill="none" xmlns="http://www.w3.org/2000/svg"><path d="M16.75 7.625H10a.469.469 0 1 0 0 .937h6.75a.469.469 0 1 0 0-.937zM15.11 10.012a.472.472 0 0 0-.662 0 .472.472 0 0 0 0 .663.472.472 0 0 0 .662 0 .472.472 0 0 0 0-.663zM10.331 2.653a.472.472 0 0 0-.662 0 .472.472 0 0 0 0 .663.472.472 0 0 0 .662 0 .472.472 0 0 0 0-.663zM12.807 9.875h-2.806a.469.469 0 1 0 0 .938h2.806a.469.469 0 0 0 0-.938zM16.75 12.688H10a.469.469 0 1 0 0 .937h6.75a.469.469 0 0 0 0-.938zM15.11 15.075a.472.472 0 0 0-.662 0 .472.472 0 0 0 0 .663.472.472 0 0 0 .662 0 .472.472 0 0 0 0-.663zM12.807 14.938h-2.806a.469.469 0 1 0 0 .937h2.806a.469.469 0 0 0 0-.938zM16.75 17.75H10a.469.469 0 1 0 0 .938h6.75a.469.469 0 0 0 0-.938zM15.11 20.137a.472.472 0 0 0-.662 0 .472.472 0 0 0 0 .663.472.472 0 0 0 .662 0 .472.472 0 0 0 0-.663zM12.807 20h-2.806a.469.469 0 1 0 0 .938h2.806a.469.469 0 0 0 0-.938z" fill="#F00"/><path d="M17.652 2.328h-3.58a2.872 2.872 0 0 0-1.987-.797h-.41A1.881 1.881 0 0 0 10 .5c-.715 0-1.36.41-1.674 1.031h-.412c-.77 0-1.469.304-1.986.797h-3.58A2.288 2.288 0 0 0 .064 4.614v17.6A2.288 2.288 0 0 0 2.349 24.5h15.303a2.288 2.288 0 0 0 2.286-2.285V4.614a2.288 2.288 0 0 0-2.286-2.286zm-9.737.14h.73c.211 0 .396-.14.452-.343a.94.94 0 0 1 .904-.688.94.94 0 0 1 .903.688.469.469 0 0 0 .452.344h.73c1.017 0 1.854.785 1.938 1.781H5.976a1.948 1.948 0 0 1 1.939-1.781zM19 22.216a1.35 1.35 0 0 1-1.348 1.348H2.35A1.35 1.35 0 0 1 1 22.215V4.614A1.35 1.35 0 0 1 2.35 3.266H5.27c-.154.352-.24.74-.24 1.148v.305c0 .259.21.469.47.469h8.998c.26 0 .47-.21.47-.47v-.304c0-.408-.086-.796-.24-1.148h2.923A1.35 1.35 0 0 1 19 4.614v17.6z" fill="#F00"/><path d="M7.02 7.512a.469.469 0 0 0-.663 0L4.352 9.517l-.617-.618a.469.469 0 0 0-.663.663l.949.95a.467.467 0 0 0 .663 0L7.02 8.174a.469.469 0 0 0 0-.663zM5.875 17.75h-2.25a.469.469 0 0 0-.468.469v2.25c0 .259.21.468.468.468h2.25c.26 0 .47-.21.47-.468v-2.25a.469.469 0 0 0-.47-.469zM5.407 20H4.094v-1.313h1.313V20zM5.875 12.688h-2.25a.469.469 0 0 0-.468.468v2.25c0 .26.21.469.468.469h2.25c.26 0 .47-.21.47-.469v-2.25a.469.469 0 0 0-.47-.469zm-.468 2.25H4.094v-1.313h1.313v1.313z" fill="#F00"/></svg>