<svg width="24" height="25" viewBox="0 0 24 25" fill="none" xmlns="http://www.w3.org/2000/svg"><path d="M22.594.25H5.907C5.13.25 4.5.88 4.5 1.656V3.25a.469.469 0 0 0 .938 0V1.656a.47.47 0 0 1 .469-.468h16.687a.47.47 0 0 1 .469.468v21.188a.47.47 0 0 1-.469.468H5.907a.47.47 0 0 1-.469-.468v-1.516a.469.469 0 0 0-.938 0v1.516c0 .775.631 1.406 1.407 1.406h16.687c.776 0 1.406-.63 1.406-1.406V1.656C24 .881 23.37.25 22.595.25z" fill="#F00"/><path d="M20.34 18.344H9.09a.469.469 0 0 0 0 .937h11.25a.469.469 0 1 0 0-.937zM20.67 20.919a.472.472 0 0 0-.662 0 .472.472 0 0 0 0 .662.472.472 0 0 0 .8-.331.472.472 0 0 0-.137-.331zM18.422 20.781H9.09a.469.469 0 0 0 0 .938h9.333a.469.469 0 0 0 0-.938zM12.374 4.364a5.065 5.065 0 0 0-5.058 5.059 5.045 5.045 0 0 0 1.643 3.729c.901.825 2.1 1.33 3.415 1.33a5.04 5.04 0 0 0 3.47-1.38 5.045 5.045 0 0 0 1.59-3.679c0-2.79-2.27-5.059-5.06-5.059zm0 9.18a4.1 4.1 0 0 1-2.552-.887 2.872 2.872 0 0 1 2.552-1.534c1.085 0 2.055.592 2.552 1.534a4.1 4.1 0 0 1-2.552.887zM11.388 9.2v-.364a.988.988 0 0 1 1.973 0V9.2a.988.988 0 0 1-1.973 0zm4.224 2.771a3.795 3.795 0 0 0-1.792-1.504c.298-.338.479-.782.479-1.267v-.364a1.926 1.926 0 0 0-1.925-1.924 1.926 1.926 0 0 0-1.924 1.924V9.2c0 .485.181.928.478 1.267a3.794 3.794 0 0 0-1.791 1.504 4.101 4.101 0 0 1-.884-2.547 4.126 4.126 0 0 1 4.121-4.121 4.126 4.126 0 0 1 4.122 4.121c0 .96-.33 1.846-.884 2.547z" fill="#F00"/><path d="M12.374 2.125c-4.024 0-7.298 3.274-7.298 7.298a7.289 7.289 0 0 0 2.796 5.74l-5.44 5.44a.876.876 0 0 1-1.238-1.237l2.783-2.782a.469.469 0 0 0-.663-.663L.53 18.703a1.8 1.8 0 0 0-.53 1.282 1.807 1.807 0 0 0 1.812 1.811c.464 0 .928-.177 1.281-.53l5.564-5.564a7.252 7.252 0 0 0 3.716 1.019c4.024 0 7.298-3.274 7.298-7.298s-3.274-7.298-7.298-7.298zm0 13.658a6.368 6.368 0 0 1-6.36-6.36 6.368 6.368 0 0 1 6.36-6.36 6.368 6.368 0 0 1 6.36 6.36 6.368 6.368 0 0 1-6.36 6.36z" fill="#F00"/><path d="M5.452 14.445a.471.471 0 0 0-.663 0 .472.472 0 0 0 0 .663.472.472 0 0 0 .663 0 .47.47 0 0 0 0-.663z" fill="#F00"/></svg>