<svg width="48" height="40" viewBox="0 0 48 40" fill="none" xmlns="http://www.w3.org/2000/svg"><path d="M36.303 17.86c-.835 0-1.514-.679-1.514-1.514s.68-1.515 1.514-1.515c.836 0 1.515.68 1.515 1.515 0 .835-.68 1.515-1.515 1.515zm0-2.315a.802.802 0 0 0 0 1.602.802.802 0 0 0 0-1.602zM25 16.34H13.057a.475.475 0 0 1-.335-.139 8.857 8.857 0 0 1-2.604-6.29c0-4.914 3.997-8.911 8.91-8.911 4.914 0 8.911 3.997 8.911 8.91a8.857 8.857 0 0 1-2.603 6.291c-.09.09-.21.14-.336.14zm-11.743-.947H24.8a7.91 7.91 0 0 0 2.192-5.482c0-4.391-3.572-7.963-7.963-7.963-4.39 0-7.963 3.572-7.963 7.963 0 2.054.777 3.994 2.191 5.482z" fill="#F00" stroke="#F00"/><path d="M18.896 14.024a.504.504 0 0 1-.504-.503v-1.102a.504.504 0 1 1 1.007 0v1.102a.504.504 0 0 1-.503.503zM18.896 5.89a.504.504 0 0 1-.504-.504V4.284a.504.504 0 0 1 1.007 0v1.102a.504.504 0 0 1-.503.503z" fill="#F00"/><path d="M18.896 12.923a2.265 2.265 0 0 1-2.262-2.262.504.504 0 0 1 1.008 0c0 .691.563 1.254 1.254 1.254.692 0 1.255-.563 1.255-1.254 0-.692-.563-1.255-1.255-1.255a2.265 2.265 0 0 1-2.262-2.262 2.264 2.264 0 0 1 2.262-2.262 2.265 2.265 0 0 1 2.262 2.262.504.504 0 0 1-1.007 0 1.256 1.256 0 0 0-2.51 0c0 .692.563 1.255 1.255 1.255a2.265 2.265 0 0 1 2.262 2.262 2.265 2.265 0 0 1-2.262 2.262z" fill="#F00"/><path d="M28.64 16.34H9.417a.474.474 0 0 1 0-.947H28.64a.474.474 0 0 1 0 .948zM5.86 18.527a.364.364 0 0 1-.104-.015c-.124-.037-3.053-.946-4.257-3.456-.689-1.438-.665-3.094.073-4.924a.357.357 0 1 1 .662.267c-.66 1.636-.69 3.099-.09 4.348 1.068 2.23 3.791 3.074 3.819 3.082a.357.357 0 0 1-.103.698z" fill="#F00" stroke="#F00"/><path d="M37.421 39h-7.816a.357.357 0 0 1-.35-.282l-.651-3.022a.357.357 0 1 1 .697-.15l.592 2.74h7.171v-5.985c0-.12.06-.244.162-.31 2.954-1.931 5.007-4.407 5.936-7.16a.357.357 0 0 1 .283-.239l3.23-.508v-8.205h-4.39a.357.357 0 0 1-.303-.166c-1.921-3.058-3.98-4.923-6.885-6.238a.357.357 0 0 1-.21-.325V2.683c-1.065.241-3.955 1.21-5.176 4.772a.355.355 0 0 1-.4.236c-.235-.041-1.91-.202-2.17-.236a.357.357 0 0 1 .092-.707c.164.021 1.75.164 1.906.19 1.708-4.489 6.02-5.031 6.064-5.036a.355.355 0 0 1 .398.354v6.665c3.612 1.695 5.574 4.197 6.88 6.245h4.551c.197 0 .357.16.357.357v8.866a.357.357 0 0 1-.302.352l-3.32.523c-.993 2.773-3.058 5.262-5.99 7.218v6.161c0 .197-.159.357-.356.357z" fill="#F00" stroke="#F00"/><path d="M17.621 38.992H9.805a.357.357 0 0 1-.357-.356v-6.15C5.22 29.657 2.8 25.665 2.8 21.506c0-4.65 2.928-8.902 7.781-11.69l.204.707c-4.54 2.66-7.271 6.644-7.271 10.982 0 3.967 2.364 7.79 6.485 10.49.1.066.162.178.162.299v5.985h7.171l.591-2.734a.358.358 0 0 1 .418-.274c3.392.661 7.146.662 10.543 0a.364.364 0 0 1 .427.35.356.356 0 0 1-.31.354 28.97 28.97 0 0 1-10.453.06l-.58 2.676a.357.357 0 0 1-.348.281z" fill="#F00" stroke="#F00"/></svg>