<svg width="39" height="38" viewBox="0 0 39 38" fill="none" xmlns="http://www.w3.org/2000/svg"><path d="M19.5 0C9.023 0 .5 8.523.5 19s8.523 19 19 19 19-8.523 19-19-8.523-19-19-19zm0 35.889c-9.313 0-16.889-7.577-16.889-16.889 0-9.313 7.576-16.889 16.889-16.889 9.313 0 16.889 7.576 16.889 16.889 0 9.313-7.577 16.889-16.889 16.889z" fill="#F00"/><path d="M28.486 8.522l-7.467 7.467a3.313 3.313 0 0 0-3.038 0l-4.93-4.93a1.055 1.055 0 1 0-1.492 1.492l4.945 4.945a3.311 3.311 0 0 0-.342 1.462 3.342 3.342 0 0 0 3.338 3.338 3.342 3.342 0 0 0 3.339-3.338c0-.525-.125-1.02-.342-1.462l7.482-7.482a1.055 1.055 0 1 0-1.493-1.492zM19.5 20.185c-.677 0-1.227-.55-1.227-1.227s.55-1.227 1.227-1.227 1.227.55 1.227 1.227c0 .676-.55 1.227-1.227 1.227zM19.5 6.745c.583 0 1.055-.472 1.055-1.055V4.04a1.055 1.055 0 1 0-2.11 0v1.65c0 .583.472 1.055 1.055 1.055zM19.5 31.17c-.583 0-1.056.473-1.056 1.056v1.65a1.055 1.055 0 1 0 2.111 0v-1.65c0-.583-.472-1.056-1.055-1.056zM32.767 20.013h1.65a1.055 1.055 0 1 0 0-2.11h-1.65a1.055 1.055 0 1 0 0 2.11zM6.232 17.902h-1.65a1.055 1.055 0 1 0 0 2.111h1.65a1.055 1.055 0 1 0 0-2.11z" fill="#F00"/></svg>